<svg width="131" height="131" viewBox="0 0 131 131" fill="none" xmlns="http://www.w3.org/2000/svg">
<path d="M42.3011 56.9788C42.3011 58.3329 42.4095 59.4163 42.6803 60.3371C42.9511 60.9871 43.3303 61.8538 43.8178 62.8288C44.0345 63.0454 44.0886 63.3704 44.0886 63.6413C44.0886 64.0204 43.872 64.3454 43.3845 64.7246L41.1095 66.2413C40.7845 66.4579 40.4595 66.5663 40.1886 66.5663C39.8095 66.5663 39.4845 66.3496 39.1053 66.0246C38.6178 65.4829 38.1845 64.9413 37.8053 64.3454C37.4803 63.7496 37.1011 63.0454 36.722 62.2329C33.9053 65.5371 30.3845 67.2163 26.1053 67.2163C23.0719 67.2163 20.6886 66.3496 18.9011 64.6163C17.1678 62.8829 16.2469 60.5538 16.2469 57.6288C16.2469 54.6496 17.3303 52.2121 19.4969 50.2621C21.7178 48.4205 24.6428 47.4455 28.3261 47.4455C29.572 47.4455 30.7095 47.5538 32.172 47.7705C33.4178 47.933 34.8803 48.2038 36.2886 48.5288V45.9288C36.2886 43.1663 35.747 41.3788 34.6095 40.133C33.4178 38.9955 31.522 38.508 28.7594 38.508C27.4594 38.508 26.1594 38.6705 24.8594 38.9413C23.5053 39.2663 22.2053 39.6455 20.9594 40.1871C20.3636 40.4038 19.8761 40.5663 19.7136 40.6205C19.4428 40.7288 19.2803 40.7288 19.1178 40.7288C18.6303 40.7288 18.3594 40.4038 18.3594 39.6455V37.858C18.3594 37.3163 18.4136 36.883 18.6303 36.6121C18.7928 36.3413 19.1178 36.1246 19.6053 35.9621C20.9053 35.2038 22.3678 34.6621 24.1553 34.2288C25.9928 33.7417 27.8877 33.5048 29.7886 33.5246C34.0678 33.5246 37.2095 34.4996 39.2136 36.4496C41.2178 38.3996 42.1928 41.3788 42.1928 45.333V56.9788H42.3011ZM27.6761 62.5038C28.8678 62.5038 30.0595 62.2871 31.3595 61.8538C32.6595 61.4204 33.797 60.6079 34.772 59.5246C35.3678 58.8204 35.8011 58.0621 36.1261 57.1954C36.1261 56.3288 36.397 55.2996 36.397 54.0538V52.5913C35.3136 52.2121 34.2303 52.2121 33.0386 51.9413C31.923 51.8186 30.8024 51.7463 29.6803 51.7246C27.2428 51.7246 25.5094 52.2121 24.3178 53.1871C23.1261 54.1621 22.5844 55.5163 22.5844 57.3038C22.5844 59.0371 22.9636 60.3371 23.8844 61.1496C24.7511 62.0704 25.9969 62.5038 27.6761 62.5038ZM56.6011 66.3496C56.0764 66.3697 55.5549 66.258 55.0845 66.0246C54.922 65.7538 54.6511 65.2663 54.4345 64.6163L45.9845 36.7746C45.7678 35.9621 45.6595 35.583 45.6595 35.3121C45.6595 34.7163 45.9303 34.3913 46.5261 34.3913H50.047C50.7511 34.3913 51.2386 34.4996 51.4553 34.7705C51.7803 34.9871 51.997 35.4746 52.2136 36.1788L58.2261 60.0121L63.8595 36.1788C64.022 35.4746 64.2386 34.9871 64.5636 34.7705C64.8345 34.5538 65.322 34.3913 65.9178 34.3913H68.897C69.547 34.3913 70.0345 34.4996 70.3053 34.7705C70.5762 34.9871 70.847 35.4746 71.0095 36.1788L76.7512 60.3371L82.9262 36.1788C83.1428 35.4746 83.4137 34.9871 83.6303 34.7705C83.9553 34.5538 84.3887 34.3913 85.0387 34.3913H88.397C88.9928 34.3913 89.3178 34.7163 89.3178 35.3121C89.3178 35.4746 89.2637 35.6913 89.2095 35.9621C89.2095 35.9621 89.1012 36.3955 88.9928 36.7746L80.272 64.6163C80.0553 65.3746 79.8387 65.7538 79.4595 66.0246C79.2428 66.2413 78.7553 66.4038 78.1595 66.4038H75.072C74.3678 66.4038 74.0428 66.2954 73.6095 66.0246C73.2453 65.6385 73.017 65.144 72.9595 64.6163L67.3803 41.3788L61.8011 64.5621C61.6386 65.2663 61.422 65.7538 61.1511 66.0246C60.705 66.2711 60.1972 66.384 59.6886 66.3496H56.6011ZM102.914 67.3246C101.126 67.3246 99.122 67.1079 97.3345 66.6746C95.547 66.2413 94.1387 65.7538 93.2178 65.2663C92.7467 65.0411 92.3514 64.6834 92.0803 64.2371C91.9316 63.934 91.8573 63.5997 91.8637 63.2621V61.4204C91.8637 60.6621 92.1345 60.3371 92.6762 60.3371H93.3262C93.5428 60.3371 93.8678 60.6079 94.247 60.7704C95.4387 61.3121 96.7928 61.7454 98.2012 62.0163C99.6637 62.2871 101.126 62.4496 102.48 62.4496C104.755 62.4496 106.543 62.0704 107.735 61.2579C108.98 60.3371 109.63 59.3079 109.63 57.8454C109.63 56.8163 109.251 56.0038 108.655 55.2996C108.005 54.6496 106.76 53.9996 105.026 53.4579L99.772 51.833C97.172 50.9663 95.222 49.7746 94.0303 48.1496C92.8674 46.6454 92.2385 44.7968 92.2428 42.8955C92.2428 41.3788 92.5678 40.0788 93.2178 38.9413C93.8678 37.7496 94.7345 36.7746 95.7095 35.9621C96.9012 35.1496 98.0928 34.5538 99.5553 34.1205C100.964 33.6871 102.48 33.4705 104.105 33.4705C104.864 33.4705 105.676 33.5246 106.543 33.633C107.301 33.7413 108.06 33.9038 108.818 34.0121C109.576 34.2288 110.226 34.3913 110.876 34.608C111.526 34.8246 111.96 35.0413 112.393 35.258C112.88 35.5288 113.26 35.7996 113.476 36.1246C113.693 36.4496 113.801 36.8288 113.801 37.3163V39.0496C113.801 39.808 113.53 40.1871 112.989 40.1871C112.718 40.1871 112.23 40.0246 111.58 39.7538C109.576 38.833 107.247 38.3455 104.701 38.3455C102.643 38.3455 101.126 38.6705 99.8803 39.3746C98.797 40.0246 98.2012 41.108 98.2012 42.5705C98.2012 43.5996 98.5803 44.4663 99.2845 45.1163C99.9887 45.8205 101.343 46.4705 103.239 47.1205L108.385 48.7455C110.985 49.5038 112.826 50.6955 113.964 52.2121C115.047 53.6746 115.589 55.3538 115.589 57.2496C115.589 58.7663 115.264 60.1746 114.668 61.4204C114.018 62.6121 113.151 63.6954 111.96 64.5621C110.93 65.4829 109.576 66.1329 108.06 66.6204C106.543 67.1079 104.701 67.3246 102.914 67.3246ZM109.685 84.8746C97.822 93.5954 80.597 98.2538 65.9178 98.2538C45.0636 98.2538 26.3761 90.5621 12.2386 77.8329C11.1011 76.8038 12.1303 75.4496 13.4844 76.2621C28.7594 85.0913 47.5553 90.4538 67.0553 90.4538C80.2178 90.4538 94.6803 87.7454 107.951 82.0038C109.955 81.1913 111.635 83.4121 109.685 84.8746ZM114.668 79.2954C113.097 77.2913 104.593 78.3204 100.747 78.7538C99.6095 78.9163 99.447 77.8871 100.476 77.1288C107.247 72.4163 118.405 73.8788 119.651 75.3413C120.951 76.9663 119.326 88.1246 112.989 93.4329C111.96 94.2454 111.039 93.8121 111.472 92.8371C112.935 89.1538 116.13 81.1371 114.668 79.2954Z" fill="black"/>
</svg>
