<svg width="150" height="150" viewBox="0 0 150 150" fill="none" xmlns="http://www.w3.org/2000/svg">
<g clip-path="url(#clip0_1017_14)">
<path d="M46.6506 0.0756836H62.6557V6.76827H53.3432V13.4609H62.6557V20.1535H46.6506V0.0756836ZM65.853 0.0756836H81.8643V5.89911H72.5518V7.06007H81.8643V20.4452H65.853V14.3362H75.1655V13.1691H65.853V0.0756836ZM85.0678 0.0756836H101.067V5.89911H91.7541V7.06007H101.067V20.4452H85.0678V14.3362H94.3802V13.1691H85.0678V0.0756836Z" fill="black"/>
<path fill-rule="evenodd" clip-rule="evenodd" d="M74.5198 149.076L31.4091 137.106L18.7007 29.3604H130.451L117.748 137.094L74.5198 149.076ZM43.8258 78.1331L45.0116 91.3444H90.8105L89.277 108.479L74.5384 112.465H74.526L59.8123 108.492L58.8686 97.9563H45.6014L47.4515 118.705L74.5198 126.217L101.632 118.705L104.934 81.678L105.257 78.1331L107.641 51.3813H41.448L42.6524 64.5989H93.1634L91.959 78.1331H43.8258Z" fill="black"/>
</g>
<defs>
<clipPath id="clip0_1017_14">
<rect width="149" height="149" fill="white" transform="translate(0.0756836 0.0756836)"/>
</clipPath>
</defs>
</svg>