<svg width="75" height="115" viewBox="0 0 75 115" fill="none" xmlns="http://www.w3.org/2000/svg">
<g clip-path="url(#clip0_1026_14)">
<path d="M18.3749 0H36.6758V37.1741H18.3752C-5.75944 36.2159 -6.00319 1.00637 18.3749 0ZM18.3749 75.9383H36.6758V38.7641H18.3752C-6.00297 39.7705 -5.75944 74.9801 18.3749 75.9383ZM56.5427 0H38.2414V37.1741H56.5427C81.002 35.8447 80.6971 0.758807 56.5427 0ZM36.6758 96.1155V77.5282H18.3752C3.44087 77.5282 -6.00297 95.3112 4.38344 108.084C14.2861 120.744 36.6761 114.432 36.6761 96.1155M74.8811 57.3512C74.8811 43.0667 59.5507 34.0907 47.3528 41.233C35.1549 48.3752 35.1547 66.3274 47.3528 73.4696C59.5509 80.6118 74.8811 71.6357 74.8811 57.3512Z" fill="black"/>
</g>
<defs>
<clipPath id="clip0_1026_14">
<rect width="75" height="114.706" fill="white"/>
</clipPath>
</defs>
</svg>
