<svg width="114" height="114" viewBox="0 0 114 114" fill="none" xmlns="http://www.w3.org/2000/svg">
<g clip-path="url(#clip0_1038_18)">
<path d="M94.3339 8.58582C93.8348 8.51049 93.2604 9.08962 92.8084 10.455C92.0692 12.6679 87.7564 25.5358 66.8937 30.8233C69.6999 33.2339 71.4891 36.671 71.4891 40.5177C71.4891 47.8015 65.1611 53.701 57.3641 53.701C49.5718 53.701 43.2532 47.7968 43.2485 40.5177C43.2485 37.6786 44.2278 35.0655 45.8616 32.909C31.101 31.393 24.7212 18.2049 24.7212 18.2049L24.2692 37.8057C24.1515 40.4612 24.2268 43.0367 22.9979 45.5085C22.9205 45.3948 22.842 45.2818 22.7625 45.1695C21.0307 42.7597 18.8515 40.7492 16.4774 39.3709C14.1033 37.9926 11.6315 37.303 9.34846 37.382C7.55019 37.4441 5.92071 37.9813 4.57892 38.9545C2.18648 40.6857 0.856837 43.6895 0.882443 47.3052C0.908049 50.921 2.28681 54.8525 4.71546 58.2351C6.72687 61.0346 9.33389 63.2844 12.1342 64.6374C14.9346 65.9903 17.7727 66.3712 20.2106 65.7214C34.3215 76.1739 60.1467 85.2515 77.7982 74.5966L68.2639 66.9267C63.2542 68.5511 56.0034 68.5275 47.5613 65.5377C61.2155 68.278 68.6076 65.2882 72.6756 62.1383C71.6021 60.7447 69.3327 59.6618 69.3327 59.6618C69.3327 59.6618 71.9835 60.1655 73.7114 61.9971C74.4035 62.7269 74.6437 63.8192 74.7378 65.0716C77.3415 66.4747 80.3078 68.1603 83.566 70.0719C93.2651 60.3727 98.8822 42.1374 95.431 10.6669C95.2662 9.40037 94.833 8.66587 94.3339 8.58582ZM33.1585 34.2933C38.107 34.2886 42.1185 38.0364 42.1185 42.66C42.1185 47.2741 38.1023 51.022 33.1585 51.0173C28.2148 51.0173 24.2127 47.2741 24.2127 42.66C24.2127 38.0411 28.2148 34.2933 33.1585 34.2886V34.2933ZM60.3539 36.5627C59.5346 36.5621 58.7232 36.7228 57.9661 37.0358C57.209 37.3487 56.5209 37.8077 55.9412 38.3866C55.3614 38.9655 54.9014 39.6528 54.5873 40.4095C54.2732 41.1662 54.1112 41.9773 54.1106 42.7965C54.11 43.6158 54.2707 44.4271 54.5837 45.1843C54.8966 45.9414 55.3556 46.6295 55.9345 47.2092C56.5134 47.789 57.2008 48.249 57.9574 48.5631C58.7141 48.8772 59.5252 49.0391 60.3444 49.0398C61.999 49.041 63.5863 48.3849 64.7571 47.2159C65.928 46.0468 66.5864 44.4605 66.5877 42.8059C66.5889 41.1514 65.9329 39.5641 64.7638 38.3933C63.5947 37.2224 62.0084 36.564 60.3539 36.5627ZM8.83525 39.5713C8.83839 39.5713 8.84153 39.5713 8.84467 39.5713C8.87763 39.571 8.91059 39.571 8.94354 39.5713C9.5408 39.5707 10.1323 39.6859 10.6841 39.9103C11.236 40.1347 11.7373 40.4639 12.1594 40.879C12.5815 41.2941 12.9161 41.7869 13.1439 42.3293C13.3717 42.8716 13.4883 43.4528 13.4871 44.0395C13.4871 44.6255 13.3695 45.2056 13.1411 45.7469C12.9127 46.2882 12.578 46.7799 12.156 47.194C11.7341 47.6081 11.2331 47.9364 10.6819 48.1602C10.1307 48.384 9.53999 48.4989 8.94354 48.4983C7.7414 48.4959 6.58935 48.025 5.74019 47.1891C4.89103 46.3532 4.41412 45.2205 4.41412 44.0395C4.41 42.8735 4.87098 41.7523 5.69829 40.9162C6.52559 40.0801 7.65339 39.5956 8.83996 39.5666L8.83525 39.5713ZM35.0089 40.1504C34.4895 40.1566 33.9764 40.2651 33.499 40.4695C33.0215 40.674 32.589 40.9705 32.2261 41.3421C31.8632 41.7138 31.5771 42.1532 31.384 42.6354C31.191 43.1176 31.0948 43.6331 31.101 44.1525C31.1072 44.6719 31.2156 45.185 31.42 45.6625C31.6245 46.1399 31.921 46.5725 32.2927 46.9353C32.6643 47.2982 33.1038 47.5844 33.586 47.7774C34.0682 47.9704 34.5837 48.0666 35.1031 48.0604C36.152 48.0479 37.153 47.6193 37.8859 46.8687C38.6188 46.1182 39.0235 45.1073 39.011 44.0584C38.9985 43.0094 38.5698 42.0084 37.8193 41.2755C37.0688 40.5427 36.0578 40.138 35.0089 40.1504ZM73.8997 63.5226C73.6973 63.7721 73.4148 63.9887 73.1652 64.2147L74.154 64.7562C74.074 64.2853 73.9986 63.7674 73.8997 63.5226ZM71.3102 63.9934L67.8589 65.6931L68.1414 65.9285L69.0737 66.6677L78.4621 74.2293L78.5327 74.2858C81.5603 76.7065 84.6242 79.0814 87.7234 81.4095C87.6875 81.6067 87.6748 81.8074 87.6858 82.0075L88.9099 81.8191L89.3949 82.5348L100.304 89.4655C99.7391 91.3959 99.998 93.9525 101.279 96.3255C104.998 103.223 113.883 106.185 113.883 106.185C110.253 96.9187 112.899 89.3807 105.738 86.7252C104.598 86.3015 103.605 86.2873 102.776 86.5698L93.138 77.6476L92.3188 77.4027L92.201 76.1691C92.0056 76.2466 91.8167 76.3395 91.636 76.4469C90.1953 75.2228 88.4014 73.9186 86.504 72.6097C80.0818 68.6782 75.8772 66.4888 71.3054 63.9934H71.3102Z" fill="black"/>
</g>
<defs>
<clipPath id="clip0_1038_18">
<rect width="113" height="113" fill="white" transform="translate(0.882874 0.883057)"/>
</clipPath>
</defs>
</svg>
