<svg width="142" height="142" viewBox="0 0 142 142" fill="none" xmlns="http://www.w3.org/2000/svg">
<g clip-path="url(#clip0_1019_2)">
<path d="M139.016 64.7289L77.4521 3.17357C76.6092 2.33023 75.6084 1.66123 74.5068 1.20479C73.4053 0.748357 72.2246 0.513428 71.0322 0.513428C69.8399 0.513428 68.6592 0.748357 67.5576 1.20479C66.4561 1.66123 65.4552 2.33023 64.6123 3.17357L51.8342 15.9517L68.0492 32.1667C69.9615 31.5138 72.0189 31.4116 73.9866 31.8719C75.9542 32.3322 77.7528 33.3364 79.177 34.7699C80.6013 36.2033 81.5939 38.0083 82.0415 39.9789C82.4892 41.9494 82.3738 44.0061 81.7086 45.9142L97.3332 61.5476C99.6448 60.7337 102.165 60.7312 104.478 61.5406C106.791 62.35 108.76 63.923 110.06 66.0006C111.36 68.0782 111.913 70.5365 111.629 72.9707C111.346 75.405 110.241 77.67 108.499 79.3929C106.734 81.1682 104.408 82.2757 101.918 82.5265C99.4276 82.7772 96.9275 82.1555 94.8446 80.7677C92.7617 79.3798 91.2254 77.3118 90.4979 74.9169C89.7704 72.5221 89.897 69.949 90.856 67.6371L76.2889 53.0612V91.422C78.5031 92.5181 80.2748 94.3399 81.3086 96.5838C82.3425 98.8277 82.576 101.358 81.9704 103.753C81.3647 106.149 79.9564 108.264 77.9802 109.747C76.004 111.23 73.5793 111.99 71.1103 111.902C68.6412 111.814 66.277 110.882 64.4116 109.262C62.5462 107.642 61.2924 105.432 60.8592 102.999C60.4259 100.567 60.8394 98.0597 62.0307 95.8953C63.222 93.7308 65.1191 92.0401 67.4059 91.1048V52.3914C66.0865 51.8508 64.8873 51.0544 63.8772 50.0481C62.8671 49.0419 62.0662 47.8456 61.5206 46.5283C60.975 45.211 60.6955 43.7988 60.6983 42.373C60.7011 40.9472 60.986 39.5361 61.5367 38.2209L45.5597 22.235L3.34777 64.4469C2.50442 65.2899 1.83542 66.2907 1.37899 67.3922C0.922551 68.4938 0.687622 69.6745 0.687622 70.8669C0.687622 72.0592 0.922551 73.2399 1.37899 74.3415C1.83542 75.443 2.50442 76.4438 3.34777 77.2868L64.9119 138.851C65.7549 139.694 66.7557 140.363 67.8572 140.82C68.9588 141.276 70.1395 141.511 71.3319 141.511C72.5242 141.511 73.7049 141.276 74.8065 140.82C75.908 140.363 76.9088 139.694 77.7518 138.851L139.025 77.5776C139.868 76.7346 140.537 75.7338 140.994 74.6323C141.45 73.5307 141.685 72.35 141.685 71.1577C141.685 69.9653 141.45 68.7846 140.994 67.6831C140.537 66.5815 139.868 65.5807 139.025 64.7378" fill="black"/>
</g>
<defs>
<clipPath id="clip0_1019_2">
<rect width="141" height="141" fill="white" transform="translate(0.686462 0.513184)"/>
</clipPath>
</defs>
</svg>