<svg width="114" height="113" viewBox="0 0 114 113" fill="none" xmlns="http://www.w3.org/2000/svg">
<path d="M57.3829 10.2996C51.1998 10.2996 45.0773 11.5174 39.3649 13.8836C33.6525 16.2497 28.462 19.7179 24.09 24.09C15.2601 32.9198 10.2996 44.8956 10.2996 57.3829C10.2996 78.1938 23.8125 95.85 42.5046 102.112C44.8587 102.489 45.6121 101.029 45.6121 99.758V91.8009C32.57 94.6259 29.7921 85.4917 29.7921 85.4917C27.6262 80.03 24.5658 78.5704 24.5658 78.5704C20.2812 75.6513 24.8954 75.7454 24.8954 75.7454C29.6037 76.075 32.0992 80.595 32.0992 80.595C36.1954 87.7517 43.1167 85.6329 45.8004 84.5029C46.2242 81.4425 47.4483 79.3709 48.7667 78.1938C38.3142 77.0167 27.3437 72.9675 27.3437 55.0288C27.3437 49.8025 29.1329 45.6121 32.1933 42.2692C31.7225 41.0921 30.0746 36.1954 32.6642 29.8392C32.6642 29.8392 36.6192 28.5679 45.6121 34.6417C49.3317 33.6058 53.3808 33.0879 57.3829 33.0879C61.385 33.0879 65.4342 33.6058 69.1538 34.6417C78.1467 28.5679 82.1017 29.8392 82.1017 29.8392C84.6913 36.1954 83.0433 41.0921 82.5725 42.2692C85.6329 45.6121 87.4221 49.8025 87.4221 55.0288C87.4221 73.0146 76.4046 76.9696 65.905 78.1467C67.6 79.6063 69.1538 82.4784 69.1538 86.8571V99.758C69.1538 101.029 69.9071 102.536 72.3083 102.112C91.0004 95.8029 104.466 78.1938 104.466 57.3829C104.466 51.1998 103.248 45.0773 100.882 39.3649C98.5161 33.6525 95.048 28.4621 90.6759 24.09C86.3038 19.7179 81.1134 16.2497 75.4009 13.8836C69.6885 11.5174 63.566 10.2996 57.3829 10.2996Z" fill="black"/>
</svg>