<svg width="114" height="114" viewBox="0 0 114 114" fill="none" xmlns="http://www.w3.org/2000/svg">
<g clip-path="url(#clip0_1039_20)">
<path d="M36.668 70.1278C37.7838 70.8199 54.6444 74.2476 58.7641 74.9303C60.1908 75.2316 59.1785 76.7006 57.2104 77.6941C52.7704 78.8759 31.2345 70.1278 36.668 70.1278ZM63.2559 7.67647L79.7586 24.4381C81.3265 26.039 81.3029 29.137 80.4272 30.0269L72.2347 23.4729L70.6244 33.1768L63.7738 29.5655L52.8128 36.4867L49.1827 21.8909L43.2926 32.0798H34.2855C30.613 32.0798 30.1846 27.4185 33.5181 24.085C39.3423 17.7994 46.0281 11.3913 49.6629 7.67647C53.3166 3.94277 59.6776 4.05106 63.2559 7.67647ZM46.6496 4.67727L4.93382 47.363C-9.15821 64.8168 14.5294 62.7875 24.6805 67.8113C28.3248 71.5356 10.7204 74.2852 14.3646 78.0095C18.0041 81.7338 36.3902 85.185 40.0391 88.9046C43.6787 92.6289 32.5811 96.5792 36.2254 100.299C39.8649 104.028 48.2928 100.497 49.8701 109.094C50.9907 115.234 65.0498 111.731 71.9239 106.702C75.5682 102.978 64.9556 103.326 68.5998 99.6019C77.654 90.3406 86.0913 96.2402 89.1894 86.9553C90.7196 82.3694 75.8554 79.8881 79.5043 76.1639C89.9851 70.043 126.206 66.0598 109.016 48.8744L65.7843 4.67727C60.4968 -0.398313 51.664 -0.454813 46.6496 4.67727ZM94.5663 86.9553C94.5663 89.0741 110.17 90.4631 110.17 86.4563C107.947 80.0247 96.4119 80.4578 94.5663 86.9553ZM24.2803 98.2083C27.9717 101.405 33.6829 97.4125 35.392 92.9538C31.8137 88.1983 18.4091 93.128 24.2803 98.2083ZM92.6076 91.3058C87.8475 95.581 93.1444 99.9127 97.8386 97.1536C98.8838 96.0942 97.8056 92.3699 92.6076 91.3058Z" fill="black"/>
</g>
<defs>
<clipPath id="clip0_1039_20">
<rect width="113" height="113" fill="white" transform="translate(0.573914 0.110107)"/>
</clipPath>
</defs>
</svg>
