<svg width="158" height="158" viewBox="0 0 158 158" fill="none" xmlns="http://www.w3.org/2000/svg">
<path d="M10.2126 10.2236V147.599H147.588V10.2236H10.2126ZM84.974 117.361C84.974 130.731 77.124 136.834 65.6876 136.834C55.355 136.834 49.3743 131.501 46.3079 125.03L56.8269 118.681C58.8532 122.268 60.693 125.305 65.1381 125.305C69.3672 125.305 72.0657 123.646 72.0657 117.18V73.2984H84.974V117.361ZM115.511 136.834C103.52 136.834 95.7629 131.133 91.99 123.646L102.509 117.577C105.271 122.086 108.887 125.427 115.236 125.427C120.569 125.427 124.008 122.758 124.008 119.049C124.008 114.634 120.51 113.068 114.593 110.463L111.375 109.085C102.053 105.13 95.8904 100.131 95.8904 89.6117C95.8904 79.9218 103.279 72.5624 114.779 72.5624C122.997 72.5624 128.885 75.413 133.119 82.895L123.061 89.3369C120.853 85.3825 118.459 83.8174 114.75 83.8174C110.982 83.8174 108.588 86.2116 108.588 89.3369C108.588 93.203 110.982 94.7632 116.531 97.1869L119.75 98.5656C130.73 103.256 136.892 108.074 136.892 118.863C136.892 130.456 127.752 136.829 115.515 136.829L115.511 136.834Z" fill="black"/>
</svg>
