<svg width="170" height="170" viewBox="0 0 170 170" fill="none" xmlns="http://www.w3.org/2000/svg">
<g clip-path="url(#clip0_1023_6)">
<path d="M0.293823 120.856H5.89459V98.7445L14.5638 118.018C15.5844 120.355 16.9826 121.175 19.7315 121.175C22.4804 121.175 23.8218 120.355 24.8424 118.018L33.5116 98.7445V120.854H39.1123V98.7814C39.1123 96.6254 38.2515 95.5836 36.4717 95.0476C32.2163 93.722 29.3645 94.8667 28.0706 97.7397L19.5664 116.765L11.3303 97.7397C10.0932 94.8667 7.18453 93.722 2.93445 95.0476C1.15467 95.5836 0.293823 96.6254 0.293823 98.7814L0.293823 120.856ZM43.7717 102.856H49.3672V115.038C49.3157 115.699 49.5784 117.251 52.6469 117.303H64.8241V102.794H70.4354C70.4618 102.794 70.4249 122.577 70.4249 122.661C70.4552 127.539 64.3752 128.597 61.5695 128.68H43.8905V124.914L61.6012 124.909C65.2057 124.533 64.7779 122.737 64.7779 122.139V120.67H52.8792C47.3405 120.618 43.8179 118.199 43.7717 115.419C43.7664 115.167 43.8905 102.98 43.7717 102.856ZM74.7476 120.856H90.8488C92.7315 120.856 94.5628 120.458 96.0165 119.778C98.4406 118.669 99.6209 117.159 99.6209 115.184V111.093C99.6209 109.479 98.2795 107.968 95.6389 106.967C94.2407 106.426 92.5137 106.142 90.8475 106.142H84.0597C81.8007 106.142 80.7233 105.461 80.4553 103.956C80.4038 103.775 80.4038 103.631 80.4038 103.45V100.902C80.4038 100.758 80.4038 100.613 80.4553 100.433C80.7233 99.2884 81.3161 98.9636 83.3072 98.7827L83.8485 98.7471H99.8361V95.0185H84.1178C81.8588 95.0185 80.6731 95.1624 79.5944 95.4833C76.258 96.525 74.803 98.1754 74.803 101.048V104.314C74.803 106.825 77.6549 108.981 82.4463 109.481C82.9876 109.517 83.5237 109.554 84.061 109.554H89.8783C90.0949 109.554 90.3061 109.554 90.4712 109.59C92.2457 109.733 92.9982 110.058 93.5396 110.704C93.8182 110.961 93.9779 111.328 93.9674 111.705V114.975C93.9674 115.367 93.6993 115.873 93.1633 116.301C92.6787 116.734 91.8694 117.018 90.796 117.09L90.2031 117.126H74.7476V120.856ZM134.554 114.357C134.554 118.199 137.411 120.35 143.166 120.783C143.707 120.819 144.244 120.856 144.786 120.856H159.377V117.122H144.678C141.393 117.122 140.155 116.297 140.155 114.322V95.0106H134.559V114.356L134.554 114.357ZM103.196 114.553V101.241C103.196 97.8625 105.574 95.8107 110.267 95.1651C110.767 95.0927 111.273 95.0566 111.778 95.0568H122.403C122.944 95.0568 123.429 95.0925 123.971 95.1651C128.665 95.8094 131.038 97.8625 131.038 101.241V114.553C131.038 117.296 130.032 118.762 127.707 119.72L133.226 124.698H126.722L122.26 120.67L117.769 120.953H111.781C110.668 120.949 109.561 120.793 108.491 120.489C104.927 119.52 103.199 117.647 103.199 114.553H103.196ZM109.241 114.228C109.241 114.409 109.298 114.588 109.349 114.806C109.674 116.353 111.134 117.214 113.34 117.214H118.426L113.754 112.996H120.257L124.332 116.678C125.084 116.276 125.58 115.667 125.75 114.879C125.807 114.698 125.807 114.518 125.807 114.337V101.573C125.807 101.429 125.807 101.248 125.75 101.067C125.425 99.6277 123.97 98.8025 121.815 98.8025H113.342C110.861 98.8025 109.242 99.8799 109.242 101.573L109.241 114.228ZM164.302 88.817C160.862 88.7246 158.231 89.0441 155.982 89.9934C155.343 90.2614 154.321 90.2667 154.218 91.0668C154.57 91.4378 154.626 91.9897 154.905 92.4386C155.441 93.31 156.349 94.4706 157.159 95.0793C158.036 95.75 158.948 96.4616 159.897 97.0386C161.578 98.0645 163.461 98.6534 165.086 99.6792C166.041 100.288 166.989 101.051 167.922 101.738C168.381 102.073 168.69 102.604 169.294 102.815V102.717C168.98 102.315 168.896 101.763 168.607 101.345L167.333 100.071C166.091 98.421 164.512 96.9713 162.831 95.7645C161.489 94.8046 158.499 93.5054 157.936 91.9475L157.839 91.8498C158.788 91.7468 159.902 91.4009 160.774 91.1685C162.249 90.7711 163.564 90.8741 165.081 90.4819L167.139 89.8891V89.5023C166.371 88.7127 165.824 87.671 164.983 86.9541C162.797 85.0924 160.403 83.2255 157.938 81.6675C156.571 80.8067 154.885 80.2495 153.436 79.5167C152.951 79.2698 152.094 79.1457 151.769 78.7325C151.011 77.7634 150.598 76.5355 150.011 75.4053C148.757 72.9647 147.582 70.4843 146.488 67.9679C145.746 66.2713 145.26 64.5945 144.332 63.0735C139.892 55.7656 135.106 51.3558 127.693 47.0238C126.121 46.1009 124.217 45.7391 122.217 45.2651L118.983 45.0697C118.328 44.7912 117.647 43.9871 117.029 43.6002C114.575 42.0475 108.277 38.6755 106.456 43.1104C105.311 45.9108 108.174 48.6438 109.2 50.0632C109.917 51.0587 110.84 52.173 111.351 53.2913C111.691 54.0241 111.748 54.7608 112.037 55.5398C112.749 57.4582 113.368 59.5417 114.291 61.3162C114.756 62.214 115.265 63.158 115.854 63.9568C116.215 64.4467 116.834 64.6685 116.932 65.4263C116.328 66.2727 116.293 67.5824 115.952 68.6545C114.42 73.4763 114.997 79.4692 117.226 83.0433C117.907 84.1365 119.515 86.488 121.728 85.5862C123.663 84.7967 123.229 82.358 123.781 80.202C123.911 79.7174 123.833 79.3556 124.076 79.0308V79.1286L125.84 82.6512C127.144 84.7504 129.455 86.9422 131.415 88.4222C132.436 89.1907 133.236 90.5215 134.551 90.9704V90.8675H134.453C134.196 90.4753 133.799 90.3103 133.474 89.9908C132.705 89.2382 131.854 88.3047 131.225 87.4426C129.44 85.0237 127.862 82.3726 126.429 79.6131C125.742 78.2981 125.144 76.8431 124.567 75.503C124.345 74.9867 124.35 74.2038 123.886 73.9397C123.252 74.9194 122.318 75.7142 121.827 76.8748C121.043 78.7259 120.945 80.9902 120.651 83.3324L120.455 83.4301C119.094 83.1001 118.614 81.6979 118.109 80.4951C116.825 77.4518 116.588 72.5468 117.717 69.0453C118.006 68.1383 119.327 65.2798 118.791 64.4453C118.538 63.6096 117.697 63.125 117.227 62.486C116.613 61.6291 116.088 60.7115 115.66 59.7477C114.613 57.3698 114.123 54.7094 113.019 52.3103C112.494 51.1603 111.601 49.9998 110.869 48.9792C110.054 47.8503 109.146 47.0198 108.517 45.652C108.295 45.1674 107.992 44.3885 108.322 43.8881C108.425 43.5527 108.579 43.4141 108.909 43.3058C109.477 42.8675 111.06 43.4497 111.648 43.6927C113.22 44.3475 114.531 44.9668 115.861 45.8487C116.495 46.2712 117.14 47.0911 117.914 47.3182H118.796C120.173 47.6325 121.715 47.4107 123.005 47.8028C125.28 48.4933 127.322 49.572 129.168 50.7431C134.81 54.3014 139.422 59.3714 142.577 65.4211C143.088 66.3954 143.305 67.3236 143.754 68.3561C144.657 70.4396 145.791 72.5851 146.689 74.6223C147.587 76.6596 148.458 78.7074 149.722 80.3987C150.387 81.2859 152.96 81.7599 154.126 82.2551C154.946 82.601 156.287 82.9614 157.061 83.4315C158.546 84.324 159.98 85.3855 161.373 86.3665C162.064 86.8616 164.2 87.935 164.308 88.8157L164.302 88.817ZM120.551 51.5287C119.958 51.5186 119.367 51.5843 118.792 51.7241V51.8218H118.89C119.23 52.5282 119.834 52.9824 120.256 53.5858L121.236 55.6389L121.333 55.5464C121.942 55.1186 122.215 54.4321 122.215 53.3904C121.969 53.1329 121.937 52.8134 121.726 52.5084C121.447 52.1004 120.907 51.8746 120.551 51.5287Z" fill="black"/>
</g>
<defs>
<clipPath id="clip0_1023_6">
<rect width="169" height="169" fill="white" transform="translate(0.293823 0.293945)"/>
</clipPath>
</defs>
</svg>
