<svg width="196" height="79" viewBox="0 0 196 79" fill="none" xmlns="http://www.w3.org/2000/svg">
<path d="M131.699 0.815946C131.512 0.814588 131.328 0.86334 131.164 0.957438C130.994 1.05982 130.852 1.2057 130.752 1.38108C130.652 1.55645 130.597 1.75543 130.593 1.95889V31.7194C130.59 31.8658 130.551 32.009 130.481 32.1363C130.411 32.2636 130.311 32.371 130.191 32.4488C130.069 32.5164 129.933 32.5518 129.795 32.5518C129.657 32.5518 129.521 32.5164 129.399 32.4488L124.728 29.6614C124.385 29.4587 123.997 29.3521 123.602 29.3521C123.207 29.3521 122.819 29.4587 122.477 29.6614L103.788 40.877C103.441 41.0782 103.153 41.3703 102.951 41.7237C102.749 42.0771 102.642 42.4792 102.639 42.8894V65.2734C102.639 66.0972 103.082 66.8785 103.788 67.2904L122.48 78.5076C122.822 78.7097 123.209 78.8161 123.604 78.8161C123.998 78.8161 124.386 78.7097 124.728 78.5076L143.42 67.2904C144.125 66.8785 144.569 66.0972 144.569 65.2734V9.46896C144.569 8.59958 144.125 7.81823 143.42 7.40947L132.269 0.957438C132.092 0.86521 131.897 0.816763 131.699 0.815946ZM21.428 28.7465C21.0776 28.7465 20.7257 28.8817 20.418 29.0609L1.72615 40.2372C1.37517 40.4439 1.08389 40.7433 0.882274 41.1048C0.680661 41.4662 0.575994 41.8765 0.579044 42.2935L0.624746 72.3228C0.624746 72.7363 0.841065 73.1498 1.19449 73.3337C1.3582 73.4457 1.55028 73.5055 1.74671 73.5055C1.94314 73.5055 2.13522 73.4457 2.29894 73.3337L13.412 66.7418C13.7576 66.5395 14.0453 66.2466 14.246 65.8926C14.4466 65.5387 14.553 65.1363 14.5545 64.7263V50.673C14.5545 49.8492 14.9963 49.0679 15.7031 48.656L20.418 45.8183C20.7626 45.6014 21.16 45.4906 21.5636 45.4991C21.9596 45.4991 22.3588 45.5887 22.668 45.8183L27.3844 48.656C28.0897 49.0679 28.533 49.8492 28.533 50.673V64.7279C28.533 65.5485 28.9717 66.3314 29.6755 66.7402L40.6987 73.3337C40.8701 73.4455 41.0687 73.5048 41.2715 73.5048C41.4742 73.5048 41.6728 73.4455 41.8443 73.3337C42.0198 73.2348 42.166 73.0885 42.2672 72.9104C42.3683 72.7323 42.4207 72.5292 42.4186 72.3228V42.2935C42.4186 41.4697 41.9768 40.69 41.2699 40.2765L22.6223 29.0609C22.3087 28.8875 21.9649 28.78 21.6108 28.7449L21.428 28.7465ZM174.786 29.0719V29.075L174.783 29.0782C174.398 29.0782 174.014 29.1804 173.66 29.3879L154.967 40.5972C154.262 41.0122 153.825 41.7904 153.825 42.6158V65.003C153.825 65.8268 154.262 66.6066 154.967 67.0169L173.526 78.0045C173.861 78.2071 174.242 78.314 174.629 78.314C175.017 78.314 175.398 78.2071 175.732 78.0045L186.975 71.5069C187.15 71.4076 187.295 71.2611 187.396 71.083C187.497 70.905 187.548 70.7021 187.546 70.496C187.548 70.2907 187.495 70.0888 187.395 69.9117C187.294 69.7346 187.149 69.5888 186.975 69.4899L168.196 58.2711C168.024 58.167 167.882 58.0191 167.782 57.8414C167.682 57.6638 167.628 57.4625 167.625 57.2571V50.2532C167.623 50.0483 167.675 49.8468 167.776 49.6702C167.877 49.4935 168.022 49.3484 168.196 49.2502L174.067 45.7711C174.239 45.6595 174.437 45.6003 174.64 45.6003C174.843 45.6003 175.041 45.6595 175.213 45.7711L181.07 49.2502C181.241 49.3532 181.383 49.4993 181.483 49.6748C181.584 49.8503 181.639 50.0494 181.645 50.2532V55.7463C181.645 56.1597 181.864 56.5716 182.216 56.754C182.388 56.8664 182.587 56.9261 182.79 56.9261C182.993 56.9261 183.193 56.8664 183.364 56.754L194.471 50.0253C194.812 49.8212 195.094 49.5273 195.289 49.1737C195.483 48.8201 195.583 48.4195 195.579 48.0129V42.5655C195.579 41.7417 195.134 40.9635 194.471 40.55L175.915 29.3863C175.572 29.1819 175.182 29.0746 174.786 29.0719ZM72.6545 29.1489C72.2899 29.1498 71.9317 29.249 71.6156 29.4366L53.0761 40.5469L59.5627 52.8252L72.8739 29.1709C72.8016 29.1614 72.7274 29.153 72.6545 29.1489ZM73.5168 29.3816L86.6285 52.6712L92.7905 40.9666C92.6763 40.846 92.5484 40.7399 92.4097 40.6507L82.8566 34.9234L73.66 29.4398C73.6143 29.4162 73.564 29.4005 73.5168 29.3816ZM73.1359 29.4759L59.7698 53.2214L73.0262 78.3205C73.0628 78.3127 73.0994 78.3095 73.1359 78.2985L86.4182 53.0705L73.1359 29.4759ZM52.7577 40.7513C52.4832 40.9495 52.2597 41.214 52.1068 41.5217C51.9538 41.8294 51.8761 42.171 51.8803 42.5168V64.9998C51.8803 65.3583 51.9747 65.7073 52.1362 66.017L59.3387 53.2151L52.7577 40.7513ZM93.051 41.2889L86.8494 53.0642L93.4273 64.7514V42.5168C93.4273 42.0766 93.2887 41.6458 93.051 41.2889ZM123.604 45.7931C123.703 45.7931 123.802 45.8167 123.893 45.8638L130.281 49.7124C130.458 49.8036 130.547 50.0284 130.547 50.2124V57.9048C130.547 58.1343 130.456 58.3199 130.281 58.411L123.889 62.2549C123.799 62.2998 123.701 62.3231 123.602 62.3231C123.502 62.3231 123.404 62.2998 123.314 62.2549L116.924 58.4142C116.747 58.323 116.656 58.0919 116.656 57.908V50.2155C116.656 49.986 116.749 49.8052 116.924 49.7124L123.314 45.8638C123.404 45.8174 123.503 45.7932 123.604 45.7931ZM174.721 48.9059C174.642 48.9068 174.565 48.9319 174.5 48.9782L170.926 51.1305C170.859 51.1735 170.803 51.2337 170.766 51.3054C170.728 51.377 170.708 51.4576 170.71 51.5392V55.8469C170.71 56.0293 170.793 56.1676 170.926 56.2588L174.5 58.411C174.565 58.4556 174.642 58.4793 174.72 58.4793C174.798 58.4793 174.875 58.4556 174.94 58.411L178.511 56.2572C178.578 56.2136 178.634 56.153 178.672 56.0813C178.71 56.0095 178.73 55.9288 178.73 55.8469V51.5424C178.731 51.4605 178.711 51.3799 178.672 51.3083C178.634 51.2368 178.578 51.1766 178.511 51.1336L174.94 48.9782C174.875 48.9339 174.799 48.9104 174.721 48.9106V48.9059ZM86.6407 53.4651L73.6737 78.0926L73.695 78.0816L92.4127 66.8613C92.9353 66.5563 93.2704 66.0343 93.3831 65.4416L86.6407 53.4651ZM59.5505 53.6145L52.3677 66.3755C52.5201 66.5688 52.6983 66.7371 52.9009 66.8628L71.416 77.9652L71.6141 78.0831H71.6186C71.7629 78.1676 71.9163 78.2341 72.0757 78.2812C72.1229 78.2969 72.1701 78.3048 72.2158 78.3158C72.3072 78.3362 72.3956 78.3504 72.487 78.3583C72.5311 78.363 72.5738 78.3614 72.618 78.3614L59.5505 53.6145Z" fill="black"/>
</svg>
