<svg width="150" height="150" viewBox="0 0 150 150" fill="none" xmlns="http://www.w3.org/2000/svg">
<g clip-path="url(#clip0_1017_17)">
<mask id="mask0_1017_17" style="mask-type:luminance" maskUnits="userSpaceOnUse" x="0" y="0" width="150" height="150">
<path d="M0.474792 0.390137H149.475V149.39H0.474792V0.390137Z" fill="white"/>
</mask>
<g mask="url(#mask0_1017_17)">
<path d="M149.475 72.9593C149.475 63.088 137.114 53.732 118.16 47.9335C122.537 28.6193 120.594 13.2475 112.026 8.3243C109.95 7.16161 107.601 6.57636 105.222 6.62943V13.3965C106.619 13.3965 107.742 13.6759 108.686 14.1912C112.815 16.5628 114.609 25.5773 113.212 37.1806C112.877 40.0365 112.33 43.0413 111.66 46.1082C105.313 44.5787 98.8707 43.4733 92.3768 42.7992C88.5081 37.4618 84.2873 32.3887 79.7428 27.6136C89.6451 18.4128 98.939 13.3717 105.259 13.3717V6.59839C96.9026 6.59839 85.9698 12.5522 74.9127 22.8766C63.8619 12.6205 52.9228 6.72256 44.5726 6.72256V13.4896C50.8616 13.4896 60.1865 18.506 70.0888 27.6446C65.8361 32.1146 61.5834 37.1806 57.5418 42.7992C51.0344 43.4658 44.581 44.5818 38.2277 46.1393C37.5562 43.2325 37.0279 40.2945 36.6445 37.3358C35.2166 25.7263 36.9798 16.7118 41.0835 14.3153C41.9899 13.769 43.1757 13.5207 44.5726 13.5207V6.7536C42.0272 6.7536 39.7115 7.29993 37.7124 8.44847C29.1759 13.3717 27.2638 28.7063 31.6655 47.9645C12.7735 53.8003 0.474792 63.119 0.474792 72.9593C0.474792 82.8305 12.8356 92.1865 31.7896 97.9788C27.4128 117.299 29.356 132.671 37.9235 137.588C39.8977 138.743 42.2072 139.289 44.7526 139.289C53.109 139.289 64.0419 133.335 75.099 123.011C86.1498 133.273 97.0827 139.165 105.439 139.165C107.836 139.216 110.204 138.628 112.299 137.464C120.836 132.547 122.748 117.212 118.346 97.954C137.176 92.1554 149.475 82.7995 149.475 72.9593ZM109.928 52.7015C108.748 56.7608 107.381 60.7633 105.83 64.696C103.292 59.7588 100.505 54.9536 97.48 50.2988C101.795 50.9383 105.954 51.7268 109.934 52.7015M96.0273 85.0469C93.7533 89.0169 91.3112 92.8882 88.7076 96.6502C79.5953 97.4534 70.4305 97.4638 61.3165 96.6813C56.0887 89.2138 51.5168 81.308 47.6519 73.0524C51.5109 64.7773 56.0634 56.8437 61.2606 49.3365C70.3706 48.5318 79.5333 48.5193 88.6455 49.2993C91.1661 52.9125 93.6308 56.7741 95.9962 60.8468C98.3057 64.8201 100.404 68.8555 102.316 72.9282C100.383 77.0503 98.2849 81.0931 96.0273 85.0469ZM105.83 81.0984C107.469 85.171 108.872 89.2375 110.021 93.186C106.048 94.1607 101.851 94.9802 97.511 95.6135C100.524 90.9163 103.3 86.072 105.83 81.0984ZM75.0369 113.506C72.2121 110.588 69.3873 107.341 66.5935 103.784C69.3252 103.908 72.119 104.001 74.9438 104.001C77.7996 104.001 80.6244 103.939 83.3871 103.784C80.6554 107.341 77.8306 110.588 75.0369 113.506ZM52.4385 95.6135C48.2525 95.0069 44.0968 94.2073 39.9846 93.217C41.1083 89.2996 42.5052 85.258 44.0821 81.2225C45.33 83.6438 46.64 86.0775 48.0679 88.5111C49.4958 90.9386 50.9485 93.3102 52.4385 95.6135ZM74.8817 32.4126C77.7065 35.3305 80.5313 38.5775 83.325 42.1349C80.5933 42.0107 77.7996 41.9176 74.9748 41.9176C72.119 41.9176 69.2942 41.9797 66.5315 42.1349C69.2631 38.5775 72.0879 35.3305 74.8817 32.4126ZM52.4075 50.305C49.3956 54.9919 46.6192 59.8259 44.0883 64.7891C42.4941 60.831 41.0956 56.7969 39.8977 52.7015C43.871 51.7578 48.0679 50.9383 52.4075 50.305ZM24.9232 88.3249C14.1704 83.7431 7.21704 77.7272 7.21704 72.9593C7.21704 68.1913 14.1704 62.1443 24.9232 57.5936C27.5307 56.4699 30.3865 55.4642 33.3355 54.5267C35.0676 60.4743 37.3461 66.6702 40.1647 73.0213C37.5036 78.9949 35.253 85.143 33.4286 91.4228C30.5446 90.5298 27.706 89.4959 24.9232 88.3249ZM41.2635 131.721C37.135 129.362 35.3408 120.335 36.7377 108.738C37.0729 105.882 37.6193 102.871 38.2898 99.8041C44.2373 101.263 50.7375 102.387 57.5728 103.119C61.4417 108.457 65.6624 113.53 70.2068 118.305C60.3045 127.506 51.0106 132.547 44.6905 132.547C43.4982 132.56 42.321 132.278 41.2635 131.727M113.305 108.589C114.733 120.192 112.97 129.213 108.866 131.609C107.96 132.156 106.774 132.398 105.377 132.398C99.088 132.398 89.763 127.388 79.8608 118.243C84.3862 113.488 88.5785 108.426 92.4078 103.094C98.9152 102.428 105.369 101.312 111.722 99.7544C112.423 102.821 112.964 105.764 113.305 108.589ZM124.995 88.3311C122.388 89.4548 119.532 90.4605 116.583 91.398C114.727 85.0861 112.445 78.9071 109.754 72.9034C112.548 66.5895 114.789 60.4246 116.49 54.5019C119.383 55.3978 122.232 56.4317 125.026 57.5998C135.779 62.1816 142.733 68.1975 142.733 72.9655C142.702 77.7335 135.748 83.7804 124.995 88.3311Z" fill="black"/>
<path d="M74.9437 86.841C78.6254 86.841 82.1563 85.3785 84.7596 82.7751C87.363 80.1718 88.8255 76.6409 88.8255 72.9592C88.8255 69.2775 87.363 65.7466 84.7596 63.1433C82.1563 60.5399 78.6254 59.0774 74.9437 59.0774C71.262 59.0774 67.7311 60.5399 65.1278 63.1433C62.5244 65.7466 61.0619 69.2775 61.0619 72.9592C61.0619 76.6409 62.5244 80.1718 65.1278 82.7751C67.7311 85.3785 71.262 86.841 74.9437 86.841Z" fill="black"/>
</g>
</g>
<defs>
<clipPath id="clip0_1017_17">
<rect width="149" height="149" fill="white" transform="translate(0.474792 0.390137)"/>
</clipPath>
</defs>
</svg>
