<svg width="139" height="107" viewBox="0 0 139 107" fill="none" xmlns="http://www.w3.org/2000/svg">
<g clip-path="url(#clip0_1025_4)">
<path d="M65.6542 77.8139C65.5895 77.9426 65.5248 78.0456 65.6542 77.8139ZM119.373 59.1502C115.036 59.1488 110.757 60.1397 106.867 62.0463C105.594 59.4934 104.279 57.2624 104.063 55.5891C103.805 53.6369 103.524 52.4784 103.826 50.1616C104.128 47.8447 105.487 44.5624 105.465 44.3265C105.443 44.0905 105.163 42.9106 102.382 42.8891C99.6 42.8677 97.2066 43.4255 96.9284 44.1548C96.4372 45.4878 96.055 46.8581 95.7856 48.2523C95.2897 50.7622 90.2246 59.7294 87.3568 64.4061C86.4081 62.5826 85.6103 60.9736 85.4378 59.6865C85.179 57.7343 84.8987 56.5759 85.2006 54.259C85.5025 51.9421 86.8609 48.6599 86.8393 48.4239C86.8178 48.1879 86.5375 47.008 83.7581 46.9866C80.9787 46.9651 78.5831 47.5229 78.3028 48.2523C78.0224 48.9817 77.7206 50.6979 77.16 52.3497C76.5993 54.0016 69.8524 68.9325 68.0865 72.8154C67.1808 74.7891 66.4046 76.3766 65.844 77.4492C65.7577 77.6208 65.693 77.7281 65.6499 77.8139C65.7146 77.7066 65.7577 77.5994 65.7577 77.6423C65.2833 78.5647 65.003 79.0796 65.003 79.0796V79.101C64.6365 79.7875 64.2268 80.4096 64.0327 80.4096C63.9034 80.4096 63.623 78.6076 64.0974 76.1406C65.1108 70.9491 67.5043 62.8829 67.4827 62.604C67.4612 62.4539 67.9355 61.0595 65.9087 60.3086C63.9465 59.6007 63.2349 60.7806 63.0624 60.7806C62.8899 60.7806 62.7605 61.2096 62.7605 61.2096C62.7605 61.2096 64.9383 52.1137 58.5796 52.1137C54.6121 52.1137 49.0921 56.4472 46.3795 60.373C44.6761 61.2954 40.9889 63.2905 37.1077 65.4143C35.6199 66.2295 34.0889 67.0662 32.6443 67.8599C32.5364 67.7526 32.4502 67.6454 32.3424 67.5381C24.6252 59.3432 10.3767 53.5511 10.9804 42.5459C11.1961 38.5343 12.5976 28.0011 38.3799 15.2154C59.5111 4.74653 76.4053 7.62117 79.314 14.014C83.4972 23.1314 70.2815 40.1003 48.3374 42.5459C39.9733 43.4684 35.5767 40.2505 34.4771 39.0491C33.3342 37.7834 33.1617 37.7191 32.7305 37.9551C32.0189 38.3412 32.4718 39.4567 32.7305 40.1218C33.3774 41.8165 36.0727 44.8199 40.6633 46.3216C44.6955 47.6302 54.5021 48.3595 66.3593 43.7902C79.6806 38.6845 90.05 24.4614 87.0097 12.5553C83.9133 0.456017 63.7481 -3.5127 44.6804 3.2234C33.3192 7.23502 21.0329 13.5421 12.1944 21.7584C1.69565 31.5408 0.0159383 40.0574 0.705937 43.6185C3.1619 56.2541 20.6663 64.4919 27.672 70.5844C27.327 70.7775 27.0035 70.9491 26.7016 71.1207C23.1891 72.8584 9.84411 79.809 6.50408 87.1457C2.73065 95.4693 7.12939 101.433 10.0166 102.248C19.0276 104.737 28.2541 100.253 33.2113 92.895C38.1686 85.5368 37.567 75.9261 35.2813 71.5497C35.2598 71.4854 35.2167 71.4425 35.1951 71.3781C36.1007 70.8418 37.0279 70.3055 37.9551 69.7692C39.7426 68.718 41.4892 67.7526 43.0201 66.916C42.1576 69.2329 41.5323 72.0217 41.2089 76.0548C40.8207 80.7743 42.7829 86.8883 45.3273 89.291C46.4485 90.3422 47.8048 90.3636 48.6458 90.3636C51.6214 90.3636 52.9582 87.918 54.4439 85.0005C56.2767 81.4394 57.8939 77.299 57.8939 77.299C57.8939 77.299 55.867 88.4973 61.4086 88.4973C63.4333 88.4973 65.4602 85.9015 66.3679 84.5714V84.5929C66.3679 84.5929 66.4111 84.5071 66.5189 84.3355C66.7345 84.0137 66.8423 83.8206 66.8423 83.8206V83.7562C67.6617 82.3618 69.4514 79.1654 72.1445 73.8881C75.6376 67.0662 78.9777 58.5495 78.9777 58.5495C79.3004 60.4217 79.747 62.2706 80.3145 64.0843C80.9183 66.1223 82.1905 68.3533 83.2039 70.52C82.3845 71.6356 81.8886 72.2791 81.8886 72.2791C81.8902 72.2956 81.8979 72.3109 81.9102 72.322C81.2633 73.1801 80.5302 74.1026 79.7755 75.0036C77.0176 78.2644 73.738 81.9971 73.3067 83.0698C72.7892 84.3355 72.9186 85.2794 73.9105 86.0088C74.6436 86.5665 75.9374 86.6523 77.2936 86.5451C79.7733 86.3735 81.5199 85.7728 82.3608 85.3866C83.9111 84.8336 85.3764 84.0682 86.7143 83.1127C89.4096 81.139 91.0483 78.3073 90.8974 74.5746C90.8111 72.5151 90.1427 70.4557 89.3233 68.5249C89.5605 68.1817 89.8193 67.817 90.0565 67.4523C94.3237 61.2525 97.6227 54.4478 97.6227 54.4478C97.9455 56.3199 98.3921 58.1689 98.9596 59.9825C99.4771 61.7202 100.488 63.6295 101.416 65.4958C97.4071 68.7352 94.9274 72.4894 94.0649 74.9564C92.4693 79.5258 93.7199 81.5852 96.0702 82.0572C97.1268 82.2717 98.6362 81.7783 99.7574 81.3064C101.423 80.7545 102.993 79.9514 104.413 78.9251C107.108 76.9515 109.715 74.1841 109.542 70.4299C109.478 68.7352 109.003 67.0404 108.378 65.41C111.763 63.9942 116.16 63.2219 121.766 63.8654C133.772 65.2599 136.123 72.7253 135.67 75.836C135.217 78.9466 132.694 80.6842 131.853 81.1991C131.012 81.714 130.753 81.907 130.818 82.2932C130.926 82.8509 131.314 82.8295 132.026 82.7008C133.018 82.5292 138.32 80.1694 138.557 74.3986C138.902 67.1048 131.853 59.0815 119.366 59.1459L119.373 59.1502ZM26.831 90.192C22.8657 94.504 17.3026 96.1344 14.9113 94.7614C12.3454 93.2769 13.3588 86.9312 18.2513 82.3361C21.2269 79.5473 25.0629 76.9729 27.6073 75.3855C28.1894 75.0422 29.0304 74.5274 30.0654 73.9052C30.2379 73.798 30.3241 73.7551 30.3241 73.7551C30.5182 73.6264 30.7338 73.5191 30.9494 73.3904C32.737 79.9119 31.0141 85.6612 26.831 90.1877V90.192ZM55.8023 70.5844C54.4223 73.9524 51.5136 82.5334 49.7454 82.0829C48.2361 81.6968 47.3089 75.1538 49.4436 68.718C50.5217 65.4787 52.8073 61.6172 54.1657 60.1155C56.3414 57.6914 58.7348 56.9191 59.2955 57.8845C60.0501 59.1502 56.6648 68.482 55.8023 70.5844ZM79.7367 81.9542C79.1545 82.2546 78.6154 82.4476 78.3567 82.2975C78.1626 82.1902 78.5939 81.7826 78.5939 81.7826C78.5939 81.7826 81.591 78.5862 82.777 77.1274C83.467 76.2693 84.2648 75.261 85.1251 74.1455C85.1251 74.2528 85.1467 74.36 85.1467 74.4887C85.1187 78.3288 81.4121 80.9245 79.7302 81.9542H79.7367ZM98.1898 77.771C97.7586 77.4706 97.8233 76.4624 99.2679 73.3303C99.8286 72.1075 101.12 70.0481 103.365 68.0744C103.619 68.8215 103.757 69.6028 103.774 70.3913C103.753 75.2181 100.281 77.0201 98.192 77.771H98.1898Z" fill="black"/>
</g>
<defs>
<clipPath id="clip0_1025_4">
<rect width="138" height="109.837" fill="white" transform="translate(0.570068 -3.47412)"/>
</clipPath>
</defs>
</svg>
