<svg width="142" height="142" viewBox="0 0 142 142" fill="none" xmlns="http://www.w3.org/2000/svg">
<path d="M86.7941 12.3523L49.6053 46.4567L68.3142 60.7418L88.6888 45.1965V17.816C88.6888 15.7539 87.9838 13.8504 86.7941 12.3523ZM88.6888 87.3732L23.3352 37.5032C22.4493 36.8272 21.354 36.4842 20.2408 36.5342C19.1277 36.5841 18.0675 37.0238 17.2457 37.7764L10.9359 43.5486C10.443 43.9986 10.0492 44.5465 9.77982 45.1572C9.51042 45.7679 9.37128 46.4281 9.37128 47.0956C9.37128 47.7631 9.51042 48.4233 9.77982 49.034C10.0492 49.6447 10.443 50.1926 10.9359 50.6426L86.7941 120.209C88.0228 118.656 88.6906 116.734 88.6888 114.754V87.3732ZM95.3246 9.32959C96.717 11.85 97.5013 14.7405 97.5013 17.816V114.754C97.5013 117.838 96.7082 120.729 95.3246 123.24C95.6566 123.138 95.9805 123.011 96.294 122.861L119.885 111.449C121.102 110.858 122.128 109.936 122.844 108.789C123.561 107.642 123.941 106.316 123.939 104.963V27.5979C123.939 24.8308 122.361 22.3104 119.885 21.1119L96.294 9.70853C95.9805 9.55871 95.6566 9.43206 95.3246 9.32959ZM10.9359 81.9271L21.4669 72.2597L35.893 85.4785L23.3352 95.0665C22.4493 95.7425 21.354 96.0855 20.2408 96.0355C19.1277 95.9856 18.0675 95.5459 17.2457 94.7933L10.9359 89.0211C10.4454 88.5697 10.0538 88.0213 9.7859 87.4108C9.51804 86.8003 9.37974 86.1408 9.37974 85.4741C9.37974 84.8074 9.51804 84.1479 9.7859 83.5374C10.0538 82.9269 10.4454 82.3785 10.9359 81.9271Z" fill="black"/>
</svg>
