<svg width="111" height="114" viewBox="0 0 111 114" fill="none" xmlns="http://www.w3.org/2000/svg">
<path d="M54.3829 10.2998C28.44 10.2998 7.29956 31.4402 7.29956 57.3832C7.29956 83.3261 28.44 104.467 54.3829 104.467C80.3258 104.467 101.466 83.3261 101.466 57.3832C101.466 31.4402 80.3258 10.2998 54.3829 10.2998ZM12.055 57.3832C12.055 51.2623 13.3733 45.424 15.7275 40.1507L35.9262 95.4736C21.8012 88.5994 12.055 74.1448 12.055 57.3832ZM54.3829 99.7111C50.2396 99.7111 46.2375 99.099 42.4237 97.969L55.1362 61.0557L68.1313 96.6978C68.2254 96.8861 68.3196 97.1215 68.4138 97.2628C64.035 98.8636 59.3267 99.7111 54.3829 99.7111ZM60.2212 37.514C62.7638 37.3727 65.0708 37.0902 65.0708 37.0902C67.3308 36.8077 67.0954 33.4648 64.7883 33.6061C64.7883 33.6061 57.9142 34.124 53.4883 34.124C49.345 34.124 42.3296 33.6061 42.3296 33.6061C40.0696 33.5119 39.7871 36.9961 42.0942 37.1373C42.0942 37.1373 44.26 37.4198 46.52 37.5611L53.1117 55.6411L43.8362 83.4203L28.44 37.514C30.9825 37.4198 33.2896 37.1373 33.2896 37.1373C35.5496 36.8548 35.3142 33.5119 33.0071 33.6531C33.0071 33.6531 26.1329 34.1711 21.7071 34.1711C20.9066 34.1711 19.965 34.1711 18.9762 34.124C26.6037 22.6356 39.5987 15.0552 54.3829 15.0552C65.4004 15.0552 75.4292 19.2456 82.9625 26.1669C82.7742 26.1669 82.5858 26.1198 82.3975 26.1198C78.2542 26.1198 75.2879 29.7452 75.2879 33.6531C75.2879 37.1373 77.3125 40.1036 79.4313 43.5877C81.0321 46.4127 82.9154 50.0382 82.9154 55.2644C82.9154 58.8898 81.5029 63.0802 79.7138 68.9657L75.4763 83.0907L60.2212 37.514ZM91.5317 37.0902C96.8201 46.7689 98.1211 58.1297 95.1574 68.7533C92.1937 79.3769 85.1996 88.4236 75.6646 93.9669L88.6125 56.5827C91.0138 50.5561 91.8142 45.7065 91.8142 41.4219C91.8142 39.8681 91.72 38.4086 91.5317 37.0902Z" fill="black"/>
</svg>
