<svg width="150" height="41" viewBox="0 0 150 41" fill="none" xmlns="http://www.w3.org/2000/svg">
<path fill-rule="evenodd" clip-rule="evenodd" d="M93.0572 31.7812C84.3404 37.4666 71.706 40.5 60.828 40.5C45.5753 40.5 31.844 35.5079 21.4557 27.2052C20.6395 26.5523 21.3708 25.6625 22.3502 26.171C33.5612 31.943 47.4231 35.4155 61.7421 35.4155C71.3991 35.4155 82.0225 33.6475 91.7904 29.9786C93.2661 29.4239 94.5001 30.8337 93.0572 31.7812Z" fill="white"/>
<path fill-rule="evenodd" clip-rule="evenodd" d="M96.6809 28.1124C95.5709 26.8528 89.3157 27.5173 86.5081 27.812C85.6527 27.9044 85.5221 27.2457 86.2926 26.7719C91.2745 23.6692 99.4493 24.5648 100.403 25.6048C101.356 26.6506 100.155 33.9018 95.4729 37.3627C94.7547 37.8943 94.0691 37.6112 94.389 36.9063C95.4403 34.5836 97.7974 29.3778 96.6809 28.1124Z" fill="white"/>
<path fill-rule="evenodd" clip-rule="evenodd" d="M86.7037 4.86818V1.85215C86.7037 1.3957 87.0955 1.08948 87.5656 1.08948H102.825C103.315 1.08948 103.706 1.40148 103.706 1.85215V4.43484C103.7 4.86818 103.288 5.43441 102.557 6.32997L94.65 16.3199C97.5883 16.2563 100.69 16.6434 103.354 17.9723C103.954 18.2728 104.118 18.7119 104.163 19.1452V22.3635C104.163 22.8026 103.615 23.3168 103.04 23.051C98.3457 20.8728 92.1101 20.6359 86.9192 23.0741C86.3903 23.3284 85.8353 22.8199 85.8353 22.3808V19.3243C85.8353 18.8332 85.8418 17.9954 86.3968 17.2501L95.5576 5.62508H87.5852C87.0955 5.62508 86.7037 5.31886 86.7037 4.86818Z" fill="white"/>
<path fill-rule="evenodd" clip-rule="evenodd" d="M31.0407 23.6864H26.3983C25.9543 23.6576 25.6017 23.3629 25.5691 22.9873V1.904C25.5691 1.48222 25.9674 1.1471 26.4636 1.1471H30.7926C31.2431 1.16443 31.6023 1.47066 31.6349 1.852V4.60803H31.7198C32.8494 1.94444 34.9714 0.702209 37.8313 0.702209C40.7369 0.702209 42.5521 1.94444 43.8579 4.60803C44.981 1.94444 47.534 0.702209 50.2698 0.702209C52.2156 0.702209 54.3442 1.41288 55.6435 3.00757C57.1126 4.78136 56.8123 7.35828 56.8123 9.61741L56.8058 22.9238C56.8058 23.3456 56.4075 23.6864 55.9112 23.6864H51.2754C50.8118 23.6576 50.4396 23.3282 50.4396 22.9238V11.7494C50.4396 10.8596 50.531 8.64096 50.309 7.79739C49.9629 6.38183 48.9248 5.98315 47.5797 5.98315C46.4567 5.98315 45.2814 6.6476 44.8047 7.71073C44.3281 8.77385 44.3738 10.5534 44.3738 11.7494V22.9238C44.3738 23.3456 43.9755 23.6864 43.4792 23.6864H38.8434C38.3733 23.6576 38.0076 23.3282 38.0076 22.9238L38.0011 11.7494C38.0011 9.39786 38.4385 5.93693 35.1412 5.93693C31.8047 5.93693 31.9353 9.31118 31.9353 11.7494V22.9238C31.9353 23.3456 31.537 23.6864 31.0407 23.6864Z" fill="white"/>
<path fill-rule="evenodd" clip-rule="evenodd" d="M116.844 0.702209C123.733 0.702209 127.461 5.93693 127.461 12.593C127.461 19.0237 123.341 24.1256 116.844 24.1256C110.08 24.1256 106.397 18.8908 106.397 12.3677C106.397 5.80404 110.125 0.702209 116.844 0.702209ZM116.883 5.0067C113.462 5.0067 113.246 9.13207 113.246 11.7032C113.246 14.2801 113.201 19.7806 116.844 19.7806C120.442 19.7806 120.611 15.3432 120.611 12.6392C120.611 10.8596 120.527 8.7334 119.919 7.04627C119.397 5.57871 118.359 5.0067 116.883 5.0067Z" fill="white"/>
<path fill-rule="evenodd" clip-rule="evenodd" d="M136.393 23.6864H131.77C131.306 23.6576 130.934 23.3282 130.934 22.9238L130.927 1.83467C130.967 1.44755 131.352 1.1471 131.822 1.1471H136.125C136.53 1.16443 136.863 1.40711 136.954 1.73644V4.96047H137.039C138.338 2.07734 140.16 0.702209 143.366 0.702209C145.449 0.702209 147.48 1.36666 148.785 3.18668C150 4.87381 150 7.71073 150 9.7503V23.022C149.948 23.3918 149.562 23.6864 149.105 23.6864H144.45C144.025 23.6576 143.673 23.3802 143.627 23.022V11.5703C143.627 9.26496 143.928 5.89071 140.722 5.89071C139.592 5.89071 138.554 6.56094 138.038 7.57783C137.385 8.8663 137.3 10.149 137.3 11.5703V22.9238C137.294 23.3456 136.889 23.6864 136.393 23.6864Z" fill="white"/>
<path fill-rule="evenodd" clip-rule="evenodd" d="M74.5394 13.6158C74.5394 15.2162 74.5851 16.5509 73.671 17.9722C72.9332 19.1278 71.7579 19.8385 70.4585 19.8385C68.676 19.8385 67.6313 18.6367 67.6313 16.8629C67.6313 13.3615 71.1767 12.726 74.5394 12.726V13.6158ZM79.221 23.6287C78.9141 23.8714 78.4701 23.8887 78.124 23.727C76.5831 22.5945 76.3023 22.0687 75.46 20.9883C72.9136 23.2878 71.1049 23.9754 67.8076 23.9754C63.8965 23.9754 60.8603 21.8434 60.8603 17.5736C60.8603 14.2398 62.8975 11.9691 65.8096 10.8597C68.3299 9.87749 71.8493 9.70416 74.5394 9.4326V8.90104C74.5394 7.92458 74.6243 6.76901 73.9713 5.92545C73.4098 5.16855 72.3259 4.85655 71.3661 4.85655C69.5966 4.85655 68.023 5.65967 67.6378 7.32369C67.5595 7.69347 67.2526 8.05747 66.8282 8.07481L62.3294 7.64724C61.9507 7.57214 61.5263 7.30057 61.6373 6.78635C62.6689 1.95608 67.6052 0.500061 72.019 0.500061C74.2782 0.500061 77.2295 1.03162 79.012 2.54541C81.2712 4.41166 81.0557 6.9019 81.0557 9.61171V16.0136C81.0557 17.9376 81.9568 18.7811 82.8056 19.8211C83.0994 20.1909 83.1647 20.6358 82.786 20.9132C81.8392 21.6123 80.1547 22.9123 79.2275 23.6403L79.221 23.6287Z" fill="white"/>
<path fill-rule="evenodd" clip-rule="evenodd" d="M13.6791 13.6157C13.6791 15.2161 13.7248 16.5508 12.8107 17.9722C12.0729 19.1277 10.9041 19.8384 9.59822 19.8384C7.81569 19.8384 6.77752 18.6366 6.77752 16.8628C6.77752 13.3615 10.323 12.7259 13.6791 12.7259V13.6157ZM18.3607 23.6287C18.0538 23.8713 17.6098 23.8887 17.2637 23.7269C15.7228 22.5944 15.4486 22.0687 14.5997 20.9882C12.0533 23.2878 10.2512 23.9753 6.94728 23.9753C3.0427 23.9753 0 21.8433 0 17.5735C0 14.2397 2.0437 11.969 4.94929 10.8597C7.46964 9.87743 10.989 9.7041 13.6791 9.43254V8.90098C13.6791 7.92452 13.764 6.76895 13.1176 5.92539C12.5495 5.16849 11.4656 4.85649 10.5123 4.85649C8.74287 4.85649 7.16275 5.65961 6.77752 7.32362C6.69917 7.69341 6.39228 8.05741 5.9744 8.07475L1.46912 7.64718C1.09041 7.57207 0.672527 7.30051 0.776998 6.78629C1.81517 1.95602 6.74487 0.5 11.1588 0.5C13.4179 0.5 16.3692 1.03156 18.1517 2.54535C20.4109 4.41159 20.1954 6.90184 20.1954 9.61165V16.0135C20.1954 17.9375 21.0965 18.7811 21.9453 19.8211C22.2457 20.1909 22.311 20.6358 21.9323 20.9131C20.9855 21.6122 19.3009 22.9122 18.3737 23.6402L18.3607 23.6287Z" fill="white"/>
</svg>
