<svg width="115" height="65" viewBox="0 0 115 65" fill="none" xmlns="http://www.w3.org/2000/svg">
<g clip-path="url(#clip0_221_66)">
<path d="M92.0814 47.1774H115V65H91.9458L86.25 59.7581V52.4194L92.0814 47.1774Z" fill="white"/>
<path d="M20.6132 14.0222L21.0201 13.8912C21.2913 13.7601 21.6981 13.498 22.105 13.2359C22.5118 12.9738 22.9186 12.5807 23.3255 12.1875C23.7323 11.7944 24.0035 11.2702 24.4104 10.4839C24.6816 9.82866 24.8172 9.04237 24.8172 8.25607C24.8172 6.29035 23.8679 4.45567 21.9693 3.01414C20.0708 1.57261 17.4941 0.786316 14.2394 0.786316H0V28.8307H15.0531C18.8502 28.8307 26.8514 28.1754 26.8514 20.8367C26.8514 15.2016 20.7488 14.0222 20.6132 14.0222ZM9.35731 7.33874H12.8833C13.5613 7.33874 14.1038 7.46978 14.6462 7.99398C15.0531 8.38712 15.3243 8.91132 15.3243 9.43551C15.3243 9.9597 15.0531 10.4839 14.6462 10.877C14.1038 11.2702 13.5613 11.5323 12.8833 11.5323H9.35731V7.33874ZM15.8667 21.623C15.3243 22.1472 14.6462 22.4093 13.8325 22.4093H9.35731V17.4295H13.8325C14.6462 17.4295 15.3243 17.6916 15.8667 18.2158C16.4092 18.7399 16.6804 19.2641 16.6804 20.0504C16.6804 20.5746 16.4092 21.0988 15.8667 21.623Z" fill="white"/>
<path d="M28.0719 45.0806L28.4788 44.9496C28.75 44.8185 29.1569 44.5564 29.5637 44.2943C29.9705 44.0322 30.3774 43.6391 30.7842 43.2459C31.1911 42.8528 31.4623 42.3286 31.8691 41.5423C32.1403 40.8871 32.276 40.1008 32.276 39.3145C32.276 37.3488 31.3267 35.5141 29.4281 34.0726C27.5295 32.631 24.9528 31.8447 21.6981 31.8447H7.45874V59.8891H22.3762C26.1734 59.8891 34.1745 59.2338 34.1745 51.8951C34.3102 46.26 28.2076 45.2117 28.0719 45.0806ZM16.9517 38.3971H20.342C21.0201 38.3971 21.5625 38.6592 22.105 39.0524C22.5118 39.4455 22.783 39.9697 22.783 40.4939C22.783 41.0181 22.5118 41.5423 22.105 41.9355C21.6981 42.3286 21.1557 42.5907 20.342 42.5907H16.9517V38.3971ZM23.3255 52.6814C22.783 53.2056 22.105 53.4677 21.2913 53.4677H16.9517V48.4879H21.2913C22.105 48.4879 22.783 48.75 23.3255 49.2742C23.8679 49.7984 24.1392 50.3225 24.1392 51.1088C24.1392 51.633 23.8679 52.1572 23.3255 52.6814Z" fill="white"/>
<path d="M50.8549 22.0162H36.8868V17.6916H48.2783V11.2702H36.8868V7.60083H50.8549V0.786316H27.3939V28.8307H50.8549V22.0162Z" fill="white"/>
<path d="M74.8585 0.786316V7.60083H82.5885V28.8307H91.9458V7.60083H99.5401V0.786316H74.8585Z" fill="white"/>
<path d="M64.2806 21.623C63.7382 22.0161 63.0601 22.2782 62.1108 22.2782C61.1615 22.2782 60.2122 22.0161 59.263 21.4919C58.3137 20.9677 57.6356 20.5746 57.2288 20.3125C57.0931 20.1814 56.8219 20.0504 56.6863 19.9194L51.1262 25.0302L51.533 25.4234C51.8042 25.8165 52.3467 26.2097 53.0247 26.6028C53.7028 27.127 54.5165 27.5202 55.4658 28.0443C56.4151 28.5685 57.5 28.9617 58.9917 29.2238C60.3479 29.6169 61.8396 29.748 63.3313 29.748C66.9929 29.748 69.9764 28.8306 72.1462 26.996C74.316 25.1613 75.4009 22.9335 75.4009 20.3125C75.4009 18.871 75.1297 17.4294 74.4516 16.381C73.7736 15.2016 73.0955 14.4153 72.1462 13.7601C71.1969 13.2359 70.2476 12.7117 69.1627 12.1875C68.2134 11.7944 67.2641 11.4012 66.3148 11.2702C66.1792 11.2702 66.1792 11.2702 66.0436 11.2702C65.0943 11.0081 64.2806 10.746 63.7382 10.3528C63.0601 9.95968 62.7889 9.69758 62.7889 9.17339C62.7889 8.64919 63.0601 8.25605 63.467 7.8629C63.8738 7.46976 64.5519 7.33871 65.3655 7.33871C67.2641 7.33871 68.4847 8.125 69.0271 8.78024L74.5872 3.66935L74.4516 3.53831C74.1804 3.27621 73.7736 2.88306 73.2311 2.48992C72.6887 2.09677 72.0106 1.70363 71.1969 1.31048C70.3832 0.917339 69.4339 0.524193 68.0778 0.262097C66.7217 0.131048 65.3655 0 64.0094 0C60.4835 0 57.7712 0.917339 55.6014 2.62097C53.4316 4.45564 52.3467 6.55242 52.3467 8.91129C52.3467 10.2218 52.6179 11.4012 53.0247 12.3185C53.4316 13.3669 54.1097 14.1532 54.7877 14.8085C55.4658 15.4637 56.2795 15.9879 57.2288 16.381C58.0424 16.7742 58.7205 17.0363 59.5342 17.2984C59.6698 17.2984 59.8054 17.4294 59.941 17.4294C60.8903 17.6915 61.704 17.9536 62.3821 18.2157C63.0601 18.4778 63.7382 18.7399 64.145 19.002C64.5519 19.2641 64.8231 19.6573 64.8231 19.9194C65.0943 20.7056 64.8231 21.2298 64.2806 21.623Z" fill="white"/>
<path d="M50.8549 48.4879C50.8549 50.3226 49.3632 51.8951 47.329 51.8951C45.4304 51.8951 43.8031 50.4536 43.8031 48.4879V31.8447H34.4457V48.0947C34.4457 54.7782 40.0059 60.2822 47.0578 60.2822H47.6002C54.5165 60.2822 60.2123 54.9092 60.2123 48.0947V31.8447H50.8549V48.4879Z" fill="white"/>
<path d="M76.2146 41.4113L70.112 31.8447H60.7547L71.6038 49.9294V59.8891H80.9611V49.9294L91.8101 31.8447H82.4528L76.2146 41.4113Z" fill="white"/>
<path d="M90.8608 56.0887C90.8608 56.744 90.3184 57.1371 89.7759 57.1371C89.2335 57.1371 88.691 56.6129 88.691 56.0887C88.691 55.4335 89.2335 55.0403 89.7759 55.0403C90.3184 55.0403 90.8608 55.4335 90.8608 56.0887Z" fill="white"/>
<path d="M92.0814 39.9697H91.4033V39.7076H93.0307V39.9697H92.3526V41.9355H92.0814V39.9697ZM93.4375 39.7076H93.8444L94.5224 41.4113L95.2005 39.7076H95.6073V41.8044H95.3361V39.9697L94.5224 41.8044H94.3868L93.5731 39.9697V41.8044H93.3019V39.7076H93.4375Z" fill="white"/>
</g>
<defs>
<clipPath id="clip0_221_66">
<rect width="115" height="65" fill="white"/>
</clipPath>
</defs>
</svg>
