<svg width="574" height="193" viewBox="0 0 574 193" fill="none" xmlns="http://www.w3.org/2000/svg">
<path d="M14.4 110.45C13.08 110.45 11.76 110.345 10.44 110.135C9.12 109.955 7.875 109.67 6.705 109.28C5.535 108.86 4.485 108.35 3.555 107.75C3.015 107.39 2.64 106.955 2.43 106.445C2.22 105.935 2.145 105.44 2.205 104.96C2.295 104.45 2.49 104.015 2.79 103.655C3.12 103.265 3.525 103.025 4.005 102.935C4.485 102.845 5.01 102.98 5.58 103.34C6.9 104.12 8.295 104.69 9.765 105.05C11.235 105.41 12.78 105.59 14.4 105.59C16.77 105.59 18.495 105.2 19.575 104.42C20.655 103.61 21.195 102.575 21.195 101.315C21.195 100.265 20.805 99.44 20.025 98.84C19.275 98.24 17.97 97.745 16.11 97.355L11.16 96.32C8.31 95.72 6.18 94.715 4.77 93.305C3.39 91.865 2.7 89.975 2.7 87.635C2.7 86.165 3 84.83 3.6 83.63C4.2 82.43 5.04 81.395 6.12 80.525C7.23 79.655 8.535 78.995 10.035 78.545C11.565 78.065 13.245 77.825 15.075 77.825C16.875 77.825 18.585 78.05 20.205 78.5C21.825 78.95 23.28 79.61 24.57 80.48C25.05 80.81 25.365 81.215 25.515 81.695C25.695 82.175 25.74 82.655 25.65 83.135C25.56 83.585 25.35 83.975 25.02 84.305C24.69 84.635 24.27 84.83 23.76 84.89C23.28 84.95 22.725 84.8 22.095 84.44C20.985 83.81 19.86 83.36 18.72 83.09C17.58 82.82 16.35 82.685 15.03 82.685C13.65 82.685 12.465 82.88 11.475 83.27C10.485 83.66 9.72 84.215 9.18 84.935C8.67 85.625 8.415 86.45 8.415 87.41C8.415 88.49 8.775 89.36 9.495 90.02C10.215 90.65 11.445 91.145 13.185 91.505L18.09 92.54C21.06 93.17 23.265 94.16 24.705 95.51C26.175 96.86 26.91 98.66 26.91 100.91C26.91 102.35 26.61 103.655 26.01 104.825C25.44 105.995 24.6 107 23.49 107.84C22.41 108.68 21.105 109.325 19.575 109.775C18.045 110.225 16.32 110.45 14.4 110.45ZM34.1037 110.36C33.2037 110.36 32.5137 110.12 32.0337 109.64C31.5537 109.13 31.3137 108.41 31.3137 107.48V80.75C31.3137 79.82 31.5537 79.115 32.0337 78.635C32.5137 78.155 33.2037 77.915 34.1037 77.915C35.0037 77.915 35.6937 78.155 36.1737 78.635C36.6837 79.115 36.9387 79.82 36.9387 80.75V92.405H36.3087C36.9687 90.815 37.9887 89.615 39.3687 88.805C40.7787 87.965 42.3687 87.545 44.1387 87.545C45.9087 87.545 47.3637 87.875 48.5037 88.535C49.6437 89.195 50.4987 90.2 51.0687 91.55C51.6387 92.87 51.9237 94.55 51.9237 96.59V107.48C51.9237 108.41 51.6837 109.13 51.2037 109.64C50.7237 110.12 50.0337 110.36 49.1337 110.36C48.2337 110.36 47.5287 110.12 47.0187 109.64C46.5387 109.13 46.2987 108.41 46.2987 107.48V96.86C46.2987 95.15 45.9687 93.905 45.3087 93.125C44.6787 92.345 43.6887 91.955 42.3387 91.955C40.6887 91.955 39.3687 92.48 38.3787 93.53C37.4187 94.55 36.9387 95.915 36.9387 97.625V107.48C36.9387 109.4 35.9937 110.36 34.1037 110.36ZM67.6719 110.45C65.3919 110.45 63.4119 109.985 61.7319 109.055C60.0519 108.125 58.7469 106.805 57.8169 105.095C56.8869 103.355 56.4219 101.315 56.4219 98.975C56.4219 97.205 56.6769 95.63 57.1869 94.25C57.7269 92.84 58.4919 91.64 59.4819 90.65C60.4719 89.63 61.6569 88.865 63.0369 88.355C64.4169 87.815 65.9619 87.545 67.6719 87.545C69.9519 87.545 71.9319 88.01 73.6119 88.94C75.2919 89.87 76.5969 91.19 77.5269 92.9C78.4569 94.61 78.9219 96.635 78.9219 98.975C78.9219 100.745 78.6519 102.335 78.1119 103.745C77.6019 105.155 76.8519 106.37 75.8619 107.39C74.8719 108.38 73.6869 109.145 72.3069 109.685C70.9269 110.195 69.3819 110.45 67.6719 110.45ZM67.6719 106.175C68.7819 106.175 69.7569 105.905 70.5969 105.365C71.4369 104.825 72.0819 104.03 72.5319 102.98C73.0119 101.9 73.2519 100.565 73.2519 98.975C73.2519 96.575 72.7419 94.79 71.7219 93.62C70.7019 92.42 69.3519 91.82 67.6719 91.82C66.5619 91.82 65.5869 92.09 64.7469 92.63C63.9069 93.14 63.2469 93.935 62.7669 95.015C62.3169 96.065 62.0919 97.385 62.0919 98.975C62.0919 101.345 62.6019 103.145 63.6219 104.375C64.6419 105.575 65.9919 106.175 67.6719 106.175ZM86.3546 118.46C85.4546 118.46 84.7646 118.22 84.2846 117.74C83.8046 117.26 83.5646 116.555 83.5646 115.625V90.47C83.5646 89.54 83.8046 88.835 84.2846 88.355C84.7646 87.875 85.4396 87.635 86.3096 87.635C87.2096 87.635 87.8996 87.875 88.3796 88.355C88.8596 88.835 89.0996 89.54 89.0996 90.47V93.98L88.6046 92.63C89.0546 91.1 89.9696 89.87 91.3496 88.94C92.7596 88.01 94.3946 87.545 96.2546 87.545C98.1746 87.545 99.8546 88.01 101.295 88.94C102.765 89.87 103.905 91.19 104.715 92.9C105.525 94.58 105.93 96.605 105.93 98.975C105.93 101.315 105.525 103.355 104.715 105.095C103.905 106.805 102.78 108.125 101.34 109.055C99.8996 109.985 98.2046 110.45 96.2546 110.45C94.4246 110.45 92.8196 110 91.4396 109.1C90.0596 108.17 89.1296 106.97 88.6496 105.5H89.1896V115.625C89.1896 116.555 88.9346 117.26 88.4246 117.74C87.9446 118.22 87.2546 118.46 86.3546 118.46ZM94.6796 106.175C95.7896 106.175 96.7646 105.905 97.6046 105.365C98.4446 104.825 99.0896 104.03 99.5396 102.98C100.02 101.9 100.26 100.565 100.26 98.975C100.26 96.575 99.7496 94.79 98.7296 93.62C97.7096 92.42 96.3596 91.82 94.6796 91.82C93.5696 91.82 92.5946 92.09 91.7546 92.63C90.9146 93.14 90.2546 93.935 89.7746 95.015C89.3246 96.065 89.0996 97.385 89.0996 98.975C89.0996 101.345 89.6096 103.145 90.6296 104.375C91.6496 105.575 92.9996 106.175 94.6796 106.175ZM113.337 118.46C112.437 118.46 111.747 118.22 111.267 117.74C110.787 117.26 110.547 116.555 110.547 115.625V90.47C110.547 89.54 110.787 88.835 111.267 88.355C111.747 87.875 112.422 87.635 113.292 87.635C114.192 87.635 114.882 87.875 115.362 88.355C115.842 88.835 116.082 89.54 116.082 90.47V93.98L115.587 92.63C116.037 91.1 116.952 89.87 118.332 88.94C119.742 88.01 121.377 87.545 123.237 87.545C125.157 87.545 126.837 88.01 128.277 88.94C129.747 89.87 130.887 91.19 131.697 92.9C132.507 94.58 132.912 96.605 132.912 98.975C132.912 101.315 132.507 103.355 131.697 105.095C130.887 106.805 129.762 108.125 128.322 109.055C126.882 109.985 125.187 110.45 123.237 110.45C121.407 110.45 119.802 110 118.422 109.1C117.042 108.17 116.112 106.97 115.632 105.5H116.172V115.625C116.172 116.555 115.917 117.26 115.407 117.74C114.927 118.22 114.237 118.46 113.337 118.46ZM121.662 106.175C122.772 106.175 123.747 105.905 124.587 105.365C125.427 104.825 126.072 104.03 126.522 102.98C127.002 101.9 127.242 100.565 127.242 98.975C127.242 96.575 126.732 94.79 125.712 93.62C124.692 92.42 123.342 91.82 121.662 91.82C120.552 91.82 119.577 92.09 118.737 92.63C117.897 93.14 117.237 93.935 116.757 95.015C116.307 96.065 116.082 97.385 116.082 98.975C116.082 101.345 116.592 103.145 117.612 104.375C118.632 105.575 119.982 106.175 121.662 106.175ZM140.319 110.315C139.419 110.315 138.729 110.045 138.249 109.505C137.769 108.965 137.529 108.215 137.529 107.255V90.74C137.529 89.75 137.769 89 138.249 88.49C138.729 87.95 139.419 87.68 140.319 87.68C141.219 87.68 141.909 87.95 142.389 88.49C142.899 89 143.154 89.75 143.154 90.74V107.255C143.154 108.215 142.914 108.965 142.434 109.505C141.954 110.045 141.249 110.315 140.319 110.315ZM140.319 83.495C139.269 83.495 138.444 83.24 137.844 82.73C137.274 82.19 136.989 81.455 136.989 80.525C136.989 79.565 137.274 78.83 137.844 78.32C138.444 77.81 139.269 77.555 140.319 77.555C141.399 77.555 142.224 77.81 142.794 78.32C143.364 78.83 143.649 79.565 143.649 80.525C143.649 81.455 143.364 82.19 142.794 82.73C142.224 83.24 141.399 83.495 140.319 83.495ZM151.789 110.36C150.889 110.36 150.199 110.12 149.719 109.64C149.239 109.13 148.999 108.41 148.999 107.48V90.47C148.999 89.54 149.239 88.835 149.719 88.355C150.199 87.875 150.874 87.635 151.744 87.635C152.614 87.635 153.289 87.875 153.769 88.355C154.249 88.835 154.489 89.54 154.489 90.47V93.53L153.994 92.405C154.654 90.815 155.674 89.615 157.054 88.805C158.464 87.965 160.054 87.545 161.824 87.545C163.594 87.545 165.049 87.875 166.189 88.535C167.329 89.195 168.184 90.2 168.754 91.55C169.324 92.87 169.609 94.55 169.609 96.59V107.48C169.609 108.41 169.369 109.13 168.889 109.64C168.409 110.12 167.719 110.36 166.819 110.36C165.919 110.36 165.214 110.12 164.704 109.64C164.224 109.13 163.984 108.41 163.984 107.48V96.86C163.984 95.15 163.654 93.905 162.994 93.125C162.364 92.345 161.374 91.955 160.024 91.955C158.374 91.955 157.054 92.48 156.064 93.53C155.104 94.55 154.624 95.915 154.624 97.625V107.48C154.624 109.4 153.679 110.36 151.789 110.36ZM185.582 118.55C183.962 118.55 182.387 118.4 180.857 118.1C179.357 117.8 177.992 117.335 176.762 116.705C176.192 116.405 175.802 116.045 175.592 115.625C175.412 115.205 175.352 114.77 175.412 114.32C175.502 113.9 175.682 113.525 175.952 113.195C176.252 112.865 176.612 112.64 177.032 112.52C177.452 112.4 177.887 112.46 178.337 112.7C179.657 113.36 180.902 113.78 182.072 113.96C183.272 114.17 184.292 114.275 185.132 114.275C187.142 114.275 188.642 113.78 189.632 112.79C190.652 111.83 191.162 110.39 191.162 108.47V104.42H191.567C191.117 105.95 190.172 107.18 188.732 108.11C187.322 109.01 185.717 109.46 183.917 109.46C181.937 109.46 180.212 109.01 178.742 108.11C177.272 107.18 176.132 105.89 175.322 104.24C174.512 102.59 174.107 100.67 174.107 98.48C174.107 96.83 174.332 95.345 174.782 94.025C175.262 92.675 175.922 91.52 176.762 90.56C177.632 89.6 178.667 88.865 179.867 88.355C181.097 87.815 182.447 87.545 183.917 87.545C185.777 87.545 187.397 88.01 188.777 88.94C190.187 89.84 191.102 91.04 191.522 92.54L191.072 93.665V90.47C191.072 89.54 191.312 88.835 191.792 88.355C192.302 87.875 192.992 87.635 193.862 87.635C194.762 87.635 195.452 87.875 195.932 88.355C196.412 88.835 196.652 89.54 196.652 90.47V107.795C196.652 111.365 195.707 114.05 193.817 115.85C191.927 117.65 189.182 118.55 185.582 118.55ZM185.447 105.185C186.617 105.185 187.622 104.915 188.462 104.375C189.302 103.835 189.947 103.07 190.397 102.08C190.877 101.06 191.117 99.86 191.117 98.48C191.117 96.41 190.607 94.79 189.587 93.62C188.567 92.42 187.187 91.82 185.447 91.82C184.277 91.82 183.272 92.09 182.432 92.63C181.592 93.17 180.932 93.935 180.452 94.925C180.002 95.915 179.777 97.1 179.777 98.48C179.777 100.55 180.287 102.185 181.307 103.385C182.327 104.585 183.707 105.185 185.447 105.185ZM223.202 110.36C222.452 110.36 221.807 110.18 221.267 109.82C220.727 109.43 220.292 108.83 219.962 108.02L213.437 91.37C213.167 90.65 213.077 90.02 213.167 89.48C213.287 88.91 213.572 88.46 214.022 88.13C214.472 87.8 215.072 87.635 215.822 87.635C216.482 87.635 217.022 87.8 217.442 88.13C217.862 88.43 218.222 89.015 218.522 89.885L223.967 104.87H222.932L228.557 89.525C228.797 88.865 229.112 88.385 229.502 88.085C229.922 87.785 230.462 87.635 231.122 87.635C231.782 87.635 232.322 87.8 232.742 88.13C233.162 88.43 233.477 88.895 233.687 89.525L239.222 104.87H238.277L243.767 89.75C244.067 88.94 244.442 88.385 244.892 88.085C245.372 87.785 245.897 87.635 246.467 87.635C247.187 87.635 247.742 87.815 248.132 88.175C248.522 88.535 248.747 89 248.807 89.57C248.867 90.11 248.762 90.71 248.492 91.37L242.012 108.02C241.712 108.8 241.277 109.385 240.707 109.775C240.167 110.165 239.522 110.36 238.772 110.36C238.022 110.36 237.362 110.165 236.792 109.775C236.252 109.385 235.832 108.8 235.532 108.02L229.637 92.405H232.202L226.442 107.975C226.142 108.785 225.722 109.385 225.182 109.775C224.642 110.165 223.982 110.36 223.202 110.36ZM255.852 110.315C254.952 110.315 254.262 110.045 253.782 109.505C253.302 108.965 253.062 108.215 253.062 107.255V90.74C253.062 89.75 253.302 89 253.782 88.49C254.262 87.95 254.952 87.68 255.852 87.68C256.752 87.68 257.442 87.95 257.922 88.49C258.432 89 258.687 89.75 258.687 90.74V107.255C258.687 108.215 258.447 108.965 257.967 109.505C257.487 110.045 256.782 110.315 255.852 110.315ZM255.852 83.495C254.802 83.495 253.977 83.24 253.377 82.73C252.807 82.19 252.522 81.455 252.522 80.525C252.522 79.565 252.807 78.83 253.377 78.32C253.977 77.81 254.802 77.555 255.852 77.555C256.932 77.555 257.757 77.81 258.327 78.32C258.897 78.83 259.182 79.565 259.182 80.525C259.182 81.455 258.897 82.19 258.327 82.73C257.757 83.24 256.932 83.495 255.852 83.495ZM274.611 110.45C272.661 110.45 271.026 110.12 269.706 109.46C268.416 108.8 267.456 107.84 266.826 106.58C266.196 105.29 265.881 103.7 265.881 101.81V92.225H263.541C262.821 92.225 262.266 92.045 261.876 91.685C261.486 91.295 261.291 90.77 261.291 90.11C261.291 89.42 261.486 88.895 261.876 88.535C262.266 88.175 262.821 87.995 263.541 87.995H265.881V83.9C265.881 82.97 266.121 82.265 266.601 81.785C267.111 81.305 267.816 81.065 268.716 81.065C269.616 81.065 270.306 81.305 270.786 81.785C271.266 82.265 271.506 82.97 271.506 83.9V87.995H276.276C276.996 87.995 277.551 88.175 277.941 88.535C278.331 88.895 278.526 89.42 278.526 90.11C278.526 90.77 278.331 91.295 277.941 91.685C277.551 92.045 276.996 92.225 276.276 92.225H271.506V101.495C271.506 102.935 271.821 104.015 272.451 104.735C273.081 105.455 274.101 105.815 275.511 105.815C276.021 105.815 276.471 105.77 276.861 105.68C277.251 105.59 277.596 105.53 277.896 105.5C278.256 105.47 278.556 105.59 278.796 105.86C279.036 106.1 279.156 106.61 279.156 107.39C279.156 107.99 279.051 108.53 278.841 109.01C278.661 109.46 278.316 109.775 277.806 109.955C277.416 110.075 276.906 110.18 276.276 110.27C275.646 110.39 275.091 110.45 274.611 110.45ZM285.163 110.36C284.263 110.36 283.573 110.12 283.093 109.64C282.613 109.13 282.373 108.41 282.373 107.48V80.75C282.373 79.82 282.613 79.115 283.093 78.635C283.573 78.155 284.263 77.915 285.163 77.915C286.063 77.915 286.753 78.155 287.233 78.635C287.743 79.115 287.998 79.82 287.998 80.75V92.405H287.368C288.028 90.815 289.048 89.615 290.428 88.805C291.838 87.965 293.428 87.545 295.198 87.545C296.968 87.545 298.423 87.875 299.563 88.535C300.703 89.195 301.558 90.2 302.128 91.55C302.698 92.87 302.983 94.55 302.983 96.59V107.48C302.983 108.41 302.743 109.13 302.263 109.64C301.783 110.12 301.093 110.36 300.193 110.36C299.293 110.36 298.588 110.12 298.078 109.64C297.598 109.13 297.358 108.41 297.358 107.48V96.86C297.358 95.15 297.028 93.905 296.368 93.125C295.738 92.345 294.748 91.955 293.398 91.955C291.748 91.955 290.428 92.48 289.438 93.53C288.478 94.55 287.998 95.915 287.998 97.625V107.48C287.998 109.4 287.053 110.36 285.163 110.36ZM331.083 110.45C328.773 110.45 326.763 109.985 325.053 109.055C323.343 108.095 322.023 106.745 321.093 105.005C320.163 103.265 319.698 101.225 319.698 98.885C319.698 97.115 319.953 95.54 320.463 94.16C321.003 92.75 321.768 91.565 322.758 90.605C323.748 89.615 324.948 88.865 326.358 88.355C327.768 87.815 329.343 87.545 331.083 87.545C332.073 87.545 333.138 87.68 334.278 87.95C335.448 88.22 336.543 88.67 337.563 89.3C338.043 89.6 338.358 89.96 338.508 90.38C338.658 90.8 338.688 91.235 338.598 91.685C338.508 92.105 338.313 92.48 338.013 92.81C337.743 93.11 337.398 93.305 336.978 93.395C336.558 93.455 336.093 93.35 335.583 93.08C334.923 92.69 334.248 92.405 333.558 92.225C332.868 92.015 332.208 91.91 331.578 91.91C330.588 91.91 329.718 92.075 328.968 92.405C328.218 92.705 327.573 93.155 327.033 93.755C326.523 94.325 326.133 95.045 325.863 95.915C325.593 96.785 325.458 97.79 325.458 98.93C325.458 101.15 325.983 102.905 327.033 104.195C328.113 105.455 329.628 106.085 331.578 106.085C332.208 106.085 332.853 105.995 333.513 105.815C334.203 105.635 334.893 105.35 335.583 104.96C336.093 104.69 336.543 104.6 336.933 104.69C337.353 104.78 337.698 104.99 337.968 105.32C338.238 105.62 338.403 105.995 338.463 106.445C338.523 106.865 338.463 107.285 338.283 107.705C338.133 108.125 337.833 108.47 337.383 108.74C336.393 109.34 335.343 109.775 334.233 110.045C333.123 110.315 332.073 110.45 331.083 110.45ZM351.734 110.45C349.454 110.45 347.474 109.985 345.794 109.055C344.114 108.125 342.809 106.805 341.879 105.095C340.949 103.355 340.484 101.315 340.484 98.975C340.484 97.205 340.739 95.63 341.249 94.25C341.789 92.84 342.554 91.64 343.544 90.65C344.534 89.63 345.719 88.865 347.099 88.355C348.479 87.815 350.024 87.545 351.734 87.545C354.014 87.545 355.994 88.01 357.674 88.94C359.354 89.87 360.659 91.19 361.589 92.9C362.519 94.61 362.984 96.635 362.984 98.975C362.984 100.745 362.714 102.335 362.174 103.745C361.664 105.155 360.914 106.37 359.924 107.39C358.934 108.38 357.749 109.145 356.369 109.685C354.989 110.195 353.444 110.45 351.734 110.45ZM351.734 106.175C352.844 106.175 353.819 105.905 354.659 105.365C355.499 104.825 356.144 104.03 356.594 102.98C357.074 101.9 357.314 100.565 357.314 98.975C357.314 96.575 356.804 94.79 355.784 93.62C354.764 92.42 353.414 91.82 351.734 91.82C350.624 91.82 349.649 92.09 348.809 92.63C347.969 93.14 347.309 93.935 346.829 95.015C346.379 96.065 346.154 97.385 346.154 98.975C346.154 101.345 346.664 103.145 347.684 104.375C348.704 105.575 350.054 106.175 351.734 106.175ZM375.592 110.45C373.762 110.45 372.247 110.12 371.047 109.46C369.847 108.77 368.947 107.75 368.347 106.4C367.777 105.05 367.492 103.37 367.492 101.36V90.47C367.492 89.51 367.732 88.805 368.212 88.355C368.692 87.875 369.382 87.635 370.282 87.635C371.182 87.635 371.872 87.875 372.352 88.355C372.862 88.805 373.117 89.51 373.117 90.47V101.45C373.117 103.01 373.432 104.165 374.062 104.915C374.692 105.665 375.697 106.04 377.077 106.04C378.577 106.04 379.807 105.53 380.767 104.51C381.727 103.46 382.207 102.08 382.207 100.37V90.47C382.207 89.51 382.447 88.805 382.927 88.355C383.407 87.875 384.097 87.635 384.997 87.635C385.897 87.635 386.587 87.875 387.067 88.355C387.577 88.805 387.832 89.51 387.832 90.47V107.48C387.832 109.4 386.917 110.36 385.087 110.36C384.217 110.36 383.542 110.12 383.062 109.64C382.582 109.13 382.342 108.41 382.342 107.48V104.06L382.972 105.41C382.342 107.03 381.382 108.275 380.092 109.145C378.832 110.015 377.332 110.45 375.592 110.45ZM396.477 118.46C395.577 118.46 394.887 118.22 394.407 117.74C393.927 117.26 393.687 116.555 393.687 115.625V90.47C393.687 89.54 393.927 88.835 394.407 88.355C394.887 87.875 395.562 87.635 396.432 87.635C397.332 87.635 398.022 87.875 398.502 88.355C398.982 88.835 399.222 89.54 399.222 90.47V93.98L398.727 92.63C399.177 91.1 400.092 89.87 401.472 88.94C402.882 88.01 404.517 87.545 406.377 87.545C408.297 87.545 409.977 88.01 411.417 88.94C412.887 89.87 414.027 91.19 414.837 92.9C415.647 94.58 416.052 96.605 416.052 98.975C416.052 101.315 415.647 103.355 414.837 105.095C414.027 106.805 412.902 108.125 411.462 109.055C410.022 109.985 408.327 110.45 406.377 110.45C404.547 110.45 402.942 110 401.562 109.1C400.182 108.17 399.252 106.97 398.772 105.5H399.312V115.625C399.312 116.555 399.057 117.26 398.547 117.74C398.067 118.22 397.377 118.46 396.477 118.46ZM404.802 106.175C405.912 106.175 406.887 105.905 407.727 105.365C408.567 104.825 409.212 104.03 409.662 102.98C410.142 101.9 410.382 100.565 410.382 98.975C410.382 96.575 409.872 94.79 408.852 93.62C407.832 92.42 406.482 91.82 404.802 91.82C403.692 91.82 402.717 92.09 401.877 92.63C401.037 93.14 400.377 93.935 399.897 95.015C399.447 96.065 399.222 97.385 399.222 98.975C399.222 101.345 399.732 103.145 400.752 104.375C401.772 105.575 403.122 106.175 404.802 106.175ZM430.704 110.45C428.424 110.45 426.444 109.985 424.764 109.055C423.084 108.125 421.779 106.805 420.849 105.095C419.919 103.355 419.454 101.315 419.454 98.975C419.454 97.205 419.709 95.63 420.219 94.25C420.759 92.84 421.524 91.64 422.514 90.65C423.504 89.63 424.689 88.865 426.069 88.355C427.449 87.815 428.994 87.545 430.704 87.545C432.984 87.545 434.964 88.01 436.644 88.94C438.324 89.87 439.629 91.19 440.559 92.9C441.489 94.61 441.954 96.635 441.954 98.975C441.954 100.745 441.684 102.335 441.144 103.745C440.634 105.155 439.884 106.37 438.894 107.39C437.904 108.38 436.719 109.145 435.339 109.685C433.959 110.195 432.414 110.45 430.704 110.45ZM430.704 106.175C431.814 106.175 432.789 105.905 433.629 105.365C434.469 104.825 435.114 104.03 435.564 102.98C436.044 101.9 436.284 100.565 436.284 98.975C436.284 96.575 435.774 94.79 434.754 93.62C433.734 92.42 432.384 91.82 430.704 91.82C429.594 91.82 428.619 92.09 427.779 92.63C426.939 93.14 426.279 93.935 425.799 95.015C425.349 96.065 425.124 97.385 425.124 98.975C425.124 101.345 425.634 103.145 426.654 104.375C427.674 105.575 429.024 106.175 430.704 106.175ZM449.387 110.36C448.487 110.36 447.797 110.12 447.317 109.64C446.837 109.13 446.597 108.41 446.597 107.48V90.47C446.597 89.54 446.837 88.835 447.317 88.355C447.797 87.875 448.472 87.635 449.342 87.635C450.212 87.635 450.887 87.875 451.367 88.355C451.847 88.835 452.087 89.54 452.087 90.47V93.53L451.592 92.405C452.252 90.815 453.272 89.615 454.652 88.805C456.062 87.965 457.652 87.545 459.422 87.545C461.192 87.545 462.647 87.875 463.787 88.535C464.927 89.195 465.782 90.2 466.352 91.55C466.922 92.87 467.207 94.55 467.207 96.59V107.48C467.207 108.41 466.967 109.13 466.487 109.64C466.007 110.12 465.317 110.36 464.417 110.36C463.517 110.36 462.812 110.12 462.302 109.64C461.822 109.13 461.582 108.41 461.582 107.48V96.86C461.582 95.15 461.252 93.905 460.592 93.125C459.962 92.345 458.972 91.955 457.622 91.955C455.972 91.955 454.652 92.48 453.662 93.53C452.702 94.55 452.222 95.915 452.222 97.625V107.48C452.222 109.4 451.277 110.36 449.387 110.36ZM480.975 110.45C479.685 110.45 478.32 110.315 476.88 110.045C475.44 109.775 474.15 109.31 473.01 108.65C472.53 108.35 472.185 108.005 471.975 107.615C471.795 107.195 471.72 106.79 471.75 106.4C471.81 105.98 471.96 105.62 472.2 105.32C472.47 105.02 472.8 104.825 473.19 104.735C473.61 104.645 474.06 104.72 474.54 104.96C475.74 105.53 476.865 105.935 477.915 106.175C478.965 106.385 480 106.49 481.02 106.49C482.46 106.49 483.525 106.25 484.215 105.77C484.935 105.26 485.295 104.6 485.295 103.79C485.295 103.1 485.055 102.575 484.575 102.215C484.125 101.825 483.435 101.54 482.505 101.36L478.005 100.505C476.145 100.145 474.72 99.47 473.73 98.48C472.77 97.46 472.29 96.155 472.29 94.565C472.29 93.125 472.68 91.88 473.46 90.83C474.27 89.78 475.38 88.97 476.79 88.4C478.2 87.83 479.82 87.545 481.65 87.545C482.97 87.545 484.2 87.695 485.34 87.995C486.51 88.265 487.635 88.7 488.715 89.3C489.165 89.54 489.465 89.855 489.615 90.245C489.795 90.635 489.84 91.04 489.75 91.46C489.66 91.85 489.48 92.21 489.21 92.54C488.94 92.84 488.595 93.035 488.175 93.125C487.785 93.185 487.335 93.095 486.825 92.855C485.895 92.375 484.995 92.03 484.125 91.82C483.285 91.61 482.475 91.505 481.695 91.505C480.225 91.505 479.13 91.76 478.41 92.27C477.72 92.78 477.375 93.455 477.375 94.295C477.375 94.925 477.585 95.45 478.005 95.87C478.425 96.29 479.07 96.575 479.94 96.725L484.44 97.58C486.39 97.94 487.86 98.6 488.85 99.56C489.87 100.52 490.38 101.81 490.38 103.43C490.38 105.62 489.525 107.345 487.815 108.605C486.105 109.835 483.825 110.45 480.975 110.45ZM498.093 114.815C497.703 115.295 497.283 115.565 496.833 115.625C496.413 115.715 496.038 115.64 495.708 115.4C495.378 115.16 495.198 114.815 495.168 114.365C495.138 113.945 495.333 113.48 495.753 112.97C496.353 112.22 496.758 111.47 496.968 110.72C497.178 109.97 497.283 109.295 497.283 108.695L497.508 110.225C496.458 110.225 495.603 109.925 494.943 109.325C494.313 108.695 493.998 107.87 493.998 106.85C493.998 105.89 494.298 105.11 494.898 104.51C495.498 103.88 496.308 103.565 497.328 103.565C498.378 103.565 499.203 103.925 499.803 104.645C500.403 105.335 500.703 106.34 500.703 107.66C500.703 108.38 500.628 109.13 500.478 109.91C500.358 110.66 500.103 111.44 499.713 112.25C499.353 113.09 498.813 113.945 498.093 114.815ZM10.17 171.45C8.58 171.45 7.155 171.15 5.895 170.55C4.665 169.92 3.69 169.08 2.97 168.03C2.28 166.98 1.935 165.795 1.935 164.475C1.935 162.855 2.355 161.58 3.195 160.65C4.035 159.69 5.4 159 7.29 158.58C9.18 158.16 11.715 157.95 14.895 157.95H17.145V161.19H14.94C13.08 161.19 11.595 161.28 10.485 161.46C9.375 161.64 8.58 161.955 8.1 162.405C7.65 162.825 7.425 163.425 7.425 164.205C7.425 165.195 7.77 166.005 8.46 166.635C9.15 167.265 10.11 167.58 11.34 167.58C12.33 167.58 13.2 167.355 13.95 166.905C14.73 166.425 15.345 165.78 15.795 164.97C16.245 164.16 16.47 163.23 16.47 162.18V157.005C16.47 155.505 16.14 154.425 15.48 153.765C14.82 153.105 13.71 152.775 12.15 152.775C11.28 152.775 10.335 152.88 9.315 153.09C8.325 153.3 7.275 153.66 6.165 154.17C5.595 154.44 5.085 154.515 4.635 154.395C4.215 154.275 3.885 154.035 3.645 153.675C3.405 153.285 3.285 152.865 3.285 152.415C3.285 151.965 3.405 151.53 3.645 151.11C3.885 150.66 4.29 150.33 4.86 150.12C6.24 149.55 7.56 149.145 8.82 148.905C10.11 148.665 11.28 148.545 12.33 148.545C14.49 148.545 16.26 148.875 17.64 149.535C19.05 150.195 20.1 151.2 20.79 152.55C21.48 153.87 21.825 155.58 21.825 157.68V168.48C21.825 169.41 21.6 170.13 21.15 170.64C20.7 171.12 20.055 171.36 19.215 171.36C18.375 171.36 17.715 171.12 17.235 170.64C16.785 170.13 16.56 169.41 16.56 168.48V166.32H16.92C16.71 167.37 16.29 168.285 15.66 169.065C15.06 169.815 14.295 170.4 13.365 170.82C12.435 171.24 11.37 171.45 10.17 171.45ZM30.3244 179.46C29.4244 179.46 28.7344 179.22 28.2544 178.74C27.7744 178.26 27.5344 177.555 27.5344 176.625V151.47C27.5344 150.54 27.7744 149.835 28.2544 149.355C28.7344 148.875 29.4094 148.635 30.2794 148.635C31.1794 148.635 31.8694 148.875 32.3494 149.355C32.8294 149.835 33.0694 150.54 33.0694 151.47V154.98L32.5744 153.63C33.0244 152.1 33.9394 150.87 35.3194 149.94C36.7294 149.01 38.3644 148.545 40.2244 148.545C42.1444 148.545 43.8244 149.01 45.2644 149.94C46.7344 150.87 47.8744 152.19 48.6844 153.9C49.4944 155.58 49.8994 157.605 49.8994 159.975C49.8994 162.315 49.4944 164.355 48.6844 166.095C47.8744 167.805 46.7494 169.125 45.3094 170.055C43.8694 170.985 42.1744 171.45 40.2244 171.45C38.3944 171.45 36.7894 171 35.4094 170.1C34.0294 169.17 33.0994 167.97 32.6194 166.5H33.1594V176.625C33.1594 177.555 32.9044 178.26 32.3944 178.74C31.9144 179.22 31.2244 179.46 30.3244 179.46ZM38.6494 167.175C39.7594 167.175 40.7344 166.905 41.5744 166.365C42.4144 165.825 43.0594 165.03 43.5094 163.98C43.9894 162.9 44.2294 161.565 44.2294 159.975C44.2294 157.575 43.7194 155.79 42.6994 154.62C41.6794 153.42 40.3294 152.82 38.6494 152.82C37.5394 152.82 36.5644 153.09 35.7244 153.63C34.8844 154.14 34.2244 154.935 33.7444 156.015C33.2944 157.065 33.0694 158.385 33.0694 159.975C33.0694 162.345 33.5794 164.145 34.5994 165.375C35.6194 166.575 36.9694 167.175 38.6494 167.175ZM57.3068 179.46C56.4068 179.46 55.7168 179.22 55.2368 178.74C54.7568 178.26 54.5168 177.555 54.5168 176.625V151.47C54.5168 150.54 54.7568 149.835 55.2368 149.355C55.7168 148.875 56.3918 148.635 57.2618 148.635C58.1618 148.635 58.8518 148.875 59.3318 149.355C59.8118 149.835 60.0518 150.54 60.0518 151.47V154.98L59.5568 153.63C60.0068 152.1 60.9218 150.87 62.3018 149.94C63.7118 149.01 65.3468 148.545 67.2068 148.545C69.1268 148.545 70.8068 149.01 72.2468 149.94C73.7168 150.87 74.8568 152.19 75.6668 153.9C76.4768 155.58 76.8818 157.605 76.8818 159.975C76.8818 162.315 76.4768 164.355 75.6668 166.095C74.8568 167.805 73.7318 169.125 72.2918 170.055C70.8518 170.985 69.1568 171.45 67.2068 171.45C65.3768 171.45 63.7718 171 62.3918 170.1C61.0118 169.17 60.0818 167.97 59.6018 166.5H60.1418V176.625C60.1418 177.555 59.8868 178.26 59.3768 178.74C58.8968 179.22 58.2068 179.46 57.3068 179.46ZM65.6318 167.175C66.7418 167.175 67.7168 166.905 68.5568 166.365C69.3968 165.825 70.0418 165.03 70.4918 163.98C70.9718 162.9 71.2118 161.565 71.2118 159.975C71.2118 157.575 70.7018 155.79 69.6818 154.62C68.6618 153.42 67.3118 152.82 65.6318 152.82C64.5218 152.82 63.5468 153.09 62.7068 153.63C61.8668 154.14 61.2068 154.935 60.7268 156.015C60.2768 157.065 60.0518 158.385 60.0518 159.975C60.0518 162.345 60.5618 164.145 61.5818 165.375C62.6018 166.575 63.9518 167.175 65.6318 167.175ZM89.0142 171.45C86.5242 171.45 84.6492 170.745 83.3892 169.335C82.1292 167.895 81.4992 165.795 81.4992 163.035V141.75C81.4992 140.82 81.7392 140.115 82.2192 139.635C82.6992 139.155 83.3892 138.915 84.2892 138.915C85.1892 138.915 85.8792 139.155 86.3592 139.635C86.8692 140.115 87.1242 140.82 87.1242 141.75V162.765C87.1242 164.145 87.4092 165.165 87.9792 165.825C88.5792 166.485 89.4192 166.815 90.4992 166.815C90.7392 166.815 90.9642 166.815 91.1742 166.815C91.3842 166.785 91.5942 166.755 91.8042 166.725C92.2242 166.665 92.5092 166.785 92.6592 167.085C92.8092 167.355 92.8842 167.925 92.8842 168.795C92.8842 169.545 92.7342 170.13 92.4342 170.55C92.1342 170.97 91.6392 171.225 90.9492 171.315C90.6492 171.345 90.3342 171.375 90.0042 171.405C89.6742 171.435 89.3442 171.45 89.0142 171.45ZM98.6593 171.315C97.7593 171.315 97.0693 171.045 96.5893 170.505C96.1093 169.965 95.8693 169.215 95.8693 168.255V151.74C95.8693 150.75 96.1093 150 96.5893 149.49C97.0693 148.95 97.7593 148.68 98.6593 148.68C99.5593 148.68 100.249 148.95 100.729 149.49C101.239 150 101.494 150.75 101.494 151.74V168.255C101.494 169.215 101.254 169.965 100.774 170.505C100.294 171.045 99.5893 171.315 98.6593 171.315ZM98.6593 144.495C97.6093 144.495 96.7843 144.24 96.1843 143.73C95.6143 143.19 95.3293 142.455 95.3293 141.525C95.3293 140.565 95.6143 139.83 96.1843 139.32C96.7843 138.81 97.6093 138.555 98.6593 138.555C99.7393 138.555 100.564 138.81 101.134 139.32C101.704 139.83 101.989 140.565 101.989 141.525C101.989 142.455 101.704 143.19 101.134 143.73C100.564 144.24 99.7393 144.495 98.6593 144.495ZM118.184 171.45C115.694 171.45 113.549 170.985 111.749 170.055C109.949 169.125 108.554 167.805 107.564 166.095C106.604 164.385 106.124 162.36 106.124 160.02C106.124 157.74 106.589 155.745 107.519 154.035C108.479 152.325 109.784 150.99 111.434 150.03C113.114 149.04 115.019 148.545 117.149 148.545C118.709 148.545 120.104 148.8 121.334 149.31C122.594 149.82 123.659 150.555 124.529 151.515C125.429 152.475 126.104 153.645 126.554 155.025C127.034 156.375 127.274 157.905 127.274 159.615C127.274 160.155 127.079 160.575 126.689 160.875C126.329 161.145 125.804 161.28 125.114 161.28H110.669V158.04H123.314L122.594 158.715C122.594 157.335 122.384 156.18 121.964 155.25C121.574 154.32 120.989 153.615 120.209 153.135C119.459 152.625 118.514 152.37 117.374 152.37C116.114 152.37 115.034 152.67 114.134 153.27C113.264 153.84 112.589 154.665 112.109 155.745C111.659 156.795 111.434 158.055 111.434 159.525V159.84C111.434 162.3 112.004 164.145 113.144 165.375C114.314 166.575 116.024 167.175 118.274 167.175C119.054 167.175 119.924 167.085 120.884 166.905C121.874 166.695 122.804 166.35 123.674 165.87C124.304 165.51 124.859 165.36 125.339 165.42C125.819 165.45 126.194 165.615 126.464 165.915C126.764 166.215 126.944 166.59 127.004 167.04C127.064 167.46 126.974 167.895 126.734 168.345C126.524 168.795 126.149 169.185 125.609 169.515C124.559 170.175 123.344 170.67 121.964 171C120.614 171.3 119.354 171.45 118.184 171.45ZM140.189 171.45C138.269 171.45 136.574 170.985 135.104 170.055C133.664 169.125 132.539 167.805 131.729 166.095C130.919 164.355 130.514 162.315 130.514 159.975C130.514 157.605 130.919 155.58 131.729 153.9C132.539 152.19 133.664 150.87 135.104 149.94C136.574 149.01 138.269 148.545 140.189 148.545C142.019 148.545 143.609 148.995 144.959 149.895C146.339 150.795 147.269 151.98 147.749 153.45H147.254V141.75C147.254 140.82 147.494 140.115 147.974 139.635C148.454 139.155 149.144 138.915 150.044 138.915C150.944 138.915 151.634 139.155 152.114 139.635C152.624 140.115 152.879 140.82 152.879 141.75V168.48C152.879 169.41 152.639 170.13 152.159 170.64C151.679 171.12 150.989 171.36 150.089 171.36C149.189 171.36 148.499 171.12 148.019 170.64C147.539 170.13 147.299 169.41 147.299 168.48V164.97L147.794 166.32C147.344 167.88 146.429 169.125 145.049 170.055C143.669 170.985 142.049 171.45 140.189 171.45ZM141.764 167.175C142.874 167.175 143.849 166.905 144.689 166.365C145.529 165.825 146.174 165.03 146.624 163.98C147.104 162.9 147.344 161.565 147.344 159.975C147.344 157.575 146.834 155.79 145.814 154.62C144.794 153.42 143.444 152.82 141.764 152.82C140.654 152.82 139.679 153.09 138.839 153.63C137.999 154.14 137.339 154.935 136.859 156.015C136.409 157.065 136.184 158.385 136.184 159.975C136.184 162.345 136.694 164.145 137.714 165.375C138.734 166.575 140.084 167.175 141.764 167.175ZM178.173 171.45C176.583 171.45 175.158 171.15 173.898 170.55C172.668 169.92 171.693 169.08 170.973 168.03C170.283 166.98 169.938 165.795 169.938 164.475C169.938 162.855 170.358 161.58 171.198 160.65C172.038 159.69 173.403 159 175.293 158.58C177.183 158.16 179.718 157.95 182.898 157.95H185.148V161.19H182.943C181.083 161.19 179.598 161.28 178.488 161.46C177.378 161.64 176.583 161.955 176.103 162.405C175.653 162.825 175.428 163.425 175.428 164.205C175.428 165.195 175.773 166.005 176.463 166.635C177.153 167.265 178.113 167.58 179.343 167.58C180.333 167.58 181.203 167.355 181.953 166.905C182.733 166.425 183.348 165.78 183.798 164.97C184.248 164.16 184.473 163.23 184.473 162.18V157.005C184.473 155.505 184.143 154.425 183.483 153.765C182.823 153.105 181.713 152.775 180.153 152.775C179.283 152.775 178.338 152.88 177.318 153.09C176.328 153.3 175.278 153.66 174.168 154.17C173.598 154.44 173.088 154.515 172.638 154.395C172.218 154.275 171.888 154.035 171.648 153.675C171.408 153.285 171.288 152.865 171.288 152.415C171.288 151.965 171.408 151.53 171.648 151.11C171.888 150.66 172.293 150.33 172.863 150.12C174.243 149.55 175.563 149.145 176.823 148.905C178.113 148.665 179.283 148.545 180.333 148.545C182.493 148.545 184.263 148.875 185.643 149.535C187.053 150.195 188.103 151.2 188.793 152.55C189.483 153.87 189.828 155.58 189.828 157.68V168.48C189.828 169.41 189.603 170.13 189.153 170.64C188.703 171.12 188.058 171.36 187.218 171.36C186.378 171.36 185.718 171.12 185.238 170.64C184.788 170.13 184.563 169.41 184.563 168.48V166.32H184.923C184.713 167.37 184.293 168.285 183.663 169.065C183.063 169.815 182.298 170.4 181.368 170.82C180.438 171.24 179.373 171.45 178.173 171.45ZM203.502 171.45C201.672 171.45 200.157 171.12 198.957 170.46C197.757 169.77 196.857 168.75 196.257 167.4C195.687 166.05 195.402 164.37 195.402 162.36V151.47C195.402 150.51 195.642 149.805 196.122 149.355C196.602 148.875 197.292 148.635 198.192 148.635C199.092 148.635 199.782 148.875 200.262 149.355C200.772 149.805 201.027 150.51 201.027 151.47V162.45C201.027 164.01 201.342 165.165 201.972 165.915C202.602 166.665 203.607 167.04 204.987 167.04C206.487 167.04 207.717 166.53 208.677 165.51C209.637 164.46 210.117 163.08 210.117 161.37V151.47C210.117 150.51 210.357 149.805 210.837 149.355C211.317 148.875 212.007 148.635 212.907 148.635C213.807 148.635 214.497 148.875 214.977 149.355C215.487 149.805 215.742 150.51 215.742 151.47V168.48C215.742 170.4 214.827 171.36 212.997 171.36C212.127 171.36 211.452 171.12 210.972 170.64C210.492 170.13 210.252 169.41 210.252 168.48V165.06L210.882 166.41C210.252 168.03 209.292 169.275 208.002 170.145C206.742 171.015 205.242 171.45 203.502 171.45ZM231.677 171.45C229.727 171.45 228.092 171.12 226.772 170.46C225.482 169.8 224.522 168.84 223.892 167.58C223.262 166.29 222.947 164.7 222.947 162.81V153.225H220.607C219.887 153.225 219.332 153.045 218.942 152.685C218.552 152.295 218.357 151.77 218.357 151.11C218.357 150.42 218.552 149.895 218.942 149.535C219.332 149.175 219.887 148.995 220.607 148.995H222.947V144.9C222.947 143.97 223.187 143.265 223.667 142.785C224.177 142.305 224.882 142.065 225.782 142.065C226.682 142.065 227.372 142.305 227.852 142.785C228.332 143.265 228.572 143.97 228.572 144.9V148.995H233.342C234.062 148.995 234.617 149.175 235.007 149.535C235.397 149.895 235.592 150.42 235.592 151.11C235.592 151.77 235.397 152.295 235.007 152.685C234.617 153.045 234.062 153.225 233.342 153.225H228.572V162.495C228.572 163.935 228.887 165.015 229.517 165.735C230.147 166.455 231.167 166.815 232.577 166.815C233.087 166.815 233.537 166.77 233.927 166.68C234.317 166.59 234.662 166.53 234.962 166.5C235.322 166.47 235.622 166.59 235.862 166.86C236.102 167.1 236.222 167.61 236.222 168.39C236.222 168.99 236.117 169.53 235.907 170.01C235.727 170.46 235.382 170.775 234.872 170.955C234.482 171.075 233.972 171.18 233.342 171.27C232.712 171.39 232.157 171.45 231.677 171.45ZM248.683 171.45C246.403 171.45 244.423 170.985 242.743 170.055C241.063 169.125 239.758 167.805 238.828 166.095C237.898 164.355 237.433 162.315 237.433 159.975C237.433 158.205 237.688 156.63 238.198 155.25C238.738 153.84 239.503 152.64 240.493 151.65C241.483 150.63 242.668 149.865 244.048 149.355C245.428 148.815 246.973 148.545 248.683 148.545C250.963 148.545 252.943 149.01 254.623 149.94C256.303 150.87 257.608 152.19 258.538 153.9C259.468 155.61 259.933 157.635 259.933 159.975C259.933 161.745 259.663 163.335 259.123 164.745C258.613 166.155 257.863 167.37 256.873 168.39C255.883 169.38 254.698 170.145 253.318 170.685C251.938 171.195 250.393 171.45 248.683 171.45ZM248.683 167.175C249.793 167.175 250.768 166.905 251.608 166.365C252.448 165.825 253.093 165.03 253.543 163.98C254.023 162.9 254.263 161.565 254.263 159.975C254.263 157.575 253.753 155.79 252.733 154.62C251.713 153.42 250.363 152.82 248.683 152.82C247.573 152.82 246.598 153.09 245.758 153.63C244.918 154.14 244.258 154.935 243.778 156.015C243.328 157.065 243.103 158.385 243.103 159.975C243.103 162.345 243.613 164.145 244.633 165.375C245.653 166.575 247.003 167.175 248.683 167.175ZM267.455 171.36C266.555 171.36 265.865 171.12 265.385 170.64C264.905 170.13 264.665 169.41 264.665 168.48V151.47C264.665 150.54 264.905 149.835 265.385 149.355C265.865 148.875 266.54 148.635 267.41 148.635C268.28 148.635 268.955 148.875 269.435 149.355C269.915 149.835 270.155 150.54 270.155 151.47V154.755L269.66 153.405C270.26 151.905 271.19 150.72 272.45 149.85C273.71 148.98 275.21 148.545 276.95 148.545C278.72 148.545 280.175 148.965 281.315 149.805C282.455 150.645 283.25 151.935 283.7 153.675H283.07C283.67 152.085 284.66 150.84 286.04 149.94C287.42 149.01 289.01 148.545 290.81 148.545C292.49 148.545 293.87 148.875 294.95 149.535C296.06 150.195 296.885 151.2 297.425 152.55C297.965 153.87 298.235 155.55 298.235 157.59V168.48C298.235 169.41 297.98 170.13 297.47 170.64C296.99 171.12 296.3 171.36 295.4 171.36C294.5 171.36 293.81 171.12 293.33 170.64C292.85 170.13 292.61 169.41 292.61 168.48V157.815C292.61 156.135 292.325 154.905 291.755 154.125C291.215 153.345 290.285 152.955 288.965 152.955C287.495 152.955 286.34 153.48 285.5 154.53C284.66 155.55 284.24 156.975 284.24 158.805V168.48C284.24 169.41 284 170.13 283.52 170.64C283.04 171.12 282.35 171.36 281.45 171.36C280.55 171.36 279.845 171.12 279.335 170.64C278.855 170.13 278.615 169.41 278.615 168.48V157.815C278.615 156.135 278.33 154.905 277.76 154.125C277.22 153.345 276.305 152.955 275.015 152.955C273.545 152.955 272.39 153.48 271.55 154.53C270.71 155.55 270.29 156.975 270.29 158.805V168.48C270.29 170.4 269.345 171.36 267.455 171.36ZM311.283 171.45C309.693 171.45 308.268 171.15 307.008 170.55C305.778 169.92 304.803 169.08 304.083 168.03C303.393 166.98 303.048 165.795 303.048 164.475C303.048 162.855 303.468 161.58 304.308 160.65C305.148 159.69 306.513 159 308.403 158.58C310.293 158.16 312.828 157.95 316.008 157.95H318.258V161.19H316.053C314.193 161.19 312.708 161.28 311.598 161.46C310.488 161.64 309.693 161.955 309.213 162.405C308.763 162.825 308.538 163.425 308.538 164.205C308.538 165.195 308.883 166.005 309.573 166.635C310.263 167.265 311.223 167.58 312.453 167.58C313.443 167.58 314.313 167.355 315.063 166.905C315.843 166.425 316.458 165.78 316.908 164.97C317.358 164.16 317.583 163.23 317.583 162.18V157.005C317.583 155.505 317.253 154.425 316.593 153.765C315.933 153.105 314.823 152.775 313.263 152.775C312.393 152.775 311.448 152.88 310.428 153.09C309.438 153.3 308.388 153.66 307.278 154.17C306.708 154.44 306.198 154.515 305.748 154.395C305.328 154.275 304.998 154.035 304.758 153.675C304.518 153.285 304.398 152.865 304.398 152.415C304.398 151.965 304.518 151.53 304.758 151.11C304.998 150.66 305.403 150.33 305.973 150.12C307.353 149.55 308.673 149.145 309.933 148.905C311.223 148.665 312.393 148.545 313.443 148.545C315.603 148.545 317.373 148.875 318.753 149.535C320.163 150.195 321.213 151.2 321.903 152.55C322.593 153.87 322.938 155.58 322.938 157.68V168.48C322.938 169.41 322.713 170.13 322.263 170.64C321.813 171.12 321.168 171.36 320.328 171.36C319.488 171.36 318.828 171.12 318.348 170.64C317.898 170.13 317.673 169.41 317.673 168.48V166.32H318.033C317.823 167.37 317.403 168.285 316.773 169.065C316.173 169.815 315.408 170.4 314.478 170.82C313.548 171.24 312.483 171.45 311.283 171.45ZM338.728 171.45C336.778 171.45 335.143 171.12 333.823 170.46C332.533 169.8 331.573 168.84 330.943 167.58C330.313 166.29 329.998 164.7 329.998 162.81V153.225H327.658C326.938 153.225 326.383 153.045 325.993 152.685C325.603 152.295 325.408 151.77 325.408 151.11C325.408 150.42 325.603 149.895 325.993 149.535C326.383 149.175 326.938 148.995 327.658 148.995H329.998V144.9C329.998 143.97 330.238 143.265 330.718 142.785C331.228 142.305 331.933 142.065 332.833 142.065C333.733 142.065 334.423 142.305 334.903 142.785C335.383 143.265 335.623 143.97 335.623 144.9V148.995H340.393C341.113 148.995 341.668 149.175 342.058 149.535C342.448 149.895 342.643 150.42 342.643 151.11C342.643 151.77 342.448 152.295 342.058 152.685C341.668 153.045 341.113 153.225 340.393 153.225H335.623V162.495C335.623 163.935 335.938 165.015 336.568 165.735C337.198 166.455 338.218 166.815 339.628 166.815C340.138 166.815 340.588 166.77 340.978 166.68C341.368 166.59 341.713 166.53 342.013 166.5C342.373 166.47 342.673 166.59 342.913 166.86C343.153 167.1 343.273 167.61 343.273 168.39C343.273 168.99 343.168 169.53 342.958 170.01C342.778 170.46 342.433 170.775 341.923 170.955C341.533 171.075 341.023 171.18 340.393 171.27C339.763 171.39 339.208 171.45 338.728 171.45ZM349.279 171.315C348.379 171.315 347.689 171.045 347.209 170.505C346.729 169.965 346.489 169.215 346.489 168.255V151.74C346.489 150.75 346.729 150 347.209 149.49C347.689 148.95 348.379 148.68 349.279 148.68C350.179 148.68 350.869 148.95 351.349 149.49C351.859 150 352.114 150.75 352.114 151.74V168.255C352.114 169.215 351.874 169.965 351.394 170.505C350.914 171.045 350.209 171.315 349.279 171.315ZM349.279 144.495C348.229 144.495 347.404 144.24 346.804 143.73C346.234 143.19 345.949 142.455 345.949 141.525C345.949 140.565 346.234 139.83 346.804 139.32C347.404 138.81 348.229 138.555 349.279 138.555C350.359 138.555 351.184 138.81 351.754 139.32C352.324 139.83 352.609 140.565 352.609 141.525C352.609 142.455 352.324 143.19 351.754 143.73C351.184 144.24 350.359 144.495 349.279 144.495ZM368.129 171.45C365.819 171.45 363.809 170.985 362.099 170.055C360.389 169.095 359.069 167.745 358.139 166.005C357.209 164.265 356.744 162.225 356.744 159.885C356.744 158.115 356.999 156.54 357.509 155.16C358.049 153.75 358.814 152.565 359.804 151.605C360.794 150.615 361.994 149.865 363.404 149.355C364.814 148.815 366.389 148.545 368.129 148.545C369.119 148.545 370.184 148.68 371.324 148.95C372.494 149.22 373.589 149.67 374.609 150.3C375.089 150.6 375.404 150.96 375.554 151.38C375.704 151.8 375.734 152.235 375.644 152.685C375.554 153.105 375.359 153.48 375.059 153.81C374.789 154.11 374.444 154.305 374.024 154.395C373.604 154.455 373.139 154.35 372.629 154.08C371.969 153.69 371.294 153.405 370.604 153.225C369.914 153.015 369.254 152.91 368.624 152.91C367.634 152.91 366.764 153.075 366.014 153.405C365.264 153.705 364.619 154.155 364.079 154.755C363.569 155.325 363.179 156.045 362.909 156.915C362.639 157.785 362.504 158.79 362.504 159.93C362.504 162.15 363.029 163.905 364.079 165.195C365.159 166.455 366.674 167.085 368.624 167.085C369.254 167.085 369.899 166.995 370.559 166.815C371.249 166.635 371.939 166.35 372.629 165.96C373.139 165.69 373.589 165.6 373.979 165.69C374.399 165.78 374.744 165.99 375.014 166.32C375.284 166.62 375.449 166.995 375.509 167.445C375.569 167.865 375.509 168.285 375.329 168.705C375.179 169.125 374.879 169.47 374.429 169.74C373.439 170.34 372.389 170.775 371.279 171.045C370.169 171.315 369.119 171.45 368.129 171.45ZM386.298 171.45C384.708 171.45 383.283 171.15 382.023 170.55C380.793 169.92 379.818 169.08 379.098 168.03C378.408 166.98 378.063 165.795 378.063 164.475C378.063 162.855 378.483 161.58 379.323 160.65C380.163 159.69 381.528 159 383.418 158.58C385.308 158.16 387.843 157.95 391.023 157.95H393.273V161.19H391.068C389.208 161.19 387.723 161.28 386.613 161.46C385.503 161.64 384.708 161.955 384.228 162.405C383.778 162.825 383.553 163.425 383.553 164.205C383.553 165.195 383.898 166.005 384.588 166.635C385.278 167.265 386.238 167.58 387.468 167.58C388.458 167.58 389.328 167.355 390.078 166.905C390.858 166.425 391.473 165.78 391.923 164.97C392.373 164.16 392.598 163.23 392.598 162.18V157.005C392.598 155.505 392.268 154.425 391.608 153.765C390.948 153.105 389.838 152.775 388.278 152.775C387.408 152.775 386.463 152.88 385.443 153.09C384.453 153.3 383.403 153.66 382.293 154.17C381.723 154.44 381.213 154.515 380.763 154.395C380.343 154.275 380.013 154.035 379.773 153.675C379.533 153.285 379.413 152.865 379.413 152.415C379.413 151.965 379.533 151.53 379.773 151.11C380.013 150.66 380.418 150.33 380.988 150.12C382.368 149.55 383.688 149.145 384.948 148.905C386.238 148.665 387.408 148.545 388.458 148.545C390.618 148.545 392.388 148.875 393.768 149.535C395.178 150.195 396.228 151.2 396.918 152.55C397.608 153.87 397.953 155.58 397.953 157.68V168.48C397.953 169.41 397.728 170.13 397.278 170.64C396.828 171.12 396.183 171.36 395.343 171.36C394.503 171.36 393.843 171.12 393.363 170.64C392.913 170.13 392.688 169.41 392.688 168.48V166.32H393.048C392.838 167.37 392.418 168.285 391.788 169.065C391.188 169.815 390.423 170.4 389.493 170.82C388.563 171.24 387.498 171.45 386.298 171.45ZM411.177 171.45C408.687 171.45 406.812 170.745 405.552 169.335C404.292 167.895 403.662 165.795 403.662 163.035V141.75C403.662 140.82 403.902 140.115 404.382 139.635C404.862 139.155 405.552 138.915 406.452 138.915C407.352 138.915 408.042 139.155 408.522 139.635C409.032 140.115 409.287 140.82 409.287 141.75V162.765C409.287 164.145 409.572 165.165 410.142 165.825C410.742 166.485 411.582 166.815 412.662 166.815C412.902 166.815 413.127 166.815 413.337 166.815C413.547 166.785 413.757 166.755 413.967 166.725C414.387 166.665 414.672 166.785 414.822 167.085C414.972 167.355 415.047 167.925 415.047 168.795C415.047 169.545 414.897 170.13 414.597 170.55C414.297 170.97 413.802 171.225 413.112 171.315C412.812 171.345 412.497 171.375 412.167 171.405C411.837 171.435 411.507 171.45 411.177 171.45ZM425.547 171.45C423.057 171.45 421.182 170.745 419.922 169.335C418.662 167.895 418.032 165.795 418.032 163.035V141.75C418.032 140.82 418.272 140.115 418.752 139.635C419.232 139.155 419.922 138.915 420.822 138.915C421.722 138.915 422.412 139.155 422.892 139.635C423.402 140.115 423.657 140.82 423.657 141.75V162.765C423.657 164.145 423.942 165.165 424.512 165.825C425.112 166.485 425.952 166.815 427.032 166.815C427.272 166.815 427.497 166.815 427.707 166.815C427.917 166.785 428.127 166.755 428.337 166.725C428.757 166.665 429.042 166.785 429.192 167.085C429.342 167.355 429.417 167.925 429.417 168.795C429.417 169.545 429.267 170.13 428.967 170.55C428.667 170.97 428.172 171.225 427.482 171.315C427.182 171.345 426.867 171.375 426.537 171.405C426.207 171.435 425.877 171.45 425.547 171.45ZM437.411 179.46C436.751 179.46 436.211 179.28 435.791 178.92C435.371 178.59 435.116 178.14 435.026 177.57C434.966 177 435.071 176.4 435.341 175.77L438.401 168.975V171.315L430.211 152.37C429.941 151.71 429.851 151.095 429.941 150.525C430.031 149.955 430.301 149.505 430.751 149.175C431.231 148.815 431.876 148.635 432.686 148.635C433.376 148.635 433.931 148.8 434.351 149.13C434.771 149.43 435.146 150.015 435.476 150.885L441.551 166.05H440.201L446.411 150.84C446.741 150 447.131 149.43 447.581 149.13C448.031 148.8 448.631 148.635 449.381 148.635C450.041 148.635 450.566 148.815 450.956 149.175C451.346 149.505 451.586 149.955 451.676 150.525C451.766 151.065 451.661 151.665 451.361 152.325L440.426 177.3C440.036 178.14 439.616 178.71 439.166 179.01C438.716 179.31 438.131 179.46 437.411 179.46ZM458.218 161.865C457.648 161.865 457.198 161.685 456.868 161.325C456.568 160.965 456.388 160.455 456.328 159.795L454.978 142.605C454.888 141.495 455.128 140.61 455.698 139.95C456.268 139.26 457.108 138.915 458.218 138.915C459.298 138.915 460.108 139.26 460.648 139.95C461.218 140.61 461.458 141.495 461.368 142.605L460.018 159.795C459.988 160.455 459.808 160.965 459.478 161.325C459.178 161.685 458.758 161.865 458.218 161.865ZM458.218 171.225C457.198 171.225 456.373 170.91 455.743 170.28C455.143 169.65 454.843 168.84 454.843 167.85C454.843 166.89 455.143 166.11 455.743 165.51C456.373 164.88 457.198 164.565 458.218 164.565C459.268 164.565 460.078 164.88 460.648 165.51C461.248 166.11 461.548 166.89 461.548 167.85C461.548 168.84 461.248 169.65 460.648 170.28C460.078 170.91 459.268 171.225 458.218 171.225Z" fill="black"/>
<path d="M531.913 13.435C531.534 15.1708 531.031 16.8719 530.416 18.5012C530.336 18.7032 530.265 18.9096 530.177 19.095C530.138 19.1898 530.1 19.2846 530.061 19.3795C530.008 19.5239 530.16 19.1569 530.064 19.3671C530.036 19.4248 530.015 19.4991 529.987 19.5568C529.814 19.9566 529.631 20.3522 529.447 20.7477C529.069 21.5346 528.647 22.3044 528.2 23.0365C527.983 23.3779 527.767 23.7191 527.539 24.0562C527.422 24.2164 527.315 24.3808 527.187 24.5367C527.166 24.5696 527.105 24.6145 527.091 24.664C527.126 24.5401 527.201 24.5286 527.133 24.5982C527.062 24.6803 527.002 24.7665 526.93 24.8485C526.485 25.4025 525.992 25.9104 525.477 26.3683C525.362 26.4746 525.237 26.5767 525.112 26.6788C525.048 26.736 524.972 26.789 524.908 26.8462C524.879 26.8624 524.847 26.891 524.829 26.9115C525 26.7313 524.89 26.8667 524.843 26.9034C524.568 27.1114 524.27 27.3109 523.976 27.498C523.686 27.6726 523.398 27.8349 523.09 27.9886C522.95 28.0574 522.799 28.1219 522.648 28.1863C522.579 28.2145 522.511 28.2427 522.443 28.2709C522.335 28.311 522.648 28.1863 522.482 28.2589C522.428 28.279 522.389 28.2909 522.335 28.311C521.986 28.4352 521.63 28.5428 521.27 28.6213C520.91 28.6999 520.553 28.7246 520.185 28.7864C520.199 28.7783 520.394 28.7724 520.261 28.7749C520.21 28.7826 520.163 28.7779 520.113 28.7856C520.015 28.7885 519.918 28.7915 519.81 28.7902C519.629 28.788 519.449 28.7858 519.261 28.767C518.892 28.746 518.524 28.6835 518.162 28.5963C517.97 28.5484 517.69 28.6859 517.554 28.8251C517.415 28.9768 517.327 29.1621 517.289 29.3813C517.218 29.8487 517.454 30.3405 517.867 30.5029C518.665 30.8026 519.458 31.1146 520.235 31.4887C520.416 31.5737 520.583 31.6669 520.761 31.7643C520.772 31.7686 520.957 31.8827 520.833 31.8067C520.699 31.7263 520.884 31.8404 520.906 31.849C521 31.8998 521.091 31.9631 521.182 32.0263C521.549 32.267 521.898 32.5281 522.23 32.8097C522.288 32.8601 522.354 32.9272 522.412 32.9776C522.441 33.0028 522.478 33.0447 522.507 33.0699C522.565 33.1204 522.609 33.2203 522.47 33.0281C522.573 33.1785 522.722 33.2921 522.839 33.4344C523.066 33.7024 523.278 33.9784 523.461 34.2707C523.513 34.3459 523.564 34.4211 523.612 34.5087C523.627 34.542 523.652 34.5796 523.67 34.6005C523.755 34.73 523.637 34.5463 523.63 34.5296C523.704 34.6962 523.814 34.8633 523.902 35.0218C524.072 35.3637 524.23 35.7012 524.371 36.0592C524.434 36.2216 524.497 36.384 524.55 36.5421C524.576 36.6211 524.602 36.7002 524.635 36.7959C524.673 36.9206 524.568 36.563 524.624 36.7501C524.643 36.8125 524.654 36.8582 524.673 36.9206C524.777 37.2782 524.857 37.6397 524.936 38.0011C525.012 38.375 525.074 38.7569 525.125 39.1346C525.145 39.3213 525.165 39.508 525.185 39.6947C525.185 39.7362 525.186 39.7776 525.201 39.8109C525.18 39.5413 525.196 39.699 525.2 39.7695C525.205 39.8814 525.213 39.981 525.218 40.0929C525.259 40.9346 525.232 41.7629 525.157 42.5866C525.138 42.8267 525.111 43.0502 525.081 43.286C525.068 43.377 525.051 43.4803 525.048 43.5756C525.038 43.6542 525.032 43.7205 525.011 43.7948C525.021 43.7576 525.021 43.7162 525.031 43.679C525.017 43.7286 525.018 43.77 525.004 43.8196C524.922 44.2827 524.843 44.7334 524.74 45.1879C524.285 47.2791 523.598 49.2929 522.908 51.2776C522.757 51.7275 522.994 52.2607 523.357 52.4722C523.742 52.6924 524.191 52.5528 524.436 52.1538C526.169 49.3819 527.201 46.1416 528.73 43.2347C529.07 42.5841 529.431 41.9421 529.844 41.3338C529.929 41.2022 530.025 41.0749 530.107 40.9558C530.15 40.89 530.214 40.8328 530.26 40.7546C530.257 40.767 530.125 40.9353 530.217 40.8204C530.239 40.7875 530.274 40.7465 530.296 40.7136C530.499 40.4633 530.699 40.2254 530.909 39.9917C531.33 39.5244 531.788 39.099 532.268 38.7236C532.296 38.7074 532.328 38.6787 532.346 38.6582C532.185 38.8013 532.239 38.7398 532.285 38.7031C532.346 38.6582 532.407 38.6134 532.468 38.5686C532.59 38.4789 532.723 38.3934 532.855 38.308C533.106 38.1453 533.365 37.9993 533.616 37.878C533.77 37.8011 533.91 37.7324 534.072 37.6722C534.101 37.6559 534.126 37.6521 534.166 37.6402C533.921 37.7367 534.098 37.6683 534.141 37.644C534.22 37.6201 534.288 37.5919 534.367 37.568C534.659 37.4762 534.957 37.4011 535.26 37.355C535.336 37.3435 535.422 37.3363 535.498 37.3247C535.534 37.3252 535.559 37.3213 535.596 37.3218C535.769 37.3073 535.412 37.332 535.57 37.3256C535.729 37.3192 535.888 37.3129 536.054 37.3232C536.22 37.3335 536.375 37.3395 536.538 37.3621C536.607 37.3754 536.69 37.3806 536.759 37.3938C536.827 37.4071 537.146 37.4772 536.852 37.4032C537.08 37.4516 537.297 37.4956 537.505 37.3573C537.667 37.2556 537.792 37.1121 537.883 36.9143C538.056 36.5145 537.96 35.9125 537.582 35.6676C537.287 35.4693 536.996 35.2586 536.712 35.0231C536.585 34.918 536.472 34.8047 536.344 34.6996C536.279 34.6325 536.213 34.5654 536.144 34.5107C536.363 34.7206 536.118 34.4731 536.06 34.4227C535.571 33.8864 535.121 33.2968 534.732 32.6622C534.717 32.6289 534.691 32.5913 534.673 32.5704C534.592 32.4285 534.706 32.6246 534.713 32.6413C534.676 32.558 534.614 32.4785 534.566 32.3909C534.471 32.2157 534.382 32.0572 534.298 31.8863C534.128 31.5445 533.962 31.1902 533.825 30.8198C533.684 30.4618 533.554 30.108 533.427 29.7418C533.416 29.6961 533.405 29.6504 533.383 29.6004C533.39 29.6171 533.453 29.8209 533.401 29.6628C533.368 29.5671 533.345 29.4756 533.312 29.3799C533.256 29.1928 533.203 28.9933 533.158 28.8104C532.97 28.0623 532.835 27.2941 532.737 26.5263C532.717 26.3396 532.694 26.1653 532.674 25.9786C532.663 25.9329 532.666 25.8791 532.665 25.8376C532.649 25.68 532.673 25.8957 532.669 25.9081C532.668 25.7838 532.653 25.6676 532.648 25.5557C532.622 25.1741 532.611 24.7845 532.6 24.3949C532.571 22.6915 532.676 20.9856 532.85 19.293C532.945 18.3535 533.055 17.406 533.186 16.467C533.25 16.0244 533.31 15.5942 533.374 15.1516C533.412 14.9324 533.435 14.7214 533.472 14.5022C533.482 14.4236 533.536 14.0596 533.493 14.3864C533.513 14.2706 533.53 14.1673 533.551 14.0515C533.591 13.7785 533.607 13.5508 533.496 13.3008C533.4 13.0842 533.206 12.8706 532.996 12.8017C532.786 12.7329 532.537 12.7174 532.343 12.8477C532.146 12.9903 531.946 13.1868 531.913 13.435C531.378 16.8429 530.886 20.3093 530.886 23.7899C530.895 27.1091 531.475 30.5014 533.078 33.3467C533.99 34.9571 535.16 36.3801 536.621 37.3259C536.867 36.7487 537.103 36.1673 537.35 35.5902C536.648 35.4243 535.973 35.3788 535.255 35.4406C534.624 35.4951 534.008 35.6659 533.408 35.9114C532.24 36.3738 531.165 37.1481 530.232 38.0609C529.253 39.0104 528.413 40.1522 527.715 41.391C526.881 42.8519 526.197 44.4265 525.517 45.9887C524.756 47.753 523.983 49.513 522.978 51.1127C523.487 51.4089 523.998 51.6927 524.507 51.9889C525.744 48.403 527.008 44.6352 526.913 40.6769C526.839 37.3736 525.843 33.914 523.615 31.662C522.119 30.1523 520.234 29.3837 518.379 28.6818C518.285 29.3187 518.179 29.9514 518.085 30.5884C520.947 31.2321 523.852 30.1318 526.146 28.2824C528.691 26.2289 530.435 23.076 531.745 19.8763C532.509 18.0168 533.102 16.0764 533.529 14.0844C533.632 13.5884 533.438 12.9894 532.975 12.8346C532.558 12.6845 532.026 12.9019 531.913 13.435Z" fill="#231F20"/>
<path d="M494.881 29.0387C494.805 30.0431 494.704 31.0513 494.581 32.051C494.528 32.5406 494.465 33.0259 494.39 33.5069C494.357 33.7557 494.327 33.9921 494.282 34.2367C494.265 34.3404 494.245 34.4564 494.228 34.5601C494.201 34.7426 494.224 34.5725 494.231 34.5477C494.221 34.6265 494.211 34.7053 494.187 34.7923C493.879 36.7535 493.483 38.6806 493.019 40.5944C492.826 41.4146 492.603 42.2096 492.333 42.9999C492.269 43.182 492.206 43.364 492.132 43.5418C492.093 43.6369 492.055 43.7319 492.016 43.827C491.977 43.9221 491.989 44.0095 492.023 43.8022C492.016 43.8686 491.963 43.9303 491.945 43.9924C491.783 44.356 491.613 44.703 491.41 45.0371C491.314 45.2063 491.211 45.3589 491.104 45.5238C491.062 45.5897 490.994 45.6596 490.962 45.7298C491.058 45.5606 491.033 45.6476 490.998 45.6887C490.958 45.7422 490.923 45.7834 490.883 45.8369C490.63 46.1372 490.361 46.4041 490.064 46.6458C489.988 46.6989 489.92 46.7687 489.845 46.8219C489.863 46.8013 489.999 46.7032 489.877 46.7932C489.845 46.8219 489.813 46.8506 489.773 46.8626C489.619 46.9812 489.454 47.0956 489.289 47.21C488.976 47.4183 488.642 47.6179 488.311 47.8052C487.952 48.0087 487.588 48.1831 487.214 48.3533C487.019 48.4424 486.825 48.5315 486.623 48.604C486.58 48.6284 486.526 48.6485 486.486 48.6605C486.461 48.6644 486.295 48.7373 486.418 48.6888C486.551 48.6447 486.364 48.709 486.349 48.7171C486.295 48.7373 486.23 48.7531 486.173 48.7857C485.366 49.0754 484.547 49.3193 483.725 49.5341C483.371 49.6297 483.05 49.9998 483.058 50.4444C483.063 50.8599 483.285 51.3194 483.651 51.4358C484.352 51.6558 485.049 51.8882 485.736 52.1994C486.186 52.404 486.63 52.6335 487.06 52.8711C487.303 52.9944 487.536 53.1134 487.78 53.2367C487.856 53.2666 487.929 53.309 488.002 53.3514C488.023 53.36 488.034 53.3642 488.053 53.3852C488.136 53.4319 488.115 53.4233 487.991 53.3471C488.009 53.3681 488.064 53.3895 488.085 53.3981C488.249 53.5038 488.413 53.6096 488.57 53.7402C488.709 53.8498 488.844 53.9718 488.968 54.0896C489.008 54.1191 489.034 54.1568 489.074 54.1863C489.169 54.2788 488.906 54.0099 489.045 54.1611C489.118 54.245 489.184 54.3122 489.257 54.3962C489.514 54.6899 489.741 55 489.951 55.3306C489.977 55.3682 489.999 55.4183 490.025 55.456C490.117 55.6025 489.999 55.4183 489.991 55.4016C490.007 55.4766 490.106 55.5982 490.135 55.665C490.239 55.8573 490.331 56.0453 490.424 56.2333C490.598 56.605 490.765 57.0016 490.899 57.3853C490.966 57.5772 491.033 57.7691 491.09 57.9566C491.029 57.7399 491.161 58.1776 491.09 57.9566C491.101 58.0025 491.116 58.0359 491.127 58.0817C491.165 58.2068 491.202 58.3318 491.229 58.4526C491.342 58.8693 491.444 59.2817 491.532 59.7023C491.722 60.6184 491.87 61.5589 491.985 62.4866C492.048 62.9941 492.108 63.5141 492.16 64.0173C492.176 64.1338 492.181 64.246 492.197 64.3625C492.204 64.4208 492.209 64.4915 492.217 64.5497C492.226 64.7326 492.213 64.5621 492.213 64.5206C492.241 64.8075 492.248 65.0859 492.265 65.3686C492.402 67.684 492.358 69.9973 492.137 72.2961C492.084 72.7856 492.458 73.222 492.843 73.3178C493.296 73.4269 493.633 73.1317 493.809 72.6768C495.239 69.0877 495.452 65.0483 496.7 61.374C496.795 61.0801 496.911 60.7949 497.013 60.5177C497.045 60.4475 497.077 60.3772 497.098 60.3027C497.144 60.1828 496.992 60.5507 497.066 60.373C497.076 60.3357 497.094 60.3151 497.105 60.2779C497.172 60.1249 497.239 59.972 497.306 59.8191C497.582 59.2241 497.89 58.642 498.213 58.0932C498.391 57.8045 498.569 57.5158 498.758 57.2313C498.843 57.0994 498.925 56.9799 499.018 56.8647C499.06 56.7987 499.114 56.737 499.157 56.671C499.25 56.5558 499.118 56.7246 499.103 56.7327C499.139 56.6916 499.164 56.6462 499.199 56.605C499.592 56.1111 500.014 55.6424 500.48 55.2324C500.594 55.1258 500.72 55.0234 500.845 54.921C500.863 54.9004 501 54.8023 500.863 54.9004C500.738 55.0028 500.878 54.8923 500.906 54.876C500.967 54.831 501.028 54.786 501.1 54.7453C501.355 54.5696 501.628 54.4149 501.906 54.2894C501.978 54.2487 502.057 54.2247 502.125 54.1964C502.223 54.1518 501.938 54.2607 502.043 54.2328C502.082 54.2208 502.122 54.2088 502.165 54.1844C502.309 54.1445 502.443 54.1004 502.598 54.0648C502.739 54.0373 502.879 54.0099 503.017 53.9949C503.042 53.991 503.19 53.9803 503.031 53.9867C502.883 53.9975 503.006 53.9906 503.042 53.991C503.129 53.9837 503.212 53.9888 503.295 53.9939C503.657 53.9981 504.052 53.7535 504.145 53.335C504.242 52.9041 504.118 52.4831 503.797 52.2052C502.552 51.1232 501.154 50.326 499.891 49.2646C499.745 49.1383 499.599 49.012 499.457 48.8732C499.427 48.848 499.398 48.8227 499.369 48.7974C499.351 48.7764 499.233 48.6338 499.332 48.7554C499.431 48.8771 499.314 48.7345 499.296 48.7135C499.259 48.6715 499.211 48.6253 499.175 48.5833C498.904 48.2977 498.666 47.9834 498.445 47.6485C498.412 47.5941 498.379 47.5397 498.342 47.4978C498.265 47.3847 498.353 47.5436 498.375 47.5522C498.339 47.5517 498.246 47.3222 498.224 47.2721C498.124 47.0674 498.024 46.8627 497.939 46.6498C497.868 46.4704 497.801 46.2785 497.734 46.0867C497.7 45.9907 497.667 45.8948 497.633 45.7989C497.722 46.0408 497.667 45.8948 497.648 45.8323C497.629 45.7697 497.614 45.6948 497.584 45.628C497.362 44.8652 497.217 44.0909 497.111 43.3045C497.083 43.1007 497.063 42.9135 497.046 42.7139C497.035 42.6266 497.023 42.5392 497.025 42.4437C497.014 42.3978 497.017 42.3439 497.006 42.2981C496.989 42.0985 497.022 42.4976 497.002 42.3105C496.973 41.8989 496.957 41.4791 496.938 41.0718C496.88 39.3389 496.944 37.5991 496.958 35.867C496.962 33.5242 496.857 31.1801 496.514 28.8665C496.44 28.3547 495.919 27.9706 495.486 28.0902C495.013 28.2219 494.758 28.7008 494.833 29.2541C494.918 29.8117 494.99 30.3775 495.05 30.939C495.074 31.1968 495.11 31.459 495.123 31.7125C495.119 31.6834 495.11 31.5005 495.119 31.6834C495.127 31.7416 495.132 31.8123 495.139 31.8706C495.148 32.0119 495.157 32.1532 495.169 32.2821C495.23 33.2715 495.255 34.2605 495.255 35.2533C495.264 37.0355 495.2 38.8168 495.233 40.5951C495.266 42.2903 495.4 44.0117 495.823 45.6533C496.049 46.5282 496.327 47.437 496.762 48.2147C497.223 49.0716 497.799 49.7803 498.478 50.4196C499.834 51.7106 501.457 52.5686 502.859 53.7812C503.026 53.1849 503.193 52.5887 503.364 51.98C500.744 51.9164 498.626 54.0769 497.163 56.3156C496.405 57.4658 495.782 58.738 495.279 60.0573C494.632 61.7613 494.239 63.5928 493.875 65.408C493.418 67.6418 492.994 69.8883 492.166 71.9765C492.725 72.0993 493.279 72.2345 493.838 72.3573C494.036 70.2701 494.086 68.1521 493.998 66.0492C493.903 63.9295 493.692 61.7919 493.297 59.7061C492.956 57.945 492.452 56.1613 491.6 54.6269C491.132 53.7948 490.61 53.0659 489.941 52.4309C489.353 51.855 488.669 51.4898 487.971 51.1328C487.461 50.8776 486.97 50.6019 486.458 50.3592C485.698 50.0056 484.924 49.7433 484.137 49.489C484.115 50.1285 484.085 50.7513 484.063 51.3907C485.603 50.989 487.135 50.4875 488.589 49.7484C490.031 49.0049 491.446 48.0576 492.459 46.6486C493.431 45.2932 494.01 43.576 494.448 41.8862C494.948 39.9728 495.35 38.021 495.68 36.0682C496.071 33.7673 496.364 31.4278 496.549 29.0871C496.583 28.5765 496.173 28.0567 495.728 28.0473C495.287 28.1087 494.915 28.4866 494.881 29.0387Z" fill="#231F20"/>
<path d="M529.481 69.1928C529.442 69.9346 529.37 70.6635 529.258 71.4045C529.272 71.3134 529.282 71.2347 529.295 71.1436C529.072 72.584 528.697 74.0059 528.147 75.3179C528.182 75.2354 528.214 75.1653 528.249 75.0828C527.805 76.1473 527.249 77.14 526.579 78.0193C526.632 77.9578 526.675 77.892 526.729 77.8304C526.404 78.2536 526.062 78.6559 525.683 79.0162C525.497 79.2048 525.289 79.3847 525.085 79.5523C524.992 79.6258 524.899 79.6994 524.806 79.7729C525.053 79.5809 524.852 79.7361 524.792 79.781C524.731 79.8259 524.67 79.8708 524.612 79.9032C524.189 80.205 523.733 80.4525 523.273 80.6709C523.162 80.7235 523.039 80.7718 522.928 80.8244C522.86 80.8526 522.629 80.941 522.914 80.8325C522.849 80.8483 522.791 80.8808 522.723 80.909C522.468 81.0013 522.205 81.077 521.942 81.1526C521.448 81.2752 520.965 81.3607 520.46 81.3961C520.536 81.3846 520.608 81.3854 520.684 81.3739C520.326 81.3987 519.969 81.4234 519.608 81.4606C519.359 81.4866 519.125 81.5045 518.909 81.6264C518.428 81.8777 518.302 82.5852 518.589 83.0697C518.736 83.3202 518.983 83.4725 519.19 83.6367C519.544 83.927 519.89 84.2421 520.219 84.5778C520.164 84.5149 520.106 84.4645 520.051 84.4016C520.942 85.3162 521.765 86.342 522.441 87.4613C522.456 87.4947 522.474 87.5156 522.489 87.549C522.349 87.3151 522.405 87.4194 522.441 87.4613C522.482 87.5323 522.515 87.5866 522.555 87.6576C522.629 87.7829 522.699 87.9205 522.761 88.0415C522.876 88.2793 522.99 88.517 523.087 88.7752C523.139 88.8919 523.176 89.0168 523.224 89.1459C523.243 89.2083 523.262 89.2707 523.28 89.3332C523.299 89.3956 523.329 89.5038 523.24 89.2207C523.251 89.2665 523.266 89.2998 523.277 89.3456C523.352 89.5953 523.423 89.8574 523.469 90.1233C523.609 90.7428 523.685 91.3781 523.746 92.0216C523.734 91.9343 523.733 91.8514 523.721 91.7642C523.906 94.2046 523.62 96.6393 523.331 99.045C523.248 99.6867 523.175 100.333 523.102 100.979C523.076 101.202 523.191 101.523 523.315 101.682C523.451 101.845 523.614 101.951 523.806 101.999C524.226 102.095 524.628 101.826 524.771 101.359C525.093 100.343 525.415 99.327 525.74 98.2984C526.051 97.3194 526.333 96.3152 526.731 95.3704C526.696 95.4529 526.664 95.523 526.629 95.6055C526.978 94.7928 527.381 94.0015 527.811 93.2478C528.023 92.8771 528.247 92.5108 528.471 92.1444C528.663 91.8482 528.847 91.5352 529.061 91.2475C529.007 91.3091 528.965 91.3749 528.911 91.4365C529.175 91.0996 529.475 90.8047 529.801 90.5473C529.848 90.5106 529.894 90.4738 529.944 90.4246C530.052 90.343 529.747 90.5674 529.916 90.4409C530.023 90.3592 530.127 90.29 530.235 90.2083C530.432 90.0656 530.636 89.9395 530.841 89.8134C531.275 89.5573 531.728 89.3222 532.188 89.1038C532.299 89.0513 532.407 89.0111 532.519 88.9585C532.573 88.9384 532.627 88.9183 532.684 88.8858C532.713 88.8696 532.742 88.8533 532.778 88.8538C532.738 88.8657 532.573 88.9384 532.698 88.8777C532.914 88.7974 533.141 88.7213 533.357 88.641C533.793 88.5093 534.236 88.3944 534.69 88.3666C534.615 88.3782 534.542 88.3773 534.467 88.3889C534.503 88.3893 534.539 88.3897 534.579 88.3777C534.799 88.3679 535.018 88.3167 535.186 88.1487C535.326 87.9969 535.414 87.8114 535.452 87.592C535.526 87.1119 535.286 86.6322 534.873 86.4697C534.688 86.397 534.506 86.3119 534.339 86.2187C534.412 86.261 534.474 86.2991 534.546 86.3414C534.205 86.1383 533.877 85.8856 533.585 85.5918C533.64 85.6547 533.698 85.7051 533.753 85.768C533.574 85.5875 533.41 85.399 533.263 85.1899C533.183 85.0894 533.116 84.9808 533.036 84.8803C533.003 84.826 532.959 84.7674 532.926 84.7131C532.908 84.6922 532.893 84.6588 532.874 84.6379C532.867 84.6212 532.86 84.6045 532.849 84.6003C532.794 84.4959 532.93 84.7422 532.922 84.7255C532.65 84.233 532.406 83.7242 532.195 83.1868C532.15 83.0452 532.091 82.9119 532.046 82.7703C532.027 82.7079 532.001 82.6288 531.982 82.5664C531.93 82.4082 532.035 82.7246 532.016 82.6622C532.005 82.6164 531.99 82.5831 531.979 82.5373C531.882 82.2376 531.81 81.934 531.727 81.6262C531.569 80.9857 531.45 80.3333 531.356 79.6771C531.244 78.9169 531.16 78.1405 531.098 77.3726C531.109 77.4598 531.11 77.5428 531.122 77.63C530.947 75.3722 530.959 73.0917 531.076 70.8249C531.103 70.2986 531.138 69.789 531.176 69.267C531.21 68.7574 530.8 68.2383 530.356 68.2288C529.887 68.2647 529.515 68.6417 529.481 69.1928C529.392 70.4109 529.326 71.6375 529.306 72.8688C529.278 74.3031 529.304 75.7589 529.395 77.1988C529.501 78.7136 529.665 80.2373 529.998 81.7175C530.29 83.0437 530.709 84.3922 531.363 85.5445C531.68 86.0956 532.025 86.6305 532.456 87.0752C532.934 87.5661 533.429 87.9535 534.021 88.255C534.137 88.3144 534.257 88.3615 534.366 88.4042C534.46 87.7668 534.565 87.1336 534.66 86.4962C533.656 86.5422 532.71 86.8585 531.779 87.2496C530.847 87.6406 529.935 88.1356 529.107 88.7602C528.695 89.0662 528.305 89.3808 527.951 89.7788C527.541 90.2508 527.204 90.8065 526.87 91.3499C526.064 92.6713 525.327 94.0474 524.797 95.5463C524.499 96.3927 524.241 97.2687 523.975 98.128C523.703 99.0122 523.423 99.8796 523.151 100.764C523.708 100.886 524.262 101.022 524.82 101.144C525.121 98.5232 525.53 95.9034 525.503 93.2492C525.481 91.9055 525.373 90.5275 525.013 89.2295C524.836 88.5681 524.606 87.9268 524.318 87.3179C523.978 86.6338 523.57 85.9779 523.138 85.3674C522.665 84.6858 522.145 84.041 521.587 83.4497C521.272 83.1059 520.94 82.7827 520.594 82.4675C520.313 82.2195 520.026 81.9963 519.741 81.7607C519.796 81.8236 519.855 81.874 519.909 81.9369C519.976 82.0869 520.035 82.2203 520.102 82.3704C520.114 82.4576 520.114 82.5406 520.126 82.6278C520.113 82.7189 520.103 82.7975 520.089 82.8886C520.054 82.9711 520.022 83.0412 519.987 83.1237C519.933 83.1853 519.891 83.2511 519.837 83.3127C519.741 83.3986 519.615 83.5007 519.503 83.5118C519.529 83.508 519.543 83.4999 519.568 83.496C519.633 83.4802 519.694 83.4768 519.759 83.461C519.936 83.4341 520.12 83.4238 520.304 83.4136C520.228 83.4251 520.156 83.4243 520.08 83.4358C520.586 83.4004 521.102 83.3692 521.61 83.28C522.194 83.1791 522.759 83.0159 523.313 82.8069C524.493 82.3483 525.584 81.6896 526.547 80.8013C528.396 79.1192 529.678 76.7046 530.41 74.1425C530.842 72.6052 531.092 70.9827 531.184 69.3666C531.207 68.8527 530.823 68.3298 530.364 68.3285C529.897 68.269 529.504 68.6375 529.481 69.1928Z" fill="#231F20"/>
<path d="M549.79 38.9284C549.748 39.4196 549.695 39.9065 549.632 40.3892C549.601 40.6243 549.568 40.8718 549.534 41.1193C549.524 41.1977 549.481 41.5649 549.514 41.276C549.498 41.4205 549.47 41.5606 549.446 41.6884C549.28 42.6656 549.088 43.6466 548.863 44.6148C548.41 46.5636 547.857 48.4863 547.202 50.3417C547.037 50.7983 546.872 51.2549 546.704 51.7239C546.623 51.9254 546.549 52.1434 546.469 52.3449C546.43 52.4395 546.391 52.534 546.349 52.6409C546.335 52.6903 546.31 52.7355 546.3 52.7726C546.268 52.8424 546.29 52.8096 546.342 52.6656C546.332 52.7027 546.31 52.7355 546.3 52.7726C545.98 53.5247 545.609 54.2432 545.208 54.9366C545.003 55.2811 544.787 55.6214 544.563 55.9451C544.446 56.1048 544.339 56.2687 544.222 56.4284C544.197 56.4736 544.165 56.5021 544.14 56.5472C544.271 56.3381 544.201 56.4612 544.161 56.5144C544.09 56.5962 544.026 56.6946 543.955 56.7763C543.457 57.39 542.926 57.9495 542.336 58.4587C542.176 58.6013 542.004 58.7397 541.836 58.8657C541.79 58.9023 541.707 58.9385 541.883 58.8291C541.836 58.8657 541.779 58.8981 541.732 58.9347C541.643 58.9956 541.564 59.0607 541.475 59.1216C541.132 59.357 540.784 59.5634 540.415 59.7613C540.232 59.8541 540.05 59.9469 539.856 60.0354C539.759 60.0797 539.655 60.1073 539.569 60.1558C539.755 60.0507 539.677 60.1158 539.609 60.1439C539.555 60.1639 539.501 60.1839 539.436 60.1996C539.049 60.3353 538.643 60.4502 538.236 60.5237C537.88 60.5895 537.571 61.003 537.572 61.4286C537.573 61.5939 537.597 61.7677 537.663 61.9173C537.741 62.1125 537.97 62.3673 538.161 62.4151C538.916 62.6021 539.657 62.8385 540.377 63.149C540.731 63.3021 541.071 63.4633 541.419 63.6411C541.502 63.6876 541.596 63.7383 541.68 63.7848C541.741 63.8228 542.053 64.0001 541.785 63.8398C541.959 63.9494 542.136 64.0466 542.31 64.1562C542.977 64.5693 543.626 65.0442 544.24 65.56C544.552 65.82 544.861 66.0924 545.152 66.3852C545.218 66.4522 545.276 66.5024 545.342 66.5694C545.378 66.6111 545.418 66.6406 545.454 66.6823C545.254 66.4939 545.389 66.6154 545.436 66.6614C545.585 66.8161 545.724 66.9666 545.873 67.1213C546.434 67.7398 546.962 68.3867 547.445 69.0703C547.686 69.4121 547.916 69.7496 548.128 70.1075C548.187 70.1992 548.245 70.2908 548.304 70.3824C548.326 70.4322 548.363 70.474 548.385 70.5239C548.253 70.3074 548.311 70.399 548.344 70.4531C548.465 70.6653 548.579 70.861 548.689 71.0689C549.085 71.801 549.446 72.574 549.756 73.3546C549.919 73.7615 550.067 74.1765 550.212 74.6039C550.234 74.695 550.271 74.7781 550.293 74.8693C550.186 74.5664 550.312 74.9315 550.327 75.0061C550.387 75.2217 550.447 75.4373 550.507 75.6529C550.75 76.5855 550.939 77.5382 551.057 78.49C551.085 78.7341 551.112 78.9782 551.132 79.2057C551.149 79.4042 551.116 78.9658 551.128 79.1767C551.133 79.247 551.134 79.3297 551.138 79.4C551.143 79.5116 551.147 79.6232 551.152 79.7348C551.179 80.2392 551.18 80.7475 551.16 81.2472C551.147 81.7635 551.519 82.2804 551.977 82.2819C552.193 82.2846 552.427 82.2255 552.583 82.0539C552.758 81.8619 552.831 81.6438 552.872 81.3716C552.875 81.3592 552.909 81.1117 552.889 81.2685C552.869 81.4252 552.899 81.1901 552.902 81.1778C552.916 81.087 552.929 80.9963 552.943 80.9056C552.977 80.6994 553.011 80.4932 553.056 80.2913C553.121 79.9739 553.186 79.6566 553.262 79.3435C553.387 78.8575 553.537 78.3676 553.662 77.8816C553.833 77.2763 553.967 76.6706 554.083 76.044C554.169 75.5699 554.243 75.0915 554.318 74.6132C554.362 74.3286 554.406 74.0441 554.453 73.7472C554.456 73.6935 554.47 73.6441 554.473 73.5904C554.507 73.3429 554.453 73.7471 554.473 73.5904C554.501 73.4502 554.514 73.3182 554.541 73.178C554.691 72.2626 554.855 71.3391 555.083 70.4412C555.201 69.9799 555.327 69.5352 555.488 69.0909C555.558 68.8852 555.631 68.6671 555.723 68.4699C555.607 68.7122 555.779 68.3549 555.793 68.3055C555.85 68.1905 555.892 68.0836 555.949 67.9686C556.122 67.6113 556.324 67.2791 556.533 66.9635C556.622 66.82 556.721 66.6807 556.82 66.5415C556.863 66.4759 556.906 66.4103 556.956 66.3613C556.98 66.3162 557.012 66.2877 557.037 66.2425C557.169 66.0747 556.977 66.3285 557.034 66.2549C557.479 65.7026 557.949 65.1877 558.463 64.7313C558.606 64.6091 558.796 64.4916 558.931 64.3528C558.917 64.3609 558.763 64.4788 558.885 64.3894C558.931 64.3528 558.974 64.3286 559.021 64.2919C559.096 64.2391 559.171 64.1864 559.246 64.1336C559.557 63.9267 559.876 63.7364 560.213 63.567C560.381 63.4823 560.561 63.4019 560.74 63.3215C560.876 63.2653 560.697 63.3457 560.686 63.3415C560.736 63.3338 560.783 63.2972 560.833 63.2896C560.927 63.2577 561.02 63.2258 561.102 63.1896C561.461 63.0701 561.821 62.9919 562.198 62.9346C562.551 62.8811 562.867 62.4428 562.863 62.0296C562.859 61.575 562.635 61.2128 562.273 61.0431C561.901 60.8691 561.531 60.6827 561.166 60.484C561.082 60.4375 560.999 60.3911 560.916 60.3446C560.872 60.3275 560.836 60.2858 560.793 60.2687C561.013 60.3416 560.865 60.3109 560.803 60.273C560.619 60.1591 560.43 60.0576 560.256 59.9481C559.56 59.5098 558.886 59.0387 558.247 58.5267C557.924 58.2624 557.611 58.0024 557.306 57.7177C557.164 57.5796 557.019 57.4538 556.866 57.3115C556.848 57.2906 556.648 57.1022 556.648 57.1022C556.677 57.1273 556.702 57.1648 556.732 57.19C556.702 57.1648 556.677 57.1273 556.648 57.1022C556.611 57.0604 556.564 57.0144 556.528 56.9726C555.942 56.358 555.402 55.7068 554.902 55.0024C554.653 54.644 554.405 54.2855 554.185 53.911C554.159 53.8735 554.145 53.8402 554.119 53.8027C554.141 53.8526 554.262 54.0235 554.119 53.8027C554.071 53.7154 554.013 53.6237 553.965 53.5364C553.852 53.3408 553.752 53.1371 553.653 52.9334C553.462 52.5427 553.274 52.1396 553.112 51.7326C552.942 51.3091 552.811 50.8736 552.652 50.4544C552.749 50.7117 552.634 50.3922 552.619 50.3176C552.589 50.2098 552.555 50.1144 552.525 50.0066C552.458 49.7744 552.402 49.5464 552.346 49.3185C552.233 48.8626 552.146 48.4029 552.058 47.9432C551.894 47.028 551.781 46.1052 551.696 45.1662C551.696 45.1249 551.684 45.0793 551.684 45.038C551.683 44.9967 551.672 44.9511 551.672 44.9098C551.68 45.0503 551.688 45.067 551.68 44.9677C551.667 44.8394 551.659 44.6989 551.647 44.5706C551.634 44.3184 551.62 44.0662 551.607 43.814C551.584 43.2973 551.564 42.7681 551.552 42.2556C551.527 41.1893 551.524 40.1315 551.52 39.0737C551.519 38.5655 551.172 38.0447 550.703 38.039C550.231 38.0042 549.788 38.3789 549.79 38.9284C549.789 42.7834 549.799 46.7667 550.859 50.4901C551.396 52.3891 552.188 54.1549 553.252 55.7671C554.258 57.2876 555.485 58.6208 556.815 59.761C558.329 61.0564 560 62.0976 561.748 62.9083C561.77 62.2723 561.8 61.6529 561.823 61.0169C558.967 61.4444 556.47 63.5498 554.883 66.2325C553.916 67.8692 553.405 69.7677 553.068 71.6931C552.976 72.2332 552.888 72.761 552.807 73.3054C552.783 73.4332 552.773 73.5529 552.749 73.6807C552.746 73.7344 552.732 73.7838 552.729 73.8375C552.695 74.085 552.749 73.6807 552.725 73.8498C552.692 74.0973 552.644 74.3529 552.61 74.6004C552.481 75.359 552.352 76.1177 552.157 76.8508C552.011 77.4109 551.844 77.9625 551.698 78.5227C551.473 79.4082 551.313 80.3194 551.174 81.2391C551.74 81.2833 552.309 81.3151 552.886 81.3635C552.997 77.6751 552.118 73.9539 550.49 70.7482C548.866 67.5301 546.523 64.7287 543.727 62.8473C542.168 61.7952 540.467 60.9891 538.705 60.5708C538.683 61.2068 538.653 61.8262 538.63 62.4622C541.768 61.8439 544.415 59.5503 546.27 56.685C547.232 55.197 547.939 53.5406 548.556 51.8211C549.247 49.9248 549.84 47.9902 550.325 46.0129C550.879 43.7472 551.302 41.4303 551.517 39.0861C551.562 38.5825 551.143 38.0609 550.7 38.0513C550.195 38.0038 549.846 38.3879 549.79 38.9284Z" fill="#231F20"/>
</svg>
