<svg width="35" height="35" viewBox="0 0 35 35" fill="none" xmlns="http://www.w3.org/2000/svg">
<g clip-path="url(#clip0_228_143)">
<path d="M10.2521 0.122772C8.39011 0.210622 7.11856 0.507772 6.00696 0.944572C4.85651 1.39292 3.88141 1.99457 2.91121 2.96827C1.94101 3.94197 1.34356 4.91777 0.898356 6.06997C0.467506 7.18402 0.175606 8.45662 0.0933563 10.3197C0.0111063 12.1827 -0.00709369 12.7816 0.00200631 17.5339C0.0111063 22.2862 0.0321063 22.8819 0.122406 24.7488C0.211306 26.6104 0.507406 27.8816 0.944206 28.9936C1.39326 30.144 1.99421 31.1188 2.96826 32.0893C3.94231 33.0599 4.91741 33.6559 6.07241 34.1018C7.18541 34.532 8.45836 34.8253 10.3211 34.9068C12.1838 34.9884 12.7833 35.0073 17.5342 34.9982C22.2851 34.9891 22.8833 34.9681 24.7498 34.8795C26.6164 34.791 27.8809 34.4928 28.9932 34.0581C30.1437 33.608 31.1191 33.0081 32.089 32.0337C33.0588 31.0593 33.6559 30.0828 34.1008 28.9299C34.532 27.8169 34.8249 26.5439 34.9058 24.6826C34.9873 22.8147 35.0066 22.2183 34.9975 17.4667C34.9884 12.7151 34.967 12.1194 34.8785 10.2532C34.7899 8.38697 34.4935 7.11962 34.057 6.00697C33.6073 4.85652 33.007 3.88247 32.0333 2.91122C31.0596 1.93997 30.0824 1.34322 28.9299 0.899422C27.8162 0.468572 26.5439 0.174922 24.6812 0.0944223C22.8185 0.0139223 22.219 -0.00672771 17.4663 0.00237229C12.7137 0.0114723 12.1187 0.0317723 10.2521 0.122772ZM10.4565 31.7586C8.75026 31.6844 7.82381 31.4009 7.20641 31.1636C6.38881 30.8486 5.80641 30.4678 5.19111 29.8584C4.57581 29.2491 4.19781 28.6646 3.87861 27.8487C3.63886 27.2313 3.35011 26.3059 3.27031 24.5997C3.18351 22.7555 3.16531 22.2018 3.15516 17.5297C3.14501 12.8575 3.16286 12.3045 3.24371 10.4597C3.31651 8.75482 3.60176 7.82732 3.83871 7.21027C4.15371 6.39162 4.53311 5.81027 5.14386 5.19532C5.75461 4.58037 6.33736 4.20167 7.15391 3.88247C7.77061 3.64167 8.69601 3.35537 10.4016 3.27417C12.2471 3.18667 12.8001 3.16917 17.4716 3.15902C22.143 3.14887 22.6974 3.16637 24.5437 3.24757C26.2485 3.32177 27.1764 3.60422 27.7927 3.84257C28.6107 4.15757 29.1927 4.53592 29.8077 5.14772C30.4226 5.75952 30.8017 6.34017 31.1209 7.15847C31.362 7.77342 31.6483 8.69847 31.7288 10.4051C31.8167 12.2506 31.8366 12.804 31.845 17.4751C31.8534 22.1462 31.837 22.7009 31.7561 24.5451C31.6816 26.2513 31.3988 27.1781 31.1611 27.7962C30.8461 28.6135 30.4664 29.1962 29.8553 29.8108C29.2442 30.4254 28.6621 30.8041 27.8452 31.1233C27.2292 31.3638 26.3028 31.6508 24.5986 31.732C22.7531 31.8188 22.2001 31.837 17.5269 31.8471C12.8537 31.8573 12.3024 31.8384 10.4569 31.7586M24.7229 8.14722C24.7235 8.56259 24.8474 8.96843 25.0788 9.3134C25.3101 9.65837 25.6386 9.92699 26.0226 10.0853C26.4066 10.2436 26.829 10.2844 27.2362 10.2026C27.6435 10.1209 28.0173 9.92017 28.3105 9.62592C28.6037 9.33167 28.803 8.95709 28.8833 8.54955C28.9635 8.14201 28.9211 7.71981 28.7615 7.33637C28.6018 6.95292 28.332 6.62544 27.9861 6.39535C27.6403 6.16526 27.234 6.04289 26.8187 6.04372C26.2618 6.04484 25.7282 6.26706 25.3352 6.66152C24.9422 7.05598 24.7219 7.59039 24.7229 8.14722ZM8.51436 17.5178C8.52416 22.4808 12.5548 26.4949 17.5167 26.4855C22.4787 26.476 26.4956 22.4458 26.4862 17.4828C26.4767 12.5198 22.4451 8.50457 17.4824 8.51437C12.5198 8.52417 8.50491 12.5555 8.51436 17.5178ZM11.6665 17.5115C11.6642 16.3577 12.0041 15.2292 12.6432 14.2686C13.2822 13.3081 14.1918 12.5586 15.2569 12.115C16.3219 11.6713 17.4946 11.5535 18.6266 11.7763C19.7586 11.9992 20.7992 12.5527 21.6166 13.3669C22.434 14.1811 22.9917 15.2194 23.219 16.3506C23.4463 17.4817 23.3331 18.6548 22.8937 19.7216C22.4543 20.7884 21.7084 21.701 20.7504 22.3438C19.7924 22.9867 18.6652 23.3311 17.5115 23.3334C16.7454 23.335 15.9865 23.1857 15.2781 22.8939C14.5697 22.6022 13.9258 22.1738 13.383 21.6332C12.8402 21.0925 12.4093 20.4503 12.1147 19.7431C11.8202 19.0359 11.6679 18.2776 11.6665 17.5115Z" fill="black"/>
</g>
<defs>
<clipPath id="clip0_228_143">
<rect width="35" height="35" fill="white"/>
</clipPath>
</defs>
</svg>
