<svg width="195" height="50" viewBox="0 0 195 50" fill="none" xmlns="http://www.w3.org/2000/svg">
<g filter="url(#filter0_d_221_19)">
<rect width="191" height="46" rx="4" fill="#9BC588"/>
<path d="M21.3407 28.644C20.9687 28.644 20.6807 28.542 20.4767 28.338C20.2847 28.122 20.1887 27.828 20.1887 27.456V16.854C20.1887 16.47 20.2847 16.176 20.4767 15.972C20.6807 15.768 20.9687 15.666 21.3407 15.666C21.7127 15.666 21.9947 15.768 22.1867 15.972C22.3907 16.176 22.4927 16.47 22.4927 16.854V27.456C22.4927 27.828 22.3967 28.122 22.2047 28.338C22.0127 28.542 21.7247 28.644 21.3407 28.644ZM26.1688 28.644C25.8088 28.644 25.5328 28.548 25.3408 28.356C25.1488 28.152 25.0528 27.864 25.0528 27.492V20.688C25.0528 20.316 25.1488 20.034 25.3408 19.842C25.5328 19.65 25.8028 19.554 26.1508 19.554C26.4988 19.554 26.7688 19.65 26.9608 19.842C27.1528 20.034 27.2488 20.316 27.2488 20.688V21.912L27.0508 21.462C27.3148 20.826 27.7228 20.346 28.2748 20.022C28.8388 19.686 29.4748 19.518 30.1828 19.518C30.8908 19.518 31.4728 19.65 31.9288 19.914C32.3848 20.178 32.7268 20.58 32.9548 21.12C33.1828 21.648 33.2968 22.32 33.2968 23.136V27.492C33.2968 27.864 33.2008 28.152 33.0088 28.356C32.8168 28.548 32.5408 28.644 32.1808 28.644C31.8208 28.644 31.5388 28.548 31.3348 28.356C31.1428 28.152 31.0468 27.864 31.0468 27.492V23.244C31.0468 22.56 30.9148 22.062 30.6508 21.75C30.3988 21.438 30.0028 21.282 29.4628 21.282C28.8028 21.282 28.2748 21.492 27.8788 21.912C27.4948 22.32 27.3028 22.866 27.3028 23.55V27.492C27.3028 28.26 26.9248 28.644 26.1688 28.644ZM38.8041 28.68C38.2881 28.68 37.7421 28.626 37.1661 28.518C36.5901 28.41 36.0741 28.224 35.6181 27.96C35.4261 27.84 35.2881 27.702 35.2041 27.546C35.1321 27.378 35.1021 27.216 35.1141 27.06C35.1381 26.892 35.1981 26.748 35.2941 26.628C35.4021 26.508 35.5341 26.43 35.6901 26.394C35.8581 26.358 36.0381 26.388 36.2301 26.484C36.7101 26.712 37.1601 26.874 37.5801 26.97C38.0001 27.054 38.4141 27.096 38.8221 27.096C39.3981 27.096 39.8241 27 40.1001 26.808C40.3881 26.604 40.5321 26.34 40.5321 26.016C40.5321 25.74 40.4361 25.53 40.2441 25.386C40.0641 25.23 39.7881 25.116 39.4161 25.044L37.6161 24.702C36.8721 24.558 36.3021 24.288 35.9061 23.892C35.5221 23.484 35.3301 22.962 35.3301 22.326C35.3301 21.75 35.4861 21.252 35.7981 20.832C36.1221 20.412 36.5661 20.088 37.1301 19.86C37.6941 19.632 38.3421 19.518 39.0741 19.518C39.6021 19.518 40.0941 19.578 40.5501 19.698C41.0181 19.806 41.4681 19.98 41.9001 20.22C42.0801 20.316 42.2001 20.442 42.2601 20.598C42.3321 20.754 42.3501 20.916 42.3141 21.084C42.2781 21.24 42.2061 21.384 42.0981 21.516C41.9901 21.636 41.8521 21.714 41.6841 21.75C41.5281 21.774 41.3481 21.738 41.1441 21.642C40.7721 21.45 40.4121 21.312 40.0641 21.228C39.7281 21.144 39.4041 21.102 39.0921 21.102C38.5041 21.102 38.0661 21.204 37.7781 21.408C37.5021 21.612 37.3641 21.882 37.3641 22.218C37.3641 22.47 37.4481 22.68 37.6161 22.848C37.7841 23.016 38.0421 23.13 38.3901 23.19L40.1901 23.532C40.9701 23.676 41.5581 23.94 41.9541 24.324C42.3621 24.708 42.5661 25.224 42.5661 25.872C42.5661 26.748 42.2241 27.438 41.5401 27.942C40.8561 28.434 39.9441 28.68 38.8041 28.68ZM48.3153 28.68C47.5353 28.68 46.8813 28.548 46.3533 28.284C45.8373 28.02 45.4533 27.636 45.2013 27.132C44.9493 26.616 44.8233 25.98 44.8233 25.224V21.39H43.8873C43.5993 21.39 43.3773 21.318 43.2213 21.174C43.0653 21.018 42.9873 20.808 42.9873 20.544C42.9873 20.268 43.0653 20.058 43.2213 19.914C43.3773 19.77 43.5993 19.698 43.8873 19.698H44.8233V18.06C44.8233 17.688 44.9193 17.406 45.1113 17.214C45.3153 17.022 45.5973 16.926 45.9573 16.926C46.3173 16.926 46.5933 17.022 46.7853 17.214C46.9773 17.406 47.0733 17.688 47.0733 18.06V19.698H48.9813C49.2693 19.698 49.4913 19.77 49.6473 19.914C49.8033 20.058 49.8813 20.268 49.8813 20.544C49.8813 20.808 49.8033 21.018 49.6473 21.174C49.4913 21.318 49.2693 21.39 48.9813 21.39H47.0733V25.098C47.0733 25.674 47.1993 26.106 47.4513 26.394C47.7033 26.682 48.1113 26.826 48.6753 26.826C48.8793 26.826 49.0593 26.808 49.2153 26.772C49.3713 26.736 49.5093 26.712 49.6293 26.7C49.7733 26.688 49.8933 26.736 49.9893 26.844C50.0853 26.94 50.1333 27.144 50.1333 27.456C50.1333 27.696 50.0913 27.912 50.0073 28.104C49.9353 28.284 49.7973 28.41 49.5933 28.482C49.4373 28.53 49.2333 28.572 48.9813 28.608C48.7293 28.656 48.5073 28.68 48.3153 28.68ZM54.0895 28.68C53.4535 28.68 52.8835 28.56 52.3795 28.32C51.8875 28.068 51.4975 27.732 51.2095 27.312C50.9335 26.892 50.7955 26.418 50.7955 25.89C50.7955 25.242 50.9635 24.732 51.2995 24.36C51.6355 23.976 52.1815 23.7 52.9375 23.532C53.6935 23.364 54.7075 23.28 55.9795 23.28H56.8795V24.576H55.9975C55.2535 24.576 54.6595 24.612 54.2155 24.684C53.7715 24.756 53.4535 24.882 53.2615 25.062C53.0815 25.23 52.9915 25.47 52.9915 25.782C52.9915 26.178 53.1295 26.502 53.4055 26.754C53.6815 27.006 54.0655 27.132 54.5575 27.132C54.9535 27.132 55.3015 27.042 55.6015 26.862C55.9135 26.67 56.1595 26.412 56.3395 26.088C56.5195 25.764 56.6095 25.392 56.6095 24.972V22.902C56.6095 22.302 56.4775 21.87 56.2135 21.606C55.9495 21.342 55.5055 21.21 54.8815 21.21C54.5335 21.21 54.1555 21.252 53.7475 21.336C53.3515 21.42 52.9315 21.564 52.4875 21.768C52.2595 21.876 52.0555 21.906 51.8755 21.858C51.7075 21.81 51.5755 21.714 51.4795 21.57C51.3835 21.414 51.3355 21.246 51.3355 21.066C51.3355 20.886 51.3835 20.712 51.4795 20.544C51.5755 20.364 51.7375 20.232 51.9655 20.148C52.5175 19.92 53.0455 19.758 53.5495 19.662C54.0655 19.566 54.5335 19.518 54.9535 19.518C55.8175 19.518 56.5255 19.65 57.0775 19.914C57.6415 20.178 58.0615 20.58 58.3375 21.12C58.6135 21.648 58.7515 22.332 58.7515 23.172V27.492C58.7515 27.864 58.6615 28.152 58.4815 28.356C58.3015 28.548 58.0435 28.644 57.7075 28.644C57.3715 28.644 57.1075 28.548 56.9155 28.356C56.7355 28.152 56.6455 27.864 56.6455 27.492V26.628H56.7895C56.7055 27.048 56.5375 27.414 56.2855 27.726C56.0455 28.026 55.7395 28.26 55.3675 28.428C54.9955 28.596 54.5695 28.68 54.0895 28.68ZM64.0412 28.68C63.0452 28.68 62.2952 28.398 61.7912 27.834C61.2872 27.258 61.0352 26.418 61.0352 25.314V16.8C61.0352 16.428 61.1312 16.146 61.3232 15.954C61.5152 15.762 61.7912 15.666 62.1512 15.666C62.5112 15.666 62.7872 15.762 62.9792 15.954C63.1832 16.146 63.2852 16.428 63.2852 16.8V25.206C63.2852 25.758 63.3992 26.166 63.6272 26.43C63.8672 26.694 64.2032 26.826 64.6352 26.826C64.7312 26.826 64.8212 26.826 64.9052 26.826C64.9892 26.814 65.0732 26.802 65.1572 26.79C65.3252 26.766 65.4392 26.814 65.4992 26.934C65.5592 27.042 65.5892 27.27 65.5892 27.618C65.5892 27.918 65.5292 28.152 65.4092 28.32C65.2892 28.488 65.0912 28.59 64.8152 28.626C64.6952 28.638 64.5692 28.65 64.4372 28.662C64.3052 28.674 64.1732 28.68 64.0412 28.68ZM69.7893 28.68C68.7933 28.68 68.0433 28.398 67.5393 27.834C67.0353 27.258 66.7833 26.418 66.7833 25.314V16.8C66.7833 16.428 66.8793 16.146 67.0713 15.954C67.2633 15.762 67.5393 15.666 67.8993 15.666C68.2593 15.666 68.5353 15.762 68.7273 15.954C68.9313 16.146 69.0333 16.428 69.0333 16.8V25.206C69.0333 25.758 69.1473 26.166 69.3753 26.43C69.6153 26.694 69.9513 26.826 70.3833 26.826C70.4793 26.826 70.5693 26.826 70.6533 26.826C70.7373 26.814 70.8213 26.802 70.9053 26.79C71.0733 26.766 71.1873 26.814 71.2473 26.934C71.3073 27.042 71.3373 27.27 71.3373 27.618C71.3373 27.918 71.2773 28.152 71.1573 28.32C71.0373 28.488 70.8393 28.59 70.5633 28.626C70.4433 28.638 70.3173 28.65 70.1853 28.662C70.0533 28.674 69.9213 28.68 69.7893 28.68ZM78.858 28.5C78.462 28.5 78.156 28.398 77.94 28.194C77.736 27.978 77.634 27.672 77.634 27.276V17.034C77.634 16.638 77.736 16.338 77.94 16.134C78.156 15.918 78.462 15.81 78.858 15.81H85.284C85.584 15.81 85.812 15.888 85.968 16.044C86.136 16.2 86.22 16.422 86.22 16.71C86.22 17.01 86.136 17.244 85.968 17.412C85.812 17.568 85.584 17.646 85.284 17.646H79.848V21.138H84.888C85.2 21.138 85.434 21.216 85.59 21.372C85.746 21.528 85.824 21.756 85.824 22.056C85.824 22.356 85.746 22.584 85.59 22.74C85.434 22.896 85.2 22.974 84.888 22.974H79.848V26.664H85.284C85.584 26.664 85.812 26.742 85.968 26.898C86.136 27.054 86.22 27.282 86.22 27.582C86.22 27.882 86.136 28.11 85.968 28.266C85.812 28.422 85.584 28.5 85.284 28.5H78.858ZM88.7703 28.59C88.5063 28.59 88.2843 28.518 88.1043 28.374C87.9363 28.218 87.8463 28.02 87.8343 27.78C87.8343 27.54 87.9363 27.288 88.1403 27.024L91.0563 23.424V24.486L88.3203 21.12C88.1043 20.856 88.0023 20.604 88.0143 20.364C88.0263 20.124 88.1163 19.932 88.2843 19.788C88.4643 19.632 88.6863 19.554 88.9503 19.554C89.2263 19.554 89.4543 19.602 89.6343 19.698C89.8263 19.794 90.0003 19.944 90.1563 20.148L92.3163 22.92H91.5243L93.7023 20.148C93.8703 19.944 94.0443 19.794 94.2243 19.698C94.4043 19.602 94.6263 19.554 94.8903 19.554C95.1663 19.554 95.3883 19.632 95.5563 19.788C95.7243 19.944 95.8083 20.142 95.8083 20.382C95.8203 20.622 95.7183 20.874 95.5023 21.138L92.7843 24.468V23.46L95.7003 27.024C95.9163 27.276 96.0183 27.522 96.0063 27.762C95.9943 28.002 95.8983 28.2 95.7183 28.356C95.5503 28.512 95.3283 28.59 95.0523 28.59C94.7883 28.59 94.5663 28.542 94.3863 28.446C94.2063 28.35 94.0323 28.2 93.8643 27.996L91.5243 25.044H92.2803L89.9583 27.996C89.8023 28.188 89.6343 28.338 89.4543 28.446C89.2743 28.542 89.0463 28.59 88.7703 28.59ZM102.016 28.68C101.236 28.68 100.582 28.548 100.054 28.284C99.5385 28.02 99.1545 27.636 98.9025 27.132C98.6505 26.616 98.5245 25.98 98.5245 25.224V21.39H97.5885C97.3005 21.39 97.0785 21.318 96.9225 21.174C96.7665 21.018 96.6885 20.808 96.6885 20.544C96.6885 20.268 96.7665 20.058 96.9225 19.914C97.0785 19.77 97.3005 19.698 97.5885 19.698H98.5245V18.06C98.5245 17.688 98.6205 17.406 98.8125 17.214C99.0165 17.022 99.2985 16.926 99.6585 16.926C100.018 16.926 100.294 17.022 100.486 17.214C100.678 17.406 100.774 17.688 100.774 18.06V19.698H102.682C102.97 19.698 103.192 19.77 103.348 19.914C103.504 20.058 103.582 20.268 103.582 20.544C103.582 20.808 103.504 21.018 103.348 21.174C103.192 21.318 102.97 21.39 102.682 21.39H100.774V25.098C100.774 25.674 100.9 26.106 101.152 26.394C101.404 26.682 101.812 26.826 102.376 26.826C102.58 26.826 102.76 26.808 102.916 26.772C103.072 26.736 103.21 26.712 103.33 26.7C103.474 26.688 103.594 26.736 103.69 26.844C103.786 26.94 103.834 27.144 103.834 27.456C103.834 27.696 103.792 27.912 103.708 28.104C103.636 28.284 103.498 28.41 103.294 28.482C103.138 28.53 102.934 28.572 102.682 28.608C102.43 28.656 102.208 28.68 102.016 28.68ZM109.143 28.68C108.147 28.68 107.289 28.494 106.569 28.122C105.849 27.75 105.291 27.222 104.895 26.538C104.511 25.854 104.319 25.044 104.319 24.108C104.319 23.196 104.505 22.398 104.877 21.714C105.261 21.03 105.783 20.496 106.443 20.112C107.115 19.716 107.877 19.518 108.729 19.518C109.353 19.518 109.911 19.62 110.403 19.824C110.907 20.028 111.333 20.322 111.681 20.706C112.041 21.09 112.311 21.558 112.491 22.11C112.683 22.65 112.779 23.262 112.779 23.946C112.779 24.162 112.701 24.33 112.545 24.45C112.401 24.558 112.191 24.612 111.915 24.612H106.137V23.316H111.195L110.907 23.586C110.907 23.034 110.823 22.572 110.655 22.2C110.499 21.828 110.265 21.546 109.953 21.354C109.653 21.15 109.275 21.048 108.819 21.048C108.315 21.048 107.883 21.168 107.523 21.408C107.175 21.636 106.905 21.966 106.713 22.398C106.533 22.818 106.443 23.322 106.443 23.91V24.036C106.443 25.02 106.671 25.758 107.127 26.25C107.595 26.73 108.279 26.97 109.179 26.97C109.491 26.97 109.839 26.934 110.223 26.862C110.619 26.778 110.991 26.64 111.339 26.448C111.591 26.304 111.813 26.244 112.005 26.268C112.197 26.28 112.347 26.346 112.455 26.466C112.575 26.586 112.647 26.736 112.671 26.916C112.695 27.084 112.659 27.258 112.563 27.438C112.479 27.618 112.329 27.774 112.113 27.906C111.693 28.17 111.207 28.368 110.655 28.5C110.115 28.62 109.611 28.68 109.143 28.68ZM115.677 28.644C115.317 28.644 115.041 28.548 114.849 28.356C114.657 28.152 114.561 27.864 114.561 27.492V20.688C114.561 20.316 114.657 20.034 114.849 19.842C115.041 19.65 115.311 19.554 115.659 19.554C116.007 19.554 116.277 19.65 116.469 19.842C116.661 20.034 116.757 20.316 116.757 20.688V21.912L116.559 21.462C116.823 20.826 117.231 20.346 117.783 20.022C118.347 19.686 118.983 19.518 119.691 19.518C120.399 19.518 120.981 19.65 121.437 19.914C121.893 20.178 122.235 20.58 122.463 21.12C122.691 21.648 122.805 22.32 122.805 23.136V27.492C122.805 27.864 122.709 28.152 122.517 28.356C122.325 28.548 122.049 28.644 121.689 28.644C121.329 28.644 121.047 28.548 120.843 28.356C120.651 28.152 120.555 27.864 120.555 27.492V23.244C120.555 22.56 120.423 22.062 120.159 21.75C119.907 21.438 119.511 21.282 118.971 21.282C118.311 21.282 117.783 21.492 117.387 21.912C117.003 22.32 116.811 22.866 116.811 23.55V27.492C116.811 28.26 116.433 28.644 115.677 28.644ZM128.312 28.68C127.796 28.68 127.25 28.626 126.674 28.518C126.098 28.41 125.582 28.224 125.126 27.96C124.934 27.84 124.796 27.702 124.712 27.546C124.64 27.378 124.61 27.216 124.622 27.06C124.646 26.892 124.706 26.748 124.802 26.628C124.91 26.508 125.042 26.43 125.198 26.394C125.366 26.358 125.546 26.388 125.738 26.484C126.218 26.712 126.668 26.874 127.088 26.97C127.508 27.054 127.922 27.096 128.33 27.096C128.906 27.096 129.332 27 129.608 26.808C129.896 26.604 130.04 26.34 130.04 26.016C130.04 25.74 129.944 25.53 129.752 25.386C129.572 25.23 129.296 25.116 128.924 25.044L127.124 24.702C126.38 24.558 125.81 24.288 125.414 23.892C125.03 23.484 124.838 22.962 124.838 22.326C124.838 21.75 124.994 21.252 125.306 20.832C125.63 20.412 126.074 20.088 126.638 19.86C127.202 19.632 127.85 19.518 128.582 19.518C129.11 19.518 129.602 19.578 130.058 19.698C130.526 19.806 130.976 19.98 131.408 20.22C131.588 20.316 131.708 20.442 131.768 20.598C131.84 20.754 131.858 20.916 131.822 21.084C131.786 21.24 131.714 21.384 131.606 21.516C131.498 21.636 131.36 21.714 131.192 21.75C131.036 21.774 130.856 21.738 130.652 21.642C130.28 21.45 129.92 21.312 129.572 21.228C129.236 21.144 128.912 21.102 128.6 21.102C128.012 21.102 127.574 21.204 127.286 21.408C127.01 21.612 126.872 21.882 126.872 22.218C126.872 22.47 126.956 22.68 127.124 22.848C127.292 23.016 127.55 23.13 127.898 23.19L129.698 23.532C130.478 23.676 131.066 23.94 131.462 24.324C131.87 24.708 132.074 25.224 132.074 25.872C132.074 26.748 131.732 27.438 131.048 27.942C130.364 28.434 129.452 28.68 128.312 28.68ZM134.995 28.626C134.635 28.626 134.359 28.518 134.167 28.302C133.975 28.086 133.879 27.786 133.879 27.402V20.796C133.879 20.4 133.975 20.1 134.167 19.896C134.359 19.68 134.635 19.572 134.995 19.572C135.355 19.572 135.631 19.68 135.823 19.896C136.027 20.1 136.129 20.4 136.129 20.796V27.402C136.129 27.786 136.033 28.086 135.841 28.302C135.649 28.518 135.367 28.626 134.995 28.626ZM134.995 17.898C134.575 17.898 134.245 17.796 134.005 17.592C133.777 17.376 133.663 17.082 133.663 16.71C133.663 16.326 133.777 16.032 134.005 15.828C134.245 15.624 134.575 15.522 134.995 15.522C135.427 15.522 135.757 15.624 135.985 15.828C136.213 16.032 136.327 16.326 136.327 16.71C136.327 17.082 136.213 17.376 135.985 17.592C135.757 17.796 135.427 17.898 134.995 17.898ZM142.481 28.68C141.569 28.68 140.777 28.494 140.105 28.122C139.433 27.75 138.911 27.222 138.539 26.538C138.167 25.842 137.981 25.026 137.981 24.09C137.981 23.382 138.083 22.752 138.287 22.2C138.503 21.636 138.809 21.156 139.205 20.76C139.601 20.352 140.075 20.046 140.627 19.842C141.179 19.626 141.797 19.518 142.481 19.518C143.393 19.518 144.185 19.704 144.857 20.076C145.529 20.448 146.051 20.976 146.423 21.66C146.795 22.344 146.981 23.154 146.981 24.09C146.981 24.798 146.873 25.434 146.657 25.998C146.453 26.562 146.153 27.048 145.757 27.456C145.361 27.852 144.887 28.158 144.335 28.374C143.783 28.578 143.165 28.68 142.481 28.68ZM142.481 26.97C142.925 26.97 143.315 26.862 143.651 26.646C143.987 26.43 144.245 26.112 144.425 25.692C144.617 25.26 144.713 24.726 144.713 24.09C144.713 23.13 144.509 22.416 144.101 21.948C143.693 21.468 143.153 21.228 142.481 21.228C142.037 21.228 141.647 21.336 141.311 21.552C140.975 21.756 140.711 22.074 140.519 22.506C140.339 22.926 140.249 23.454 140.249 24.09C140.249 25.038 140.453 25.758 140.861 26.25C141.269 26.73 141.809 26.97 142.481 26.97ZM149.954 28.644C149.594 28.644 149.318 28.548 149.126 28.356C148.934 28.152 148.838 27.864 148.838 27.492V20.688C148.838 20.316 148.934 20.034 149.126 19.842C149.318 19.65 149.588 19.554 149.936 19.554C150.284 19.554 150.554 19.65 150.746 19.842C150.938 20.034 151.034 20.316 151.034 20.688V21.912L150.836 21.462C151.1 20.826 151.508 20.346 152.06 20.022C152.624 19.686 153.26 19.518 153.968 19.518C154.676 19.518 155.258 19.65 155.714 19.914C156.17 20.178 156.512 20.58 156.74 21.12C156.968 21.648 157.082 22.32 157.082 23.136V27.492C157.082 27.864 156.986 28.152 156.794 28.356C156.602 28.548 156.326 28.644 155.966 28.644C155.606 28.644 155.324 28.548 155.12 28.356C154.928 28.152 154.832 27.864 154.832 27.492V23.244C154.832 22.56 154.7 22.062 154.436 21.75C154.184 21.438 153.788 21.282 153.248 21.282C152.588 21.282 152.06 21.492 151.664 21.912C151.28 22.32 151.088 22.866 151.088 23.55V27.492C151.088 28.26 150.71 28.644 149.954 28.644Z" fill="black"/>
<path d="M168.5 30.5L172.253 24H164.747L168.5 30.5ZM167.85 15.5V24.65H169.15V15.5H167.85Z" fill="black"/>
<rect x="0.5" y="0.5" width="190" height="45" rx="3.5" stroke="black"/>
</g>
<defs>
<filter id="filter0_d_221_19" x="0" y="0" width="195" height="50" filterUnits="userSpaceOnUse" color-interpolation-filters="sRGB">
<feFlood flood-opacity="0" result="BackgroundImageFix"/>
<feColorMatrix in="SourceAlpha" type="matrix" values="0 0 0 0 0 0 0 0 0 0 0 0 0 0 0 0 0 0 127 0" result="hardAlpha"/>
<feOffset dx="4" dy="4"/>
<feComposite in2="hardAlpha" operator="out"/>
<feColorMatrix type="matrix" values="0 0 0 0 0 0 0 0 0 0 0 0 0 0 0 0 0 0 1 0"/>
<feBlend mode="normal" in2="BackgroundImageFix" result="effect1_dropShadow_221_19"/>
<feBlend mode="normal" in="SourceGraphic" in2="effect1_dropShadow_221_19" result="shape"/>
</filter>
</defs>
</svg>
