<svg width="160" height="51" viewBox="0 0 160 51" fill="none" xmlns="http://www.w3.org/2000/svg">
<path d="M34.652 9.97001C34.6209 9.72165 34.4231 9.58386 34.259 9.56886C34.0961 9.55386 30.9045 9.50066 30.9045 9.50066C30.9045 9.50066 28.2353 6.65718 27.9716 6.36791C27.708 6.07866 27.193 6.16598 26.9928 6.23147C26.9903 6.23284 26.4915 6.40203 25.652 6.68719C25.5114 6.18782 25.3049 5.57382 25.0101 4.95709C24.0599 2.96776 22.6681 1.91578 20.9865 1.91306C20.984 1.91306 20.9827 1.91306 20.9803 1.91306C20.8633 1.91306 20.7477 1.92534 20.6308 1.93625C20.581 1.87076 20.5313 1.80663 20.479 1.74386C19.7464 0.884275 18.8074 0.465395 17.6817 0.502235C15.5101 0.570456 13.3472 2.291 11.5934 5.34732C10.3596 7.49766 9.42048 10.1993 9.15432 12.2909C6.6605 13.1382 4.9167 13.7303 4.87815 13.744C3.61943 14.1779 3.57963 14.2202 3.41545 15.5219C3.29356 16.5056 0 44.4437 0 44.4437L27.601 49.6804L39.5637 46.418C39.5637 46.418 34.6831 10.2184 34.652 9.97001ZM24.2701 7.15655C23.6345 7.37214 22.9118 7.61774 22.1283 7.8838C22.1121 6.67764 21.9815 4.9994 21.4691 3.549C23.1171 3.89148 23.928 5.93676 24.2701 7.15655ZM20.6842 8.37499C19.2377 8.86615 17.6593 9.40238 16.076 9.94001C16.5213 8.06936 17.3658 6.20691 18.4032 4.98575C18.7887 4.5314 19.3285 4.02519 19.9678 3.73593C20.5686 5.11127 20.6992 7.05832 20.6842 8.37499ZM17.7252 2.0877C18.2352 2.07542 18.6643 2.19822 19.0313 2.46292C18.4442 2.79721 17.877 3.27749 17.3447 3.90376C15.9653 5.52743 14.9081 8.04753 14.4864 10.4789C13.1717 10.9251 11.8856 11.3631 10.7015 11.7643C11.4491 7.93701 14.3732 2.19412 17.7252 2.0877Z" fill="white"/>
<path d="M34.2598 9.57024C34.0969 9.55524 30.9053 9.50205 30.9053 9.50205C30.9053 9.50205 28.2362 6.65855 27.9725 6.3693C27.8742 6.2615 27.7412 6.20556 27.6018 6.18237L27.6031 49.679L39.5646 46.4181C39.5646 46.4181 34.684 10.2198 34.6529 9.97139C34.6218 9.72303 34.4228 9.58524 34.2598 9.57024Z" fill="white"/>
<path d="M20.9715 16.3174L19.5823 22.0192C19.5823 22.0192 18.0325 21.2456 16.1954 21.3725C13.5013 21.5595 13.4727 23.4233 13.5001 23.8913C13.6469 26.4414 19.7626 26.9981 20.1059 32.9715C20.3758 37.6707 17.8334 40.8852 14.1705 41.139C9.77369 41.4433 7.35327 38.5984 7.35327 38.5984L8.28489 34.2514C8.28489 34.2514 10.7214 36.268 12.6717 36.1329C13.9454 36.0443 14.4006 34.9077 14.3545 34.104C14.163 30.7775 9.18287 30.974 8.86823 25.5081C8.60327 20.9087 11.3571 16.2478 17.4329 15.8275C19.7738 15.6624 20.9715 16.3174 20.9715 16.3174Z" fill="black"/>
<path d="M55.3172 28.2571C53.9417 27.4383 53.2348 26.7482 53.2348 25.7995C53.2348 24.5923 54.2167 23.8168 55.7502 23.8168C57.5353 23.8168 59.1291 24.6356 59.1291 24.6356L60.3862 20.4106C60.3862 20.4106 59.2303 19.4186 55.8279 19.4186C51.0931 19.4186 47.8116 22.3932 47.8116 26.5749C47.8116 28.9459 49.3439 30.7566 51.388 32.049C53.0386 33.0829 53.6283 33.8164 53.6283 34.8937C53.6283 36.0142 52.803 36.9196 51.2708 36.9196C48.9873 36.9196 46.8309 35.6258 46.8309 35.6258L45.4949 39.8508C45.4949 39.8508 47.4872 41.3164 50.839 41.3164C55.7119 41.3164 59.2094 38.6869 59.2094 33.945C59.2081 31.4035 57.4403 29.5927 55.3172 28.2571Z" fill="white"/>
<path d="M74.7302 19.3767C72.333 19.3767 70.4468 20.6272 68.9935 22.5232L68.9146 22.4798L70.9969 10.5397H65.5738L60.3086 40.9294H65.7317L67.539 30.5415C68.2459 26.6183 70.0927 24.2053 71.8223 24.2053C73.0399 24.2053 73.5124 25.1107 73.5124 26.4044C73.5124 27.2232 73.4334 28.2152 73.2767 29.0339L71.2338 40.9308H76.6572L78.7785 28.6455C79.0146 27.3517 79.1723 25.8009 79.1723 24.7656C79.17 21.4026 77.5591 19.3767 74.7302 19.3767Z" fill="white"/>
<path d="M91.4298 19.3768C84.906 19.3768 80.585 25.843 80.585 33.0412C80.585 37.6532 83.1778 41.36 88.051 41.36C94.456 41.36 98.7785 35.0671 98.7785 27.6956C98.7785 23.4286 96.4988 19.3768 91.4298 19.3768ZM88.7578 36.7925C86.9108 36.7925 86.1247 35.0684 86.1247 32.9126C86.1247 29.5077 87.7364 23.947 90.6834 23.947C92.6089 23.947 93.2366 25.7577 93.2366 27.5251C93.2366 31.1885 91.6271 36.7925 88.7578 36.7925Z" fill="white"/>
<path d="M112.649 19.3768C108.989 19.3768 106.912 22.9117 106.912 22.9117H106.834L107.148 19.7219H102.354C102.119 21.8777 101.686 25.1527 101.255 27.6104L97.4819 49.3782H102.905L104.397 40.5845H104.516C104.516 40.5845 105.629 41.36 107.699 41.36C114.065 41.36 118.229 34.205 118.229 26.9622C118.229 22.955 116.618 19.3768 112.649 19.3768ZM107.462 36.8777C106.055 36.8777 105.221 36.0157 105.221 36.0157L106.126 30.455C106.755 26.7483 108.523 24.2907 110.409 24.2907C112.06 24.2907 112.57 25.9715 112.57 27.5671C112.57 31.4036 110.488 36.8777 107.462 36.8777Z" fill="white"/>
<path d="M125.971 10.8415C124.243 10.8415 122.867 12.3504 122.867 14.2897C122.867 16.0572 123.888 17.2643 125.421 17.2643H125.499C127.189 17.2643 128.643 16.0138 128.682 13.8161C128.682 12.0919 127.621 10.8415 125.971 10.8415Z" fill="white"/>
<path d="M118.387 40.9294H123.809L127.504 19.8517H122.041L118.387 40.9294Z" fill="white"/>
<path d="M141.296 19.8084H137.524L137.72 18.8165C138.034 16.7905 139.135 14.9798 140.942 14.9798C141.907 14.9798 142.671 15.2816 142.671 15.2816L143.732 10.6263C143.732 10.6263 142.789 10.1093 140.784 10.1093C138.858 10.1093 136.934 10.7128 135.479 12.0919C133.632 13.816 132.768 16.3155 132.336 18.8165L132.18 19.8084H129.664L128.878 24.2919H131.394L128.525 40.9308H133.948L136.817 24.2919H140.55L141.296 19.8084Z" fill="white"/>
<path d="M154.342 19.8519C154.342 19.8519 150.952 29.2207 149.43 34.3349H149.351C149.248 32.6879 148.015 19.8519 148.015 19.8519H142.317L145.58 39.2054C145.659 39.6358 145.619 39.8956 145.462 40.1974C144.832 41.5331 143.772 42.8269 142.514 43.7756C141.493 44.5942 140.353 45.1112 139.45 45.4563L140.943 50.5001C142.043 50.2416 144.321 49.2497 146.247 47.267C148.723 44.7242 151.001 40.801 153.359 35.4554L160 19.8505H154.342V19.8519Z" fill="white"/>
</svg>
