<svg width="137" height="29" viewBox="0 0 137 29" fill="none" xmlns="http://www.w3.org/2000/svg">
<rect x="0.5" y="0.5" width="136" height="28" rx="3.5" fill="#8DA582" fill-opacity="0.87"/>
<path d="M17.4239 20.162C16.8599 20.162 16.3079 20.114 15.7679 20.018C15.2279 19.922 14.7239 19.784 14.2559 19.604C13.7999 19.424 13.3859 19.196 13.0139 18.92C12.8699 18.812 12.7679 18.692 12.7079 18.56C12.6599 18.416 12.6479 18.278 12.6719 18.146C12.7079 18.002 12.7679 17.882 12.8519 17.786C12.9479 17.69 13.0619 17.636 13.1939 17.624C13.3259 17.612 13.4699 17.654 13.6259 17.75C14.1659 18.134 14.7419 18.416 15.3539 18.596C15.9659 18.764 16.6559 18.848 17.4239 18.848C18.5039 18.848 19.3019 18.65 19.8179 18.254C20.3459 17.846 20.6099 17.312 20.6099 16.652C20.6099 16.112 20.4179 15.692 20.0339 15.392C19.6619 15.08 19.0319 14.834 18.1439 14.654L16.2719 14.276C15.1439 14.036 14.2979 13.646 13.7339 13.106C13.1819 12.554 12.9059 11.822 12.9059 10.91C12.9059 10.346 13.0199 9.836 13.2479 9.38C13.4759 8.912 13.7939 8.516 14.2019 8.192C14.6099 7.856 15.0959 7.598 15.6599 7.418C16.2239 7.238 16.8479 7.148 17.5319 7.148C18.2879 7.148 18.9899 7.256 19.6379 7.472C20.2979 7.676 20.8919 7.988 21.4199 8.408C21.5519 8.516 21.6419 8.642 21.6899 8.786C21.7379 8.918 21.7439 9.05 21.7079 9.182C21.6719 9.302 21.6059 9.404 21.5099 9.488C21.4259 9.572 21.3119 9.62 21.1679 9.632C21.0359 9.644 20.8859 9.596 20.7179 9.488C20.2379 9.128 19.7399 8.87 19.2239 8.714C18.7079 8.546 18.1379 8.462 17.5139 8.462C16.8779 8.462 16.3259 8.558 15.8579 8.75C15.4019 8.942 15.0419 9.224 14.7779 9.596C14.5259 9.956 14.3999 10.376 14.3999 10.856C14.3999 11.432 14.5739 11.888 14.9219 12.224C15.2819 12.56 15.8639 12.806 16.6679 12.962L18.5399 13.358C19.7519 13.61 20.6459 13.994 21.2219 14.51C21.8099 15.014 22.1039 15.704 22.1039 16.58C22.1039 17.108 21.9959 17.594 21.7799 18.038C21.5639 18.482 21.2519 18.866 20.8439 19.19C20.4359 19.502 19.9439 19.742 19.3679 19.91C18.7919 20.078 18.1439 20.162 17.4239 20.162ZM27.671 20.162C26.987 20.162 26.411 20.042 25.943 19.802C25.487 19.55 25.145 19.19 24.917 18.722C24.689 18.242 24.575 17.66 24.575 16.976V12.386H23.369C23.165 12.386 23.009 12.338 22.901 12.242C22.793 12.134 22.739 11.99 22.739 11.81C22.739 11.63 22.793 11.492 22.901 11.396C23.009 11.3 23.165 11.252 23.369 11.252H24.575V9.182C24.575 8.942 24.641 8.762 24.773 8.642C24.905 8.51 25.085 8.444 25.313 8.444C25.541 8.444 25.715 8.51 25.835 8.642C25.967 8.762 26.033 8.942 26.033 9.182V11.252H28.301C28.505 11.252 28.661 11.3 28.769 11.396C28.877 11.492 28.931 11.63 28.931 11.81C28.931 11.99 28.877 12.134 28.769 12.242C28.661 12.338 28.505 12.386 28.301 12.386H26.033V16.832C26.033 17.516 26.177 18.038 26.465 18.398C26.753 18.746 27.221 18.92 27.869 18.92C28.097 18.92 28.289 18.896 28.445 18.848C28.613 18.8 28.751 18.776 28.859 18.776C28.967 18.764 29.057 18.8 29.129 18.884C29.201 18.968 29.237 19.112 29.237 19.316C29.237 19.46 29.207 19.592 29.147 19.712C29.099 19.832 29.009 19.916 28.877 19.964C28.733 20.012 28.541 20.054 28.301 20.09C28.073 20.138 27.863 20.162 27.671 20.162ZM33.2079 20.162C32.6079 20.162 32.0679 20.048 31.5879 19.82C31.1199 19.58 30.7479 19.256 30.4719 18.848C30.1959 18.44 30.0579 17.984 30.0579 17.48C30.0579 16.832 30.2199 16.322 30.5439 15.95C30.8799 15.578 31.4259 15.314 32.1819 15.158C32.9499 15.002 33.9939 14.924 35.3139 14.924H36.1239V15.878H35.3319C34.3599 15.878 33.5919 15.926 33.0279 16.022C32.4759 16.106 32.0859 16.256 31.8579 16.472C31.6419 16.688 31.5339 16.994 31.5339 17.39C31.5339 17.882 31.7019 18.284 32.0379 18.596C32.3859 18.908 32.8539 19.064 33.4419 19.064C33.9219 19.064 34.3419 18.95 34.7019 18.722C35.0739 18.494 35.3619 18.182 35.5659 17.786C35.7819 17.39 35.8899 16.934 35.8899 16.418V14.366C35.8899 13.622 35.7399 13.088 35.4399 12.764C35.1399 12.428 34.6479 12.26 33.9639 12.26C33.5439 12.26 33.1239 12.314 32.7039 12.422C32.2839 12.53 31.8399 12.704 31.3719 12.944C31.2039 13.028 31.0599 13.058 30.9399 13.034C30.8199 12.998 30.7239 12.932 30.6519 12.836C30.5799 12.74 30.5379 12.632 30.5259 12.512C30.5139 12.38 30.5379 12.254 30.5979 12.134C30.6699 12.014 30.7779 11.918 30.9219 11.846C31.4499 11.582 31.9719 11.39 32.4879 11.27C33.0039 11.15 33.4959 11.09 33.9639 11.09C34.7199 11.09 35.3439 11.216 35.8359 11.468C36.3279 11.708 36.6939 12.08 36.9339 12.584C37.1739 13.076 37.2939 13.712 37.2939 14.492V19.37C37.2939 19.61 37.2339 19.796 37.1139 19.928C37.0059 20.06 36.8439 20.126 36.6279 20.126C36.3999 20.126 36.2259 20.06 36.1059 19.928C35.9859 19.796 35.9259 19.61 35.9259 19.37V17.966H36.0879C35.9919 18.422 35.8059 18.812 35.5299 19.136C35.2659 19.46 34.9359 19.712 34.5399 19.892C34.1439 20.072 33.6999 20.162 33.2079 20.162ZM40.7369 20.126C40.4969 20.126 40.3109 20.06 40.1789 19.928C40.0589 19.796 39.9989 19.61 39.9989 19.37V11.864C39.9989 11.624 40.0589 11.444 40.1789 11.324C40.2989 11.192 40.4729 11.126 40.7009 11.126C40.9289 11.126 41.1029 11.192 41.2229 11.324C41.3549 11.444 41.4209 11.624 41.4209 11.864V13.322H41.2409C41.4329 12.614 41.7989 12.068 42.3389 11.684C42.8789 11.3 43.5449 11.096 44.3369 11.072C44.5169 11.06 44.6609 11.102 44.7689 11.198C44.8769 11.282 44.9369 11.432 44.9489 11.648C44.9609 11.852 44.9129 12.014 44.8049 12.134C44.6969 12.254 44.5289 12.326 44.3009 12.35L44.0129 12.386C43.1969 12.458 42.5669 12.722 42.1229 13.178C41.6909 13.622 41.4749 14.234 41.4749 15.014V19.37C41.4749 19.61 41.4089 19.796 41.2769 19.928C41.1569 20.06 40.9769 20.126 40.7369 20.126ZM50.4346 20.162C49.7506 20.162 49.1746 20.042 48.7066 19.802C48.2506 19.55 47.9086 19.19 47.6806 18.722C47.4526 18.242 47.3386 17.66 47.3386 16.976V12.386H46.1326C45.9286 12.386 45.7726 12.338 45.6646 12.242C45.5566 12.134 45.5026 11.99 45.5026 11.81C45.5026 11.63 45.5566 11.492 45.6646 11.396C45.7726 11.3 45.9286 11.252 46.1326 11.252H47.3386V9.182C47.3386 8.942 47.4046 8.762 47.5366 8.642C47.6686 8.51 47.8486 8.444 48.0766 8.444C48.3046 8.444 48.4786 8.51 48.5986 8.642C48.7306 8.762 48.7966 8.942 48.7966 9.182V11.252H51.0646C51.2686 11.252 51.4246 11.3 51.5326 11.396C51.6406 11.492 51.6946 11.63 51.6946 11.81C51.6946 11.99 51.6406 12.134 51.5326 12.242C51.4246 12.338 51.2686 12.386 51.0646 12.386H48.7966V16.832C48.7966 17.516 48.9406 18.038 49.2286 18.398C49.5166 18.746 49.9846 18.92 50.6326 18.92C50.8606 18.92 51.0526 18.896 51.2086 18.848C51.3766 18.8 51.5146 18.776 51.6226 18.776C51.7306 18.764 51.8206 18.8 51.8926 18.884C51.9646 18.968 52.0006 19.112 52.0006 19.316C52.0006 19.46 51.9706 19.592 51.9106 19.712C51.8626 19.832 51.7726 19.916 51.6406 19.964C51.4966 20.012 51.3046 20.054 51.0646 20.09C50.8366 20.138 50.6266 20.162 50.4346 20.162ZM62.1602 20.162C61.5962 20.162 61.0442 20.114 60.5042 20.018C59.9642 19.922 59.4602 19.784 58.9922 19.604C58.5362 19.424 58.1222 19.196 57.7502 18.92C57.6062 18.812 57.5042 18.692 57.4442 18.56C57.3962 18.416 57.3842 18.278 57.4082 18.146C57.4442 18.002 57.5042 17.882 57.5882 17.786C57.6842 17.69 57.7982 17.636 57.9302 17.624C58.0622 17.612 58.2062 17.654 58.3622 17.75C58.9022 18.134 59.4782 18.416 60.0902 18.596C60.7022 18.764 61.3922 18.848 62.1602 18.848C63.2402 18.848 64.0382 18.65 64.5542 18.254C65.0822 17.846 65.3462 17.312 65.3462 16.652C65.3462 16.112 65.1542 15.692 64.7702 15.392C64.3982 15.08 63.7682 14.834 62.8802 14.654L61.0082 14.276C59.8802 14.036 59.0342 13.646 58.4702 13.106C57.9182 12.554 57.6422 11.822 57.6422 10.91C57.6422 10.346 57.7562 9.836 57.9842 9.38C58.2122 8.912 58.5302 8.516 58.9382 8.192C59.3462 7.856 59.8322 7.598 60.3962 7.418C60.9602 7.238 61.5842 7.148 62.2682 7.148C63.0242 7.148 63.7262 7.256 64.3742 7.472C65.0342 7.676 65.6282 7.988 66.1562 8.408C66.2882 8.516 66.3782 8.642 66.4262 8.786C66.4742 8.918 66.4802 9.05 66.4442 9.182C66.4082 9.302 66.3422 9.404 66.2462 9.488C66.1622 9.572 66.0482 9.62 65.9042 9.632C65.7722 9.644 65.6222 9.596 65.4542 9.488C64.9742 9.128 64.4762 8.87 63.9602 8.714C63.4442 8.546 62.8742 8.462 62.2502 8.462C61.6142 8.462 61.0622 8.558 60.5942 8.75C60.1382 8.942 59.7782 9.224 59.5142 9.596C59.2622 9.956 59.1362 10.376 59.1362 10.856C59.1362 11.432 59.3102 11.888 59.6582 12.224C60.0182 12.56 60.6002 12.806 61.4042 12.962L63.2762 13.358C64.4882 13.61 65.3822 13.994 65.9582 14.51C66.5462 15.014 66.8402 15.704 66.8402 16.58C66.8402 17.108 66.7322 17.594 66.5162 18.038C66.3002 18.482 65.9882 18.866 65.5802 19.19C65.1722 19.502 64.6802 19.742 64.1042 19.91C63.5282 20.078 62.8802 20.162 62.1602 20.162ZM71.6865 20.162C71.0865 20.162 70.5465 20.048 70.0665 19.82C69.5985 19.58 69.2265 19.256 68.9505 18.848C68.6745 18.44 68.5365 17.984 68.5365 17.48C68.5365 16.832 68.6985 16.322 69.0225 15.95C69.3585 15.578 69.9045 15.314 70.6605 15.158C71.4285 15.002 72.4725 14.924 73.7925 14.924H74.6025V15.878H73.8105C72.8385 15.878 72.0705 15.926 71.5065 16.022C70.9545 16.106 70.5645 16.256 70.3365 16.472C70.1205 16.688 70.0125 16.994 70.0125 17.39C70.0125 17.882 70.1805 18.284 70.5165 18.596C70.8645 18.908 71.3325 19.064 71.9205 19.064C72.4005 19.064 72.8205 18.95 73.1805 18.722C73.5525 18.494 73.8405 18.182 74.0445 17.786C74.2605 17.39 74.3685 16.934 74.3685 16.418V14.366C74.3685 13.622 74.2185 13.088 73.9185 12.764C73.6185 12.428 73.1265 12.26 72.4425 12.26C72.0225 12.26 71.6025 12.314 71.1825 12.422C70.7625 12.53 70.3185 12.704 69.8505 12.944C69.6825 13.028 69.5385 13.058 69.4185 13.034C69.2985 12.998 69.2025 12.932 69.1305 12.836C69.0585 12.74 69.0165 12.632 69.0045 12.512C68.9925 12.38 69.0165 12.254 69.0765 12.134C69.1485 12.014 69.2565 11.918 69.4005 11.846C69.9285 11.582 70.4505 11.39 70.9665 11.27C71.4825 11.15 71.9745 11.09 72.4425 11.09C73.1985 11.09 73.8225 11.216 74.3145 11.468C74.8065 11.708 75.1725 12.08 75.4125 12.584C75.6525 13.076 75.7725 13.712 75.7725 14.492V19.37C75.7725 19.61 75.7125 19.796 75.5925 19.928C75.4845 20.06 75.3225 20.126 75.1065 20.126C74.8785 20.126 74.7045 20.06 74.5845 19.928C74.4645 19.796 74.4045 19.61 74.4045 19.37V17.966H74.5665C74.4705 18.422 74.2845 18.812 74.0085 19.136C73.7445 19.46 73.4145 19.712 73.0185 19.892C72.6225 20.072 72.1785 20.162 71.6865 20.162ZM81.6475 20.126C81.4435 20.126 81.2635 20.072 81.1075 19.964C80.9515 19.844 80.8195 19.664 80.7115 19.424L77.5975 12.152C77.5135 11.972 77.4835 11.804 77.5075 11.648C77.5315 11.492 77.6035 11.366 77.7235 11.27C77.8435 11.174 78.0115 11.126 78.2275 11.126C78.4195 11.126 78.5695 11.168 78.6775 11.252C78.7855 11.336 78.8815 11.486 78.9655 11.702L81.9175 18.92H81.4315L84.4375 11.702C84.5215 11.486 84.6175 11.336 84.7255 11.252C84.8335 11.168 84.9895 11.126 85.1935 11.126C85.3855 11.126 85.5295 11.174 85.6255 11.27C85.7335 11.366 85.7935 11.492 85.8055 11.648C85.8295 11.792 85.8055 11.954 85.7335 12.134L82.5835 19.424C82.4995 19.664 82.3735 19.844 82.2055 19.964C82.0495 20.072 81.8635 20.126 81.6475 20.126ZM88.3732 20.09C88.1332 20.09 87.9532 20.024 87.8332 19.892C87.7132 19.748 87.6532 19.55 87.6532 19.298V11.936C87.6532 11.684 87.7132 11.492 87.8332 11.36C87.9532 11.228 88.1332 11.162 88.3732 11.162C88.6012 11.162 88.7812 11.228 88.9132 11.36C89.0452 11.492 89.1112 11.684 89.1112 11.936V19.298C89.1112 19.55 89.0452 19.748 88.9132 19.892C88.7932 20.024 88.6132 20.09 88.3732 20.09ZM88.3732 9.146C88.0732 9.146 87.8392 9.068 87.6712 8.912C87.5032 8.744 87.4192 8.522 87.4192 8.246C87.4192 7.958 87.5032 7.742 87.6712 7.598C87.8392 7.442 88.0732 7.364 88.3732 7.364C88.6852 7.364 88.9192 7.442 89.0752 7.598C89.2432 7.742 89.3272 7.958 89.3272 8.246C89.3272 8.522 89.2432 8.744 89.0752 8.912C88.9192 9.068 88.6852 9.146 88.3732 9.146ZM92.5568 20.126C92.3168 20.126 92.1368 20.06 92.0168 19.928C91.8968 19.796 91.8368 19.61 91.8368 19.37V11.864C91.8368 11.624 91.8968 11.444 92.0168 11.324C92.1368 11.192 92.3108 11.126 92.5388 11.126C92.7668 11.126 92.9408 11.192 93.0608 11.324C93.1928 11.444 93.2588 11.624 93.2588 11.864V13.412L93.0608 13.196C93.3128 12.5 93.7208 11.978 94.2848 11.63C94.8608 11.27 95.5208 11.09 96.2648 11.09C96.9608 11.09 97.5368 11.216 97.9928 11.468C98.4608 11.72 98.8088 12.104 99.0368 12.62C99.2648 13.124 99.3788 13.766 99.3788 14.546V19.37C99.3788 19.61 99.3128 19.796 99.1808 19.928C99.0608 20.06 98.8868 20.126 98.6588 20.126C98.4188 20.126 98.2328 20.06 98.1008 19.928C97.9808 19.796 97.9208 19.61 97.9208 19.37V14.636C97.9208 13.82 97.7588 13.226 97.4348 12.854C97.1228 12.47 96.6188 12.278 95.9228 12.278C95.1188 12.278 94.4768 12.53 93.9968 13.034C93.5288 13.526 93.2948 14.186 93.2948 15.014V19.37C93.2948 19.874 93.0488 20.126 92.5568 20.126ZM105.937 23.402C105.301 23.402 104.677 23.324 104.065 23.168C103.465 23.024 102.919 22.79 102.427 22.466C102.283 22.382 102.187 22.28 102.139 22.16C102.103 22.04 102.097 21.92 102.121 21.8C102.145 21.692 102.199 21.59 102.283 21.494C102.367 21.41 102.463 21.356 102.571 21.332C102.691 21.308 102.811 21.326 102.931 21.386C103.459 21.71 103.963 21.932 104.443 22.052C104.923 22.172 105.397 22.232 105.865 22.232C106.717 22.232 107.359 22.004 107.791 21.548C108.235 21.092 108.457 20.432 108.457 19.568V17.534H108.637C108.457 18.23 108.073 18.782 107.485 19.19C106.909 19.598 106.231 19.802 105.451 19.802C104.647 19.802 103.951 19.622 103.363 19.262C102.775 18.89 102.319 18.374 101.995 17.714C101.683 17.054 101.527 16.292 101.527 15.428C101.527 14.78 101.617 14.192 101.797 13.664C101.977 13.124 102.235 12.668 102.571 12.296C102.919 11.912 103.333 11.618 103.813 11.414C104.305 11.198 104.851 11.09 105.451 11.09C106.243 11.09 106.927 11.294 107.503 11.702C108.079 12.098 108.451 12.638 108.619 13.322L108.439 13.538V11.864C108.439 11.624 108.499 11.444 108.619 11.324C108.751 11.192 108.931 11.126 109.159 11.126C109.399 11.126 109.579 11.192 109.699 11.324C109.819 11.444 109.879 11.624 109.879 11.864V19.37C109.879 20.702 109.543 21.704 108.871 22.376C108.211 23.06 107.233 23.402 105.937 23.402ZM105.721 18.614C106.285 18.614 106.771 18.488 107.179 18.236C107.587 17.972 107.899 17.6 108.115 17.12C108.343 16.64 108.457 16.076 108.457 15.428C108.457 14.456 108.211 13.688 107.719 13.124C107.227 12.548 106.561 12.26 105.721 12.26C105.169 12.26 104.689 12.392 104.281 12.656C103.873 12.908 103.555 13.274 103.327 13.754C103.111 14.222 103.003 14.78 103.003 15.428C103.003 16.4 103.249 17.174 103.741 17.75C104.233 18.326 104.893 18.614 105.721 18.614Z" fill="black"/>
<path d="M121.5 22L124.387 17H118.613L121.5 22ZM121 7V17.5H122V7H121Z" fill="black"/>
<rect x="0.5" y="0.5" width="136" height="28" rx="3.5" stroke="black"/>
</svg>
