<svg width="101" height="111" viewBox="0 0 101 111" fill="none" xmlns="http://www.w3.org/2000/svg">
<path d="M58.9127 13.435C58.5335 15.1708 58.0313 16.8719 57.4165 18.5012C57.3355 18.7032 57.2655 18.9096 57.1771 19.095C57.1384 19.1898 57.0997 19.2846 57.061 19.3795C57.0083 19.5239 57.1598 19.1569 57.0645 19.3671C57.0362 19.4248 57.0153 19.4991 56.987 19.5568C56.8143 19.9566 56.6307 20.3522 56.4471 20.7477C56.069 21.5346 55.6474 22.3044 55.2001 23.0365C54.9835 23.3779 54.7668 23.7191 54.5393 24.0562C54.4218 24.2164 54.3152 24.3808 54.1869 24.5367C54.1656 24.5696 54.1047 24.6145 54.0907 24.664C54.1255 24.5401 54.2012 24.5286 54.1334 24.5982C54.062 24.6803 54.0016 24.7665 53.9302 24.8485C53.4847 25.4025 52.9919 25.9104 52.4768 26.3683C52.3624 26.4746 52.2372 26.5767 52.1119 26.6788C52.0475 26.736 51.9722 26.789 51.9078 26.8462C51.8791 26.8624 51.8469 26.891 51.8291 26.9115C52.0005 26.7313 51.89 26.8667 51.8435 26.9034C51.5677 27.1114 51.2702 27.3109 50.9761 27.498C50.6855 27.6726 50.3984 27.8349 50.0896 27.9886C49.9495 28.0574 49.7986 28.1219 49.6477 28.1863C49.5794 28.2145 49.5111 28.2427 49.4428 28.2709C49.335 28.311 49.6477 28.1863 49.4824 28.2589C49.4285 28.279 49.3889 28.2909 49.3349 28.311C48.9861 28.4352 48.6299 28.5428 48.2697 28.6213C47.9096 28.6999 47.5525 28.7246 47.185 28.7864C47.1993 28.7783 47.3942 28.7724 47.2606 28.7749C47.2102 28.7826 47.1632 28.7779 47.1128 28.7856C47.0154 28.7885 46.9179 28.7915 46.8096 28.7902C46.6291 28.788 46.4486 28.7858 46.2607 28.767C45.8923 28.746 45.5235 28.6835 45.1617 28.5963C44.9699 28.5484 44.6897 28.6859 44.554 28.8251C44.4148 28.9768 44.3265 29.1621 44.2891 29.3813C44.2181 29.8487 44.4542 30.3405 44.8673 30.5029C45.6645 30.8026 46.4582 31.1146 47.2345 31.4887C47.4159 31.5737 47.5829 31.6669 47.7607 31.7643C47.7716 31.7686 47.9569 31.8827 47.8334 31.8067C47.699 31.7263 47.8842 31.8404 47.906 31.849C48.0004 31.8998 48.0913 31.9631 48.1822 32.0263C48.5492 32.267 48.8984 32.5281 49.2298 32.8097C49.2881 32.8601 49.3537 32.9272 49.412 32.9776C49.4411 33.0028 49.4777 33.0447 49.5068 33.0699C49.5651 33.1204 49.6094 33.2203 49.4703 33.0281C49.5729 33.1785 49.7221 33.2921 49.839 33.4344C50.0656 33.7024 50.2778 33.9784 50.4613 34.2707C50.5126 34.3459 50.5639 34.4211 50.6117 34.5087C50.6265 34.542 50.6522 34.5796 50.6704 34.6005C50.7548 34.73 50.6374 34.5463 50.63 34.5296C50.7039 34.6962 50.8139 34.8633 50.9022 35.0218C51.0718 35.3637 51.2304 35.7012 51.3713 36.0592C51.4343 36.2216 51.4974 36.384 51.5495 36.5421C51.5756 36.6211 51.6017 36.7002 51.6352 36.7959C51.6726 36.9206 51.5678 36.563 51.6239 36.7501C51.6426 36.8125 51.6539 36.8582 51.6725 36.9206C51.7773 37.2782 51.8569 37.6397 51.9364 38.0011C52.0124 38.375 52.0742 38.7569 52.125 39.1346C52.145 39.3213 52.1649 39.508 52.1849 39.6947C52.1853 39.7362 52.1857 39.7776 52.2005 39.8109C52.1797 39.5413 52.1957 39.699 52.2001 39.7695C52.2048 39.8814 52.2131 39.981 52.2179 40.0929C52.2591 40.9346 52.2315 41.7629 52.157 42.5866C52.1378 42.8267 52.1112 43.0502 52.0812 43.286C52.0677 43.377 52.0507 43.4803 52.0481 43.5756C52.0381 43.6542 52.0315 43.7205 52.0107 43.7948C52.0211 43.7576 52.0207 43.7162 52.0311 43.679C52.0172 43.7286 52.0176 43.77 52.0037 43.8196C51.9218 44.2827 51.8435 44.7334 51.7399 45.1879C51.285 47.2791 50.5983 49.2929 49.9078 51.2776C49.7572 51.7275 49.9937 52.2607 50.3568 52.4722C50.7417 52.6924 51.1914 52.5528 51.4364 52.1538C53.1692 49.3819 54.2006 46.1416 55.7299 43.2347C56.0697 42.5841 56.4312 41.9421 56.8437 41.3338C56.9289 41.2022 57.0251 41.0749 57.1069 40.9558C57.1495 40.89 57.2139 40.8328 57.26 40.7546C57.2565 40.767 57.1247 40.9353 57.2173 40.8204C57.2387 40.7875 57.2744 40.7465 57.2957 40.7136C57.4988 40.4633 57.6985 40.2254 57.9091 39.9917C58.3302 39.5244 58.7878 39.099 59.2676 38.7236C59.2963 38.7074 59.3285 38.6787 59.3463 38.6582C59.1854 38.8013 59.2389 38.7398 59.2854 38.7031C59.3463 38.6582 59.4072 38.6134 59.4681 38.5686C59.5899 38.4789 59.7226 38.3934 59.8552 38.308C60.1062 38.1453 60.3646 37.9993 60.616 37.878C60.7705 37.8011 60.9105 37.7324 61.0723 37.6722C61.101 37.6559 61.1263 37.6521 61.1658 37.6402C60.9214 37.7367 61.0975 37.6683 61.1406 37.644C61.2198 37.6201 61.2881 37.5919 61.3672 37.568C61.6587 37.4762 61.9575 37.4011 62.2602 37.355C62.3359 37.3435 62.4224 37.3363 62.4981 37.3247C62.5342 37.3252 62.5595 37.3213 62.5956 37.3218C62.7687 37.3073 62.4115 37.332 62.5703 37.3256C62.7291 37.3192 62.8878 37.3129 63.054 37.3232C63.2201 37.3335 63.3754 37.3395 63.538 37.3622C63.6068 37.3754 63.6898 37.3806 63.7585 37.3938C63.8273 37.4071 64.1456 37.4772 63.8525 37.4032C64.0804 37.4516 64.2974 37.4956 64.5053 37.3573C64.6667 37.2556 64.7916 37.1121 64.8834 36.9143C65.0561 36.5145 64.9596 35.9125 64.5817 35.6676C64.2873 35.4693 63.9964 35.2586 63.7124 35.0231C63.585 34.918 63.4719 34.8047 63.3445 34.6996C63.2788 34.6325 63.2132 34.5654 63.1441 34.5107C63.3628 34.7206 63.1184 34.4731 63.0601 34.4227C62.5709 33.8864 62.1209 33.2968 61.7317 32.6622C61.7169 32.6289 61.6912 32.5913 61.673 32.5704C61.5921 32.4285 61.706 32.6246 61.7134 32.6413C61.6765 32.558 61.6143 32.4785 61.5665 32.3909C61.4708 32.2157 61.3825 32.0572 61.2977 31.8863C61.1281 31.5445 60.9621 31.1902 60.8247 30.8198C60.6838 30.4618 60.5539 30.108 60.4274 29.7418C60.4161 29.6961 60.4047 29.6504 60.3826 29.6004C60.39 29.6171 60.4535 29.8209 60.4013 29.6628C60.3678 29.5671 60.3452 29.4756 60.3117 29.3799C60.2556 29.1928 60.2031 28.9933 60.1579 28.8104C59.9697 28.0623 59.8354 27.2941 59.7372 26.5263C59.7172 26.3396 59.6938 26.1653 59.6738 25.9786C59.6625 25.9329 59.6656 25.8791 59.6652 25.8376C59.6491 25.68 59.673 25.8957 59.6695 25.9081C59.6682 25.7838 59.6525 25.6676 59.6478 25.5557C59.6222 25.1741 59.6109 24.7845 59.5997 24.3949C59.5713 22.6915 59.6764 20.9856 59.8502 19.293C59.9452 18.3535 60.0546 17.406 60.1856 16.467C60.2497 16.0244 60.3102 15.5942 60.3742 15.1516C60.4116 14.9324 60.4347 14.7214 60.4722 14.5022C60.4822 14.4236 60.5362 14.0596 60.4926 14.3864C60.5131 14.2706 60.5301 14.1673 60.5505 14.0515C60.591 13.7785 60.6067 13.5508 60.4958 13.3008C60.3998 13.0842 60.2063 12.8706 59.9962 12.8017C59.7861 12.7329 59.5369 12.7174 59.3433 12.8477C59.1463 12.9903 58.9462 13.1868 58.9127 13.435C58.3775 16.8429 57.8863 20.3093 57.8862 23.7899C57.8952 27.1091 58.4752 30.5014 60.0784 33.3467C60.9902 34.9571 62.1599 36.3801 63.6207 37.3259C63.8674 36.7487 64.1032 36.1673 64.3499 35.5902C63.648 35.4243 62.9725 35.3788 62.2549 35.4406C61.6238 35.4951 61.0083 35.6659 60.408 35.9114C59.2397 36.3738 58.1648 37.1481 57.2322 38.0609C56.253 39.0104 55.4129 40.1522 54.7146 41.391C53.8815 42.8519 53.1975 44.4265 52.517 45.9887C51.7555 47.753 50.9832 49.513 49.9782 51.1127C50.4866 51.4089 50.9985 51.6927 51.5069 51.9889C52.744 48.403 54.0082 44.6352 53.9132 40.6769C53.8394 37.3736 52.8435 33.914 50.6148 31.662C49.1193 30.1523 47.2345 29.3837 45.3791 28.6818C45.2846 29.3187 45.1793 29.9514 45.0848 30.5884C47.9466 31.2321 50.8517 30.1318 53.1463 28.2824C55.6915 26.2289 57.4348 23.076 58.7446 19.8763C59.5086 18.0168 60.1022 16.0764 60.5292 14.0844C60.6324 13.5884 60.4385 12.9894 59.9749 12.8346C59.5582 12.6845 59.0263 12.9019 58.9127 13.435Z" fill="#231F20"/>
<path d="M21.8811 29.0387C21.8051 30.0431 21.7038 31.0513 21.5806 32.051C21.528 32.5406 21.4645 33.0259 21.3901 33.5069C21.3566 33.7557 21.3266 33.9921 21.2822 34.2367C21.2652 34.3404 21.2447 34.4564 21.2278 34.5601C21.2008 34.7426 21.2243 34.5725 21.2312 34.5477C21.2212 34.6265 21.2113 34.7053 21.1869 34.7923C20.8788 36.7535 20.4834 38.6806 20.0193 40.5944C19.8255 41.4146 19.6026 42.2096 19.3325 42.9999C19.2694 43.182 19.2062 43.364 19.1321 43.5418C19.0934 43.6369 19.0546 43.7319 19.0158 43.827C18.9771 43.9221 18.9889 44.0095 19.0228 43.8022C19.0163 43.8686 18.9627 43.9303 18.9452 43.9924C18.7828 44.356 18.6129 44.703 18.4103 45.0371C18.3144 45.2063 18.2112 45.3589 18.1044 45.5238C18.0617 45.5897 17.9938 45.6596 17.962 45.7298C18.0578 45.5606 18.0334 45.6476 17.9977 45.6887C17.9584 45.7422 17.9227 45.7834 17.8835 45.8369C17.6299 46.1372 17.3615 46.4041 17.0638 46.6458C16.9884 46.6989 16.9205 46.7687 16.8451 46.8219C16.8629 46.8013 16.9994 46.7032 16.8773 46.7932C16.8451 46.8219 16.8128 46.8506 16.7732 46.8626C16.6189 46.9812 16.4537 47.0956 16.2885 47.21C15.9761 47.4183 15.6418 47.6179 15.3111 47.8052C14.9515 48.0087 14.588 48.1831 14.2136 48.3533C14.0193 48.4424 13.8249 48.5315 13.6231 48.604C13.58 48.6284 13.5259 48.6485 13.4863 48.6605C13.461 48.6644 13.2954 48.7373 13.4178 48.6888C13.5512 48.6447 13.3638 48.709 13.3494 48.7171C13.2954 48.7373 13.2305 48.7531 13.1729 48.7857C12.3658 49.0754 11.5473 49.3193 10.7248 49.5341C10.3714 49.6297 10.0498 49.9998 10.0581 50.4444C10.0626 50.8599 10.2846 51.3194 10.6512 51.4358C11.3517 51.6558 12.0487 51.8882 12.7357 52.1994C13.1864 52.404 13.6302 52.6335 14.0596 52.8711C14.3033 52.9944 14.536 53.1134 14.7797 53.2367C14.856 53.2666 14.9288 53.309 15.0016 53.3514C15.0234 53.36 15.0343 53.3642 15.0526 53.3852C15.1363 53.4319 15.1145 53.4233 14.9907 53.3471C15.009 53.3681 15.0636 53.3895 15.0854 53.3981C15.2493 53.5038 15.4132 53.6096 15.5701 53.7402C15.7087 53.8498 15.8439 53.9718 15.9681 54.0896C16.0083 54.1191 16.034 54.1568 16.0741 54.1863C16.1691 54.2788 15.9058 54.0099 16.0449 54.1611C16.1181 54.245 16.184 54.3122 16.2572 54.3962C16.5136 54.6899 16.7412 55 16.9509 55.3306C16.9766 55.3682 16.9989 55.4183 17.0246 55.456C17.1166 55.6025 16.9989 55.4183 16.9915 55.4016C17.0067 55.4766 17.1057 55.5982 17.1353 55.665C17.2387 55.8573 17.3312 56.0453 17.4236 56.2333C17.5976 56.605 17.7647 57.0016 17.899 57.3853C17.9662 57.5772 18.0333 57.7691 18.0896 57.9566C18.1607 58.1776 18.0294 57.7399 18.0896 57.9566C18.1009 58.0025 18.1158 58.0359 18.1271 58.0817C18.1646 58.2068 18.2021 58.3318 18.2287 58.4526C18.3417 58.8693 18.4438 59.2817 18.5315 59.7023C18.7222 60.6184 18.8698 61.5589 18.9847 62.4866C19.048 62.9941 19.1078 63.5141 19.1603 64.0173C19.176 64.1338 19.1808 64.246 19.1965 64.3625C19.2044 64.4208 19.2088 64.4915 19.2166 64.5497C19.2258 64.7326 19.2132 64.5621 19.2127 64.5206C19.2411 64.8075 19.2477 65.0859 19.2652 65.3686C19.4022 67.684 19.3583 69.9973 19.137 72.2961C19.0844 72.7856 19.4581 73.222 19.8425 73.3178C20.2959 73.4269 20.6327 73.1317 20.8087 72.6768C22.2388 69.0877 22.4522 65.0483 23.7005 61.374C23.795 61.0801 23.9113 60.7949 24.0133 60.5177C24.0451 60.4475 24.0769 60.3772 24.0978 60.3027C24.1435 60.1828 23.9919 60.5507 24.066 60.373C24.0764 60.3357 24.0943 60.3151 24.1047 60.2779C24.1718 60.1249 24.2389 59.972 24.306 59.8191C24.5817 59.2241 24.8902 58.642 25.2135 58.0932C25.3912 57.8045 25.569 57.5158 25.7576 57.2313C25.843 57.0994 25.925 56.9799 26.0178 56.8647C26.0605 56.7987 26.1141 56.737 26.1568 56.671C26.2496 56.5558 26.1176 56.7246 26.1032 56.7327C26.1389 56.6916 26.1638 56.6462 26.1995 56.605C26.5921 56.1111 27.0139 55.6424 27.4797 55.2324C27.5943 55.1258 27.7199 55.0234 27.8454 54.921C27.8632 54.9004 27.9996 54.8023 27.8632 54.9004C27.7377 55.0028 27.8776 54.8923 27.9064 54.876C27.9674 54.831 28.0284 54.786 28.1003 54.7453C28.3552 54.5696 28.6285 54.4149 28.9057 54.2894C28.9776 54.2487 29.0569 54.2247 29.1253 54.1964C29.2225 54.1518 28.9379 54.2607 29.0425 54.2328C29.0822 54.2208 29.1218 54.2088 29.165 54.1844C29.3092 54.1445 29.4426 54.1004 29.5978 54.0648C29.7386 54.0373 29.8793 54.0099 30.0166 53.9949C30.0419 53.991 30.1901 53.9803 30.031 53.9867C29.8828 53.9975 30.0057 53.9906 30.0419 53.991C30.1287 53.9837 30.2119 53.9888 30.2951 53.9939C30.6569 53.9981 31.0522 53.7535 31.1453 53.335C31.242 52.9041 31.1181 52.4831 30.7968 52.2052C29.5517 51.1232 28.1541 50.326 26.8912 49.2646C26.7451 49.1383 26.5991 49.012 26.4565 48.8732C26.4273 48.848 26.3981 48.8227 26.3688 48.7974C26.3505 48.7764 26.2333 48.6338 26.3322 48.7554C26.4312 48.8771 26.3139 48.7345 26.2956 48.7135C26.259 48.6715 26.2115 48.6253 26.1749 48.5833C25.9041 48.2977 25.6656 47.9834 25.445 47.6485C25.4118 47.5941 25.3787 47.5397 25.3421 47.4978C25.2649 47.3847 25.3534 47.5436 25.3752 47.5522C25.3391 47.5517 25.2461 47.3222 25.2239 47.2721C25.124 47.0674 25.0242 46.8627 24.9387 46.6498C24.868 46.4704 24.8009 46.2785 24.7337 46.0867C24.7001 45.9907 24.6665 45.8948 24.6329 45.7989C24.7223 46.0408 24.6665 45.8948 24.6478 45.8323C24.629 45.7697 24.6138 45.6948 24.5841 45.628C24.3625 44.8652 24.2167 44.0909 24.1106 43.3045C24.0831 43.1007 24.063 42.9135 24.0464 42.7139C24.0346 42.6266 24.0228 42.5392 24.0254 42.4437C24.0141 42.3978 24.0171 42.3439 24.0058 42.2981C23.9891 42.0985 24.0224 42.4976 24.0023 42.3105C23.9725 41.8989 23.9571 41.4791 23.9383 41.0718C23.8799 39.3389 23.9444 37.5991 23.9584 35.867C23.9622 33.5242 23.8574 31.1801 23.5143 28.8665C23.44 28.3547 22.9187 27.9706 22.4859 28.0902C22.0134 28.2219 21.7581 28.7008 21.8328 29.2541C21.9183 29.8117 21.9896 30.3775 22.0498 30.939C22.0743 31.1968 22.1097 31.459 22.1232 31.7125C22.1193 31.6834 22.1101 31.5005 22.1193 31.6834C22.1272 31.7416 22.1315 31.8123 22.1394 31.8706C22.1482 32.0119 22.1569 32.1532 22.1691 32.2821C22.2304 33.2715 22.2555 34.2605 22.2553 35.2533C22.2636 37.0355 22.1995 38.8168 22.2331 40.5951C22.2658 42.2903 22.4 44.0117 22.8228 45.6533C23.0492 46.5282 23.3266 47.437 23.7618 48.2147C24.2231 49.0716 24.7987 49.7803 25.4784 50.4196C26.8342 51.7106 28.4568 52.5686 29.8588 53.7812C30.026 53.1849 30.1933 52.5887 30.364 51.98C27.7444 51.9164 25.6261 54.0769 24.1635 56.3156C23.4053 57.4658 22.7824 58.738 22.2793 60.0573C21.632 61.7613 21.2392 63.5928 20.8753 65.408C20.4182 67.6418 19.9938 69.8883 19.1661 71.9765C19.7245 72.0993 20.2794 72.2345 20.8378 72.3573C21.0361 70.2701 21.0856 68.1521 20.9979 66.0492C20.9028 63.9295 20.6918 61.7919 20.2968 59.7061C19.956 57.945 19.4521 56.1613 18.6001 54.6269C18.1317 53.7948 17.6102 53.0659 16.9414 52.4309C16.3529 51.855 15.6689 51.4898 14.9706 51.1328C14.4614 50.8776 13.9702 50.6019 13.4575 50.3592C12.6977 50.0056 11.9244 49.7433 11.1367 49.489C11.1146 50.1285 11.0851 50.7513 11.0631 51.3907C12.6033 50.989 14.1353 50.4875 15.5887 49.7484C17.0313 49.0049 18.4463 48.0576 19.4585 46.6486C20.4315 45.2932 21.0099 43.576 21.4475 41.8862C21.9479 39.9729 22.3501 38.021 22.68 36.0682C23.0713 33.7673 23.3645 31.4278 23.5492 29.0871C23.5835 28.5765 23.1728 28.0567 22.7278 28.0473C22.2871 28.1087 21.915 28.4866 21.8811 29.0387Z" fill="#231F20"/>
<path d="M56.4809 69.1928C56.4417 69.9346 56.3698 70.6635 56.2584 71.4045C56.2719 71.3134 56.2819 71.2347 56.2954 71.1436C56.072 72.584 55.6968 74.0059 55.1471 75.3179C55.1824 75.2354 55.2141 75.1653 55.2494 75.0828C54.8054 76.1473 54.2488 77.14 53.579 78.0193C53.6325 77.9578 53.6752 77.892 53.7287 77.8304C53.4045 78.2536 53.062 78.6559 52.6829 79.0162C52.497 79.2048 52.2894 79.3847 52.0853 79.5523C51.9922 79.6258 51.8991 79.6994 51.8059 79.7729C52.0531 79.5809 51.8525 79.7361 51.7916 79.781C51.7306 79.8259 51.6697 79.8708 51.6122 79.9032C51.1892 80.205 50.7331 80.4525 50.2731 80.6709C50.1617 80.7235 50.0394 80.7718 49.928 80.8244C49.8597 80.8526 49.6295 80.941 49.9137 80.8325C49.8488 80.8483 49.7914 80.8808 49.723 80.909C49.4676 81.0013 49.2047 81.077 48.9419 81.1526C48.4484 81.2752 47.9653 81.3607 47.46 81.3961C47.5357 81.3846 47.608 81.3854 47.6837 81.3739C47.3264 81.3987 46.9691 81.4234 46.6084 81.4606C46.3594 81.4866 46.1249 81.5045 45.9094 81.6264C45.4281 81.8777 45.3018 82.5852 45.5886 83.0697C45.7357 83.3202 45.9829 83.4725 46.1905 83.6367C46.5438 83.927 46.8902 84.2421 47.2187 84.5778C47.1639 84.5149 47.1056 84.4645 47.0508 84.4016C47.9416 85.3162 48.7649 86.342 49.4411 87.4613C49.4559 87.4947 49.4742 87.5156 49.489 87.549C49.3493 87.3151 49.4045 87.4194 49.4411 87.4613C49.4816 87.5323 49.5146 87.5866 49.5551 87.6576C49.6286 87.7829 49.6987 87.9205 49.7614 88.0415C49.8758 88.2793 49.9902 88.517 50.0868 88.7752C50.1386 88.8919 50.176 89.0168 50.2243 89.1459C50.243 89.2083 50.2617 89.2707 50.2805 89.3332C50.2992 89.3956 50.3292 89.5038 50.2396 89.2207C50.2509 89.2665 50.2657 89.2998 50.277 89.3456C50.3518 89.5953 50.4232 89.8574 50.4693 90.1233C50.6094 90.7428 50.6846 91.3781 50.7455 92.0216C50.7338 91.9343 50.7329 91.8514 50.7212 91.7642C50.9056 94.2046 50.6204 96.6393 50.3313 99.045C50.2477 99.6867 50.175 100.333 50.1023 100.979C50.0757 101.202 50.191 101.523 50.3154 101.682C50.4508 101.845 50.6144 101.951 50.8064 101.999C51.2263 102.095 51.628 101.826 51.7712 101.359C52.0929 100.343 52.4145 99.327 52.7397 98.2984C53.0509 97.3194 53.3329 96.3152 53.7312 95.3704C53.6959 95.4529 53.6642 95.523 53.6289 95.6055C53.978 94.7928 54.3814 94.0015 54.8106 93.2478C55.0234 92.8771 55.2471 92.5108 55.4708 92.1444C55.6627 91.8482 55.8473 91.5352 56.061 91.2475C56.0075 91.3091 55.9648 91.3749 55.9113 91.4365C56.175 91.0996 56.4753 90.8047 56.8013 90.5473C56.8479 90.5106 56.8944 90.4738 56.9445 90.4246C57.052 90.343 56.7473 90.5674 56.9157 90.4409C57.0232 90.3592 57.1273 90.29 57.2348 90.2083C57.4319 90.0656 57.6365 89.9395 57.841 89.8134C58.2753 89.5573 58.7279 89.3222 59.188 89.1038C59.2994 89.0513 59.4073 89.0111 59.5187 88.9585C59.5727 88.9384 59.6266 88.9183 59.6841 88.8858C59.7128 88.8696 59.7415 88.8533 59.7776 88.8538C59.738 88.8657 59.5727 88.9384 59.6985 88.8777C59.9143 88.7974 60.141 88.7213 60.3569 88.641C60.7925 88.5093 61.2356 88.3944 61.6903 88.3666C61.6146 88.3782 61.5424 88.3773 61.4667 88.3889C61.5028 88.3893 61.5389 88.3897 61.5785 88.3777C61.7987 88.3679 62.0185 88.3167 62.1865 88.1487C62.3257 87.9969 62.4141 87.8114 62.4515 87.592C62.526 87.1119 62.2862 86.6322 61.8728 86.4697C61.6878 86.397 61.5064 86.3119 61.3393 86.2187C61.4119 86.261 61.4737 86.2991 61.5464 86.3414C61.2048 86.1383 60.8771 85.8856 60.5851 85.5918C60.6399 85.6547 60.6983 85.7051 60.7531 85.768C60.5742 85.5875 60.4097 85.399 60.2631 85.1899C60.1826 85.0894 60.1165 84.9808 60.036 84.8803C60.0029 84.826 59.9589 84.7674 59.9258 84.7131C59.9076 84.6922 59.8928 84.6588 59.8745 84.6379C59.8671 84.6212 59.8597 84.6045 59.8488 84.6003C59.7936 84.4959 59.9298 84.7422 59.9224 84.7255C59.65 84.233 59.4063 83.7242 59.1948 83.1868C59.15 83.0452 59.0908 82.9119 59.046 82.7703C59.0273 82.7079 59.0012 82.6288 58.9825 82.5664C58.9303 82.4082 59.0347 82.7246 59.016 82.6622C59.0047 82.6164 58.9899 82.5831 58.9786 82.5373C58.8815 82.2376 58.8097 81.934 58.7271 81.6262C58.5687 80.9857 58.4499 80.3333 58.3564 79.6771C58.2437 78.9169 58.1598 78.1405 58.0976 77.3726C58.1094 77.4598 58.1102 77.5428 58.1219 77.63C57.9467 75.3722 57.959 73.0917 58.0762 70.8249C58.1032 70.2986 58.1376 69.789 58.1755 69.267C58.2099 68.7574 57.8 68.2383 57.3557 68.2288C56.8865 68.2647 56.5148 68.6417 56.4809 69.1928C56.3925 70.4109 56.3258 71.6375 56.3062 72.8688C56.2778 74.3031 56.3039 75.7589 56.3947 77.1988C56.5008 78.7136 56.6648 80.2373 56.9981 81.7175C57.29 83.0437 57.7086 84.3922 58.3635 85.5445C58.6798 86.0956 59.0249 86.6305 59.4557 87.0752C59.934 87.5661 60.4292 87.9535 61.021 88.255C61.1372 88.3144 61.2569 88.3615 61.3657 88.4042C61.4601 87.7668 61.5655 87.1336 61.66 86.4962C60.6564 86.5422 59.7098 86.8585 58.7785 87.2496C57.8472 87.6406 56.9351 88.1356 56.1073 88.7602C55.6951 89.0662 55.3047 89.3808 54.9513 89.7788C54.5409 90.2508 54.2037 90.8065 53.8698 91.3499C53.0638 92.6713 52.3269 94.0474 51.7972 95.5463C51.499 96.3927 51.2409 97.2687 50.9754 98.128C50.7029 99.0122 50.423 99.8796 50.1506 100.764C50.708 100.886 51.262 101.022 51.8195 101.144C52.1208 98.5232 52.5304 95.9034 52.5027 93.2492C52.4815 91.9055 52.3732 90.5275 52.013 89.2295C51.8363 88.5681 51.6057 87.9268 51.3177 87.3179C50.9783 86.6338 50.5705 85.9779 50.1379 85.3674C49.6649 84.6858 49.1454 84.041 48.5866 83.4497C48.2724 83.1059 47.9404 82.7827 47.594 82.4675C47.3133 82.2195 47.0257 81.9963 46.7415 81.7607C46.7963 81.8236 46.8547 81.874 46.9095 81.9369C46.9761 82.0869 47.0352 82.2203 47.1018 82.3704C47.1135 82.4576 47.1144 82.5406 47.1262 82.6278C47.1127 82.7189 47.1026 82.7975 47.0891 82.8886C47.0539 82.9711 47.0221 83.0412 46.9869 83.1237C46.9333 83.1853 46.8907 83.2511 46.8371 83.3127C46.7405 83.3986 46.6152 83.5007 46.5034 83.5118C46.5286 83.508 46.543 83.4999 46.5682 83.496C46.633 83.4802 46.6944 83.4768 46.7592 83.461C46.9359 83.4341 47.12 83.4238 47.3041 83.4136C47.2284 83.4251 47.1562 83.4243 47.0804 83.4358C47.5857 83.4004 48.1018 83.3692 48.6101 83.28C49.1941 83.1791 49.7595 83.0159 50.3135 82.8069C51.4933 82.3483 52.5844 81.6896 53.5466 80.8013C55.3963 79.1192 56.6785 76.7046 57.4102 74.1425C57.842 72.6052 58.0923 70.9827 58.1838 69.3666C58.2073 68.8527 57.8226 68.3298 57.3639 68.3285C56.8974 68.269 56.504 68.6375 56.4809 69.1928Z" fill="#231F20"/>
<path d="M76.79 38.9284C76.748 39.4196 76.6952 39.9065 76.6316 40.3892C76.6015 40.6243 76.5679 40.8718 76.5344 41.1193C76.5243 41.1977 76.4811 41.5649 76.5143 41.276C76.4977 41.4205 76.4703 41.5606 76.4463 41.6884C76.2795 42.6656 76.0875 43.6466 75.863 44.6148C75.4104 46.5636 74.8567 48.4863 74.2015 50.3417C74.0368 50.7983 73.872 51.2549 73.7038 51.7239C73.6229 51.9254 73.5494 52.1434 73.4686 52.3449C73.4299 52.4395 73.3912 52.534 73.3491 52.6409C73.3351 52.6903 73.3104 52.7355 73.2999 52.7726C73.2682 52.8424 73.2895 52.8096 73.3421 52.6656C73.3317 52.7027 73.3104 52.7355 73.2999 52.7726C72.9796 53.5247 72.6085 54.2432 72.2084 54.9366C72.0029 55.2811 71.7865 55.6214 71.5628 55.9451C71.4455 56.1048 71.3391 56.2687 71.2218 56.4284C71.197 56.4736 71.1649 56.5021 71.1401 56.5472C71.2713 56.3381 71.2005 56.4612 71.1614 56.5144C71.0902 56.5962 71.0263 56.6946 70.9551 56.7763C70.4569 57.39 69.9258 57.9495 69.3365 58.4587C69.1758 58.6013 69.0043 58.7397 68.8363 58.8657C68.7898 58.9023 68.7073 58.9385 68.8827 58.8291C68.8363 58.8657 68.779 58.8981 68.7325 58.9347C68.643 58.9956 68.5644 59.0607 68.475 59.1216C68.1315 59.357 67.7842 59.5634 67.4152 59.7613C67.2324 59.8541 67.0496 59.9469 66.856 60.0354C66.7592 60.0797 66.655 60.1073 66.569 60.1558C66.7553 60.0507 66.6767 60.1158 66.6086 60.1439C66.5547 60.1639 66.5009 60.1839 66.4362 60.1996C66.0485 60.3353 65.6427 60.4502 65.2364 60.5237C64.8805 60.5895 64.5711 61.003 64.5718 61.4286C64.5734 61.5939 64.5968 61.7677 64.6631 61.9173C64.7407 62.1125 64.9701 62.3673 65.1614 62.4151C65.9161 62.6021 66.6568 62.8385 67.3767 63.149C67.7312 63.3021 68.0713 63.4633 68.4189 63.6411C68.5022 63.6876 68.5963 63.7383 68.6796 63.7848C68.7412 63.8228 69.0528 64.0001 68.7846 63.8398C68.9586 63.9494 69.1361 64.0466 69.3101 64.1562C69.9769 64.5693 70.6263 65.0442 71.2401 65.56C71.5525 65.82 71.8613 66.0924 72.1524 66.3852C72.2179 66.4522 72.276 66.5024 72.3415 66.5694C72.3779 66.6111 72.4179 66.6406 72.4543 66.6823C72.2543 66.4939 72.3888 66.6154 72.4361 66.6614C72.5853 66.8161 72.7237 66.9666 72.8729 67.1213C73.4337 67.7397 73.9624 68.3867 74.4446 69.0703C74.6857 69.4121 74.916 69.7496 75.1284 70.1075C75.187 70.1992 75.2455 70.2908 75.304 70.3824C75.3261 70.4322 75.3625 70.474 75.3846 70.5239C75.2528 70.3074 75.3114 70.399 75.3443 70.4531C75.4653 70.6653 75.5789 70.861 75.689 71.0689C76.0853 71.801 76.4459 72.574 76.7562 73.3546C76.9187 73.7615 77.0669 74.1765 77.2116 74.6039C77.2341 74.695 77.2709 74.7781 77.2934 74.8693C77.186 74.5664 77.3121 74.9315 77.3272 75.0061C77.387 75.2217 77.4467 75.4373 77.5065 75.6529C77.7499 76.5855 77.9394 77.5382 78.0569 78.49C78.0845 78.7341 78.1121 78.9782 78.1324 79.2057C78.1488 79.4042 78.1156 78.9658 78.1285 79.1767C78.1328 79.247 78.1336 79.3297 78.1379 79.4C78.1426 79.5116 78.1473 79.6232 78.152 79.7348C78.1786 80.2392 78.1801 80.7475 78.1598 81.2472C78.1469 81.7635 78.5194 82.2804 78.9769 82.2819C79.193 82.2846 79.4266 82.2255 79.5834 82.0539C79.7579 81.8619 79.8314 81.6438 79.8719 81.3716C79.8754 81.3592 79.909 81.1117 79.8889 81.2685C79.8689 81.4252 79.899 81.1901 79.9025 81.1778C79.916 81.087 79.9295 80.9963 79.943 80.9056C79.9769 80.6994 80.0109 80.4932 80.0557 80.2913C80.121 79.9739 80.1863 79.6566 80.2625 79.3435C80.3873 78.8575 80.5374 78.3676 80.6622 77.8816C80.8327 77.2763 80.9672 76.6706 81.0835 76.044C81.1688 75.5699 81.2433 75.0915 81.3179 74.6132C81.3619 74.3286 81.4059 74.0441 81.4534 73.7472C81.4564 73.6935 81.4703 73.6441 81.4734 73.5904C81.507 73.3429 81.4533 73.7471 81.4734 73.5904C81.5008 73.4502 81.5139 73.3182 81.5414 73.178C81.6908 72.2626 81.8545 71.3391 82.0834 70.4412C82.2013 69.9799 82.3265 69.5352 82.4878 69.0909C82.5578 68.8852 82.6313 68.6671 82.723 68.4699C82.6065 68.7122 82.7795 68.3549 82.7934 68.3055C82.8499 68.1905 82.8921 68.0836 82.9486 67.9686C83.1215 67.6113 83.3235 67.2791 83.5329 66.9635C83.6216 66.82 83.721 66.6807 83.8205 66.5415C83.8631 66.4759 83.9057 66.4103 83.9556 66.3613C83.9804 66.3162 84.0125 66.2877 84.0373 66.2425C84.1689 66.0747 83.9769 66.3285 84.0338 66.2549C84.4786 65.7026 84.9489 65.1877 85.463 64.7313C85.6059 64.6091 85.7956 64.4916 85.9311 64.3528C85.9168 64.3609 85.7631 64.4788 85.8847 64.3894C85.9312 64.3528 85.9741 64.3286 86.0206 64.2919C86.0957 64.2392 86.1708 64.1864 86.246 64.1336C86.5573 63.9267 86.876 63.7364 87.2129 63.567C87.3813 63.4823 87.5606 63.4019 87.7399 63.3215C87.8762 63.2653 87.6969 63.3457 87.6861 63.3415C87.7364 63.3338 87.7829 63.2972 87.8333 63.2896C87.9266 63.2577 88.0199 63.2258 88.1024 63.1896C88.4614 63.0701 88.8208 62.9919 89.1985 62.9346C89.5509 62.8811 89.8671 62.4428 89.863 62.0296C89.8585 61.575 89.6352 61.2128 89.2734 61.0431C88.9006 60.8691 88.5314 60.6827 88.1656 60.484C88.0823 60.4375 87.999 60.3911 87.9157 60.3446C87.8724 60.3275 87.8359 60.2858 87.7925 60.2687C88.0129 60.3416 87.865 60.3109 87.8034 60.273C87.6185 60.1591 87.4303 60.0576 87.2563 59.9481C86.5604 59.5098 85.8858 59.0387 85.2468 58.5267C84.9236 58.2624 84.6112 58.0024 84.3058 57.7177C84.164 57.5796 84.0187 57.4538 83.866 57.3115C83.8478 57.2906 83.6478 57.1022 83.6478 57.1022C83.6769 57.1273 83.7025 57.1648 83.7315 57.19C83.7025 57.1648 83.6769 57.1273 83.6478 57.1022C83.6114 57.0604 83.5641 57.0144 83.5277 56.9726C82.9417 56.358 82.4022 55.7068 81.9017 55.0024C81.6533 54.644 81.4048 54.2855 81.185 53.911C81.1594 53.8735 81.1446 53.8402 81.119 53.8027C81.2617 54.0235 81.1411 53.8526 81.119 53.8027C81.0713 53.7154 81.0128 53.6237 80.9651 53.5364C80.8515 53.3408 80.7523 53.1371 80.653 52.9334C80.4618 52.5427 80.2742 52.1396 80.1116 51.7326C79.9418 51.3091 79.8114 50.8736 79.6523 50.4544C79.7485 50.7117 79.6337 50.3922 79.6186 50.3176C79.5887 50.2098 79.5553 50.1144 79.5255 50.0066C79.4583 49.7744 79.402 49.5464 79.3457 49.3185C79.2332 48.8626 79.1458 48.4029 79.0584 47.9432C78.8944 47.028 78.7809 46.1052 78.6959 45.1662C78.6955 45.1249 78.6843 45.0793 78.6839 45.038C78.6834 44.9967 78.6722 44.9511 78.6718 44.9098C78.6804 45.0503 78.6877 45.067 78.6795 44.9677C78.6675 44.8395 78.6589 44.6989 78.6468 44.5706C78.6335 44.3184 78.6202 44.0662 78.6069 43.814C78.5838 43.2973 78.5641 42.7681 78.5518 42.2556C78.5269 41.1893 78.5236 40.1315 78.5203 39.0737C78.5189 38.5655 78.1716 38.0447 77.7033 38.039C77.2311 38.0042 76.7882 38.3789 76.79 38.9284C76.7885 42.7834 76.7992 46.7667 77.859 50.4901C78.3964 52.3891 79.1883 54.1549 80.2524 55.7671C81.258 57.2876 82.485 58.6208 83.8146 59.761C85.3294 61.0564 87.0002 62.0976 88.7479 62.9083C88.7705 62.2723 88.8004 61.6529 88.8229 61.0169C85.9672 61.4444 83.4703 63.5498 81.8832 66.2325C80.9161 67.8692 80.4054 69.7677 80.0679 71.6931C79.976 72.2332 79.8876 72.761 79.8065 73.3054C79.7826 73.4332 79.7729 73.5529 79.749 73.6807C79.7459 73.7344 79.732 73.7838 79.7289 73.8375C79.6954 74.085 79.749 73.6807 79.7255 73.8498C79.6919 74.0973 79.644 74.3529 79.6104 74.6004C79.481 75.359 79.3517 76.1177 79.1572 76.8508C79.0115 77.4109 78.8441 77.9625 78.6983 78.5227C78.473 79.4082 78.3127 80.3194 78.1741 81.2391C78.7401 81.2833 79.3095 81.3151 79.8863 81.3635C79.9974 77.6751 79.1177 73.9539 77.4904 70.7482C75.8665 67.5301 73.5228 64.7287 70.7271 62.8473C69.1678 61.7952 67.467 60.9891 65.7051 60.5708C65.6826 61.2068 65.6527 61.8262 65.6302 62.4622C68.7685 61.8439 71.4148 59.5503 73.2702 56.685C74.2316 55.197 74.9392 53.5406 75.5561 51.8211C76.2469 49.9248 76.8401 47.9902 77.3248 46.0129C77.8787 43.7472 78.3023 41.4303 78.5168 39.0861C78.5623 38.5825 78.1429 38.0609 77.6998 38.0513C77.1951 38.0038 76.8459 38.3879 76.79 38.9284Z" fill="#231F20"/>
</svg>
