<svg width="35" height="35" viewBox="0 0 35 35" fill="none" xmlns="http://www.w3.org/2000/svg">
<path d="M17.5 35C27.165 35 35 27.165 35 17.5C35 7.83502 27.165 0 17.5 0C7.83502 0 0 7.83502 0 17.5C0 27.165 7.83502 35 17.5 35Z" fill="black"/>
<path d="M14.2975 26.7312C22.0588 26.7312 26.3025 20.3 26.3025 14.7262C26.3025 14.5425 26.3025 14.3587 26.2938 14.1837C27.1163 13.5887 27.8338 12.845 28.4025 11.9962C27.65 12.3287 26.8363 12.5562 25.9788 12.6612C26.8538 12.1362 27.5188 11.3137 27.8338 10.325C27.02 10.8062 26.1188 11.1562 25.1563 11.3487C24.3863 10.5262 23.2925 10.0187 22.0763 10.0187C19.7488 10.0187 17.8588 11.9087 17.8588 14.2362C17.8588 14.5687 17.8938 14.8925 17.9725 15.1987C14.4638 15.0237 11.3575 13.3437 9.27501 10.7887C8.91626 11.41 8.70626 12.1362 8.70626 12.9062C8.70626 14.3675 9.45001 15.6625 10.5875 16.415C9.89626 16.3975 9.24875 16.205 8.68 15.89C8.68 15.9075 8.68 15.925 8.68 15.9425C8.68 17.99 10.1325 19.6875 12.0663 20.0812C11.7163 20.1775 11.34 20.23 10.955 20.23C10.6838 20.23 10.4213 20.2037 10.1588 20.1512C10.6925 21.8312 12.25 23.0475 14.0963 23.0825C12.6525 24.2112 10.8325 24.885 8.855 24.885C8.51375 24.885 8.18125 24.8675 7.84875 24.8237C9.69501 26.0312 11.9175 26.7312 14.2975 26.7312Z" fill="white"/>
</svg>
