<svg width="195" height="45" viewBox="0 0 195 45" fill="none" xmlns="http://www.w3.org/2000/svg">
<path fill-rule="evenodd" clip-rule="evenodd" d="M108.381 28.6097C108.381 28.9622 108.32 29.3734 108.258 29.6672C107.703 31.1946 106.224 32.1933 104.497 32.1933C102.956 32.1933 101.785 31.3708 101.785 29.6084C101.785 26.9061 104.867 26.2011 108.443 26.2011V28.6097H108.381ZM113.93 23.91C113.93 19.504 111.957 15.5679 105.237 15.5679C101.785 15.5679 99.0105 16.5079 97.5308 17.3303L98.6406 20.9139C100.367 19.9739 102.278 19.4452 104.251 19.3865C107.703 19.3865 108.258 21.2076 108.258 22.3826V22.6763C100.798 22.6763 96.1129 25.1437 96.1129 30.1371C96.1129 33.192 98.5173 36.0706 102.709 36.0706C105.237 36.0706 107.395 35.1306 108.69 33.5444H108.813C108.813 33.5444 109.676 36.9518 114.361 35.6593C114.115 34.2494 113.991 32.722 113.991 30.9596V23.91H113.93ZM0 9.51703L5.67183 31.6058C6.59659 35.1894 8.1995 36.5405 12.8849 35.6593L15.9058 23.91C16.6456 20.9726 17.2004 18.9165 17.6937 15.9204H17.7553C18.1252 18.9165 18.6184 20.9726 19.2349 23.91L21.0844 32.0758C21.7626 34.8956 23.4888 36.658 28.1126 35.6593L35.3256 9.57577H29.4689L27.0029 20.8551C26.3247 24.145 25.7082 26.7298 25.2766 29.7259C24.8451 26.7298 24.2902 24.2625 23.6121 21.0901L21.0844 9.57577H14.981L12.2068 20.7964C11.467 24.2037 10.7272 26.9648 10.234 29.8434H10.1723C9.6791 27.141 9.0626 23.675 8.38445 20.3852L6.16503 9.51703H0ZM46.0528 28.6097C46.0528 28.9622 46.0528 29.3734 45.9295 29.6672C45.3747 31.1946 43.8951 32.1933 42.1688 32.1933C40.6276 32.1933 39.4562 31.3708 39.4562 29.6084C39.4562 26.9061 42.5387 26.2011 46.1145 26.2011V28.6097H46.0528ZM51.663 23.91C51.663 19.504 49.6902 15.5679 42.9703 15.5679C39.5179 15.5679 36.7436 16.5079 35.264 17.3303L36.3737 20.9139C38.0999 19.9739 40.0111 19.4452 41.9839 19.3865C45.4363 19.3865 45.9912 21.2076 45.9912 22.3826V22.6763C38.5315 22.6763 33.846 25.1437 33.846 30.1371C33.846 33.192 36.2504 36.0706 40.4426 36.0706C42.9703 36.0706 45.1281 35.1306 46.4227 33.5444H46.546C46.546 33.5444 47.4091 36.9518 52.0945 35.6593C51.8479 34.2494 51.7246 32.722 51.7246 30.9596V23.91H51.663ZM60.2324 30.0784V9.51703H54.6839V35.6006H60.2324V30.0784ZM131.007 9.57577V28.786C131.007 31.4296 131.5 33.3095 132.672 34.4256C133.658 35.4243 135.261 36.0706 137.172 36.0706C138.837 36.0706 140.439 35.7768 141.179 35.4831L141.118 31.3121C140.563 31.4883 139.885 31.5471 139.022 31.5471C137.11 31.5471 136.494 30.4309 136.494 28.0223V20.7377H141.364V15.7442H136.494V9.51703L131.007 9.57577ZM116.642 16.0379V35.6593H122.376V25.6136C122.376 25.0849 122.438 24.6149 122.499 24.145C122.931 22.0301 124.595 20.6789 127.061 20.6789C127.74 20.6789 128.171 20.7377 128.726 20.7964V15.6267C128.294 15.5679 127.863 15.5092 127.493 15.5092C125.335 15.5092 122.931 16.8016 121.883 19.6802H121.759V15.9792L116.642 16.0379ZM63.4999 16.0379V35.6593H69.0484V24.145C69.0484 23.6162 69.11 23.0288 69.295 22.5588C69.7265 21.3839 70.8979 20.0327 72.6858 20.0327C74.9668 20.0327 76.0149 21.8538 76.0149 24.4387V35.6006H81.6251V23.9687C81.6251 23.44 81.6867 22.7938 81.8717 22.3826C82.3032 20.9726 83.7212 19.9739 85.2624 19.9739C87.5435 19.9739 88.6532 21.7363 88.6532 24.8499V35.6006H94.2634V24.0862C94.2634 18.0353 90.9959 15.5679 87.3585 15.5679C85.694 15.5679 84.461 15.9792 83.2896 16.6254C82.3032 17.2129 81.4401 18.0353 80.7003 19.0927H80.6387C79.7139 16.9191 77.4328 15.5092 74.9668 15.5679C72.5008 15.4504 70.1581 16.6254 68.9867 18.6815H68.9251V16.0379H63.4999Z" fill="white"/>
<path fill-rule="evenodd" clip-rule="evenodd" d="M171.388 15.1567C172.498 15.1567 173.422 14.5692 173.546 13.923L174.594 2.11488C174.594 0.939948 173.176 0 171.388 0C169.6 0 168.182 0.939948 168.182 2.11488L169.292 13.923C169.354 14.6279 170.278 15.1567 171.388 15.1567ZM164.668 18.8577C165.223 17.9178 165.161 16.9191 164.606 16.4491L154.434 9.69321C153.386 9.10574 151.783 9.81071 150.92 11.2794C149.995 12.748 150.18 14.4517 151.228 14.9804L162.51 19.9739C163.188 20.2089 164.175 19.7389 164.668 18.8577ZM178.046 18.799C178.601 19.7389 179.526 20.2089 180.266 19.9151L191.486 14.9217C192.534 14.3342 192.719 12.6893 191.794 11.2206C190.869 9.75196 189.328 9.047 188.28 9.63446L178.108 16.4491C177.553 16.9191 177.491 17.9178 178.046 18.799ZM171.388 29.8433C172.498 29.8433 173.422 30.4308 173.546 31.077L174.594 42.8851C174.594 44.0601 173.176 45 171.388 45C169.6 45 168.182 44.0601 168.182 42.8851L169.292 31.077C169.354 30.3721 170.278 29.8433 171.388 29.8433ZM178.046 26.201C178.601 25.2611 179.526 24.7911 180.266 25.0261L191.486 30.0196C192.534 30.607 192.719 32.252 191.794 33.7206C190.869 35.1893 189.328 35.8943 188.28 35.3068L178.108 28.5509C177.553 28.1397 177.491 27.0822 178.046 26.201ZM164.668 26.201C165.223 27.0822 165.161 28.1397 164.606 28.6097L154.434 35.3655C153.386 35.953 151.783 35.248 150.92 33.7794C149.995 32.3107 150.18 30.6658 151.228 30.0783L162.51 25.0849C163.188 24.7911 164.175 25.2611 164.668 26.201ZM193.89 34.3081H194.014C194.137 34.3081 194.26 34.2493 194.26 34.1906C194.26 34.0731 194.199 34.0731 194.075 34.0731H193.952V34.3081H193.89ZM193.89 34.8368H193.644V33.8969H194.014C194.199 33.8969 194.26 33.8969 194.384 33.9556C194.445 34.0144 194.507 34.0731 194.507 34.1319C194.507 34.2493 194.445 34.3081 194.322 34.3668C194.445 34.4256 194.507 34.4843 194.507 34.6018C194.507 34.7781 194.569 34.7781 194.569 34.8368H194.322C194.26 34.7781 194.26 34.7193 194.26 34.6018C194.26 34.4843 194.199 34.4843 194.075 34.4843H193.952L193.89 34.8368ZM194.014 33.6031C193.582 33.6031 193.274 33.9556 193.274 34.3668C193.274 34.7781 193.582 35.1305 194.014 35.1305C194.445 35.1305 194.753 34.7781 194.753 34.3668C194.815 33.9556 194.445 33.6031 194.014 33.6031ZM194.014 33.4269C194.569 33.4269 195 33.8381 195 34.3668C195 34.8956 194.569 35.3068 194.014 35.3068C193.459 35.3068 192.966 34.8956 192.966 34.3668C193.027 33.8381 193.459 33.4269 194.014 33.4269Z" fill="white"/>
</svg>
